<svg xmlns="http://www.w3.org/2000/svg" width="61" height="61" viewBox="0 0 61 61">
  <g id="calendario" transform="translate(-2 -2)">
    <path id="Trazado_1094342" data-name="Trazado 1094342" d="M56,40.105V12a5.006,5.006,0,0,0-5-5H49V5a3,3,0,0,0-6,0V7H38V5a3,3,0,0,0-6,0V7H26V5a3,3,0,0,0-6,0V7H15V5A3,3,0,0,0,9,5V7H7a5.006,5.006,0,0,0-5,5V52a5.006,5.006,0,0,0,5,5H40.624A11.991,11.991,0,1,0,56,40.105ZM45,5a1,1,0,0,1,2,0v6a1,1,0,0,1-2,0ZM34,5a1,1,0,0,1,2,0v6a1,1,0,0,1-2,0ZM22,5a1,1,0,0,1,2,0v6a1,1,0,0,1-2,0ZM11,5a1,1,0,0,1,2,0v6a1,1,0,0,1-2,0ZM7,9H9v2a3,3,0,0,0,6,0V9h5v2a3,3,0,0,0,6,0V9h6v2a3,3,0,0,0,6,0V9h5v2a3,3,0,0,0,6,0V9h2a3,3,0,0,1,3,3v5H4V12A3,3,0,0,1,7,9ZM7,55a3,3,0,0,1-3-3V19H54V39.395a11.42,11.42,0,0,0-5-.214V34a1,1,0,0,0-1-1H42a1,1,0,0,0-1,1v6a1,1,0,0,0,1,1h2.381A11.933,11.933,0,0,0,39.7,55ZM47,39H43V35h4Zm4,22A10,10,0,1,1,61,51,10.012,10.012,0,0,1,51,61Z" fill="#c5a07a"/>
    <path id="Trazado_1094343" data-name="Trazado 1094343" d="M52,49.277V43H50v6.277a1.91,1.91,0,0,0-.97,2.018l-3.655,2.923,1.25,1.563,3.652-2.921A1.993,1.993,0,0,0,52,49.277Z" fill="#c5a07a"/>
    <path id="Trazado_1094344" data-name="Trazado 1094344" d="M15,22H9a1,1,0,0,0-1,1v6a1,1,0,0,0,1,1h6a1,1,0,0,0,1-1V23A1,1,0,0,0,15,22Zm-1,6H10V24h4Z" fill="#c5a07a"/>
    <path id="Trazado_1094345" data-name="Trazado 1094345" d="M26,22H20a1,1,0,0,0-1,1v6a1,1,0,0,0,1,1h6a1,1,0,0,0,1-1V23A1,1,0,0,0,26,22Zm-1,6H21V24h4Z" fill="#c5a07a"/>
    <path id="Trazado_1094346" data-name="Trazado 1094346" d="M37,22H31a1,1,0,0,0-1,1v6a1,1,0,0,0,1,1h6a1,1,0,0,0,1-1V23A1,1,0,0,0,37,22Zm-1,6H32V24h4Z" fill="#c5a07a"/>
    <path id="Trazado_1094347" data-name="Trazado 1094347" d="M42,30h6a1,1,0,0,0,1-1V23a1,1,0,0,0-1-1H42a1,1,0,0,0-1,1v6A1,1,0,0,0,42,30Zm1-6h4v4H43Z" fill="#c5a07a"/>
    <path id="Trazado_1094348" data-name="Trazado 1094348" d="M15,33H9a1,1,0,0,0-1,1v6a1,1,0,0,0,1,1h6a1,1,0,0,0,1-1V34A1,1,0,0,0,15,33Zm-1,6H10V35h4Z" fill="#c5a07a"/>
    <path id="Trazado_1094349" data-name="Trazado 1094349" d="M26,33H20a1,1,0,0,0-1,1v6a1,1,0,0,0,1,1h6a1,1,0,0,0,1-1V34A1,1,0,0,0,26,33Zm-1,6H21V35h4Z" fill="#c5a07a"/>
    <path id="Trazado_1094350" data-name="Trazado 1094350" d="M37,33H31a1,1,0,0,0-1,1v6a1,1,0,0,0,1,1h6a1,1,0,0,0,1-1V34A1,1,0,0,0,37,33Zm-1,6H32V35h4Z" fill="#c5a07a"/>
    <path id="Trazado_1094351" data-name="Trazado 1094351" d="M15,44H9a1,1,0,0,0-1,1v6a1,1,0,0,0,1,1h6a1,1,0,0,0,1-1V45A1,1,0,0,0,15,44Zm-1,6H10V46h4Z" fill="#c5a07a"/>
    <path id="Trazado_1094352" data-name="Trazado 1094352" d="M26,44H20a1,1,0,0,0-1,1v6a1,1,0,0,0,1,1h6a1,1,0,0,0,1-1V45A1,1,0,0,0,26,44Zm-1,6H21V46h4Z" fill="#c5a07a"/>
    <path id="Trazado_1094353" data-name="Trazado 1094353" d="M37,44H31a1,1,0,0,0-1,1v6a1,1,0,0,0,1,1h6a1,1,0,0,0,1-1V45A1,1,0,0,0,37,44Zm-1,6H32V46h4Z" fill="#c5a07a"/>
  </g>
</svg>
