<svg id="cargar" xmlns="http://www.w3.org/2000/svg" width="84" height="69.999" viewBox="0 0 84 69.999">
  <path id="Trazado_1095746" data-name="Trazado 1095746" d="M98.882,64.429l-40.6-8.4a1.4,1.4,0,0,0-.567,0l-40.6,8.4a1.4,1.4,0,0,0-.658,2.407L21.6,71.51V89.777a5.6,5.6,0,0,0,0,10.845V105a1.4,1.4,0,0,0,2.8,0v-4.377a5.6,5.6,0,0,0,0-10.845V74.056l7,6.364V86.8h.008a13.979,13.979,0,0,0,2.8,19.6H32.8a4.2,4.2,0,0,0-3.127,7,4.19,4.19,0,0,0,0,5.6,4.2,4.2,0,0,0,3.127,7H91.6a1.4,1.4,0,0,0,1.4-1.4V72.784l6.542-5.947a1.4,1.4,0,0,0-.658-2.407ZM25.8,95.2A2.8,2.8,0,1,1,23,92.4,2.8,2.8,0,0,1,25.8,95.2Zm5.6,21a1.4,1.4,0,0,1,1.4-1.4H52.4a1.4,1.4,0,1,1,0,2.8H32.8A1.4,1.4,0,0,1,31.4,116.2Zm2.8-35.37C37.341,79.881,47.729,77,58,77a86,86,0,0,1,21,3.036V84H51v.008a13.97,13.97,0,0,0-16.8,0ZM79,95.2H73.4V92.4H79ZM70.6,112H65v-8.4h5.6ZM65,100.8V92.4h5.6v8.4Zm-8.682-8.4H62.2v2.8H56.6A14.009,14.009,0,0,0,56.317,92.4ZM70.6,86.8v2.8H65V86.8Zm8.4,0v2.8H73.4V86.8Zm-16.8,0v2.8H55.426a14,14,0,0,0-1.635-2.8ZM56.317,98H62.2v2.8H55.426a13.87,13.87,0,0,0,.891-2.8Zm5.882,5.6v2.8H50.989a14.124,14.124,0,0,0,2.81-2.81v.01Zm0,5.6V112H56.358a4.19,4.19,0,0,0,0-2.8Zm0,8.4H56.358a4.19,4.19,0,0,0,0-2.8H62.2Zm-5.841,2.8H62.2v2.8H56.358a4.19,4.19,0,0,0,0-2.8ZM65,114.8h5.6v8.4H65Zm8.4,5.6H79v2.8H73.4Zm0-2.8v-2.8H79v2.8Zm0-5.6v-2.8H79V112Zm0-5.6v-2.8H79v2.8Zm0-5.6V98H79v2.8Zm8.4-5.6h8.4V98H81.8Zm0-2.8V77.277a8.414,8.414,0,0,0,8.4,0V92.4ZM86,75.6c-2.277,0-4.2-1.282-4.2-2.8S83.722,70,86,70s4.2,1.282,4.2,2.8S88.275,75.6,86,75.6Zm-7,1.542A88,88,0,0,0,58,74.2a90.649,90.649,0,0,0-23.8,3.7V73.829C37.343,72.88,47.731,70,58,70a86,86,0,0,1,21,3.036ZM31.4,95.2a11.2,11.2,0,1,1,11.2,11.2A11.2,11.2,0,0,1,31.4,95.2Zm1.4,14H52.4a1.4,1.4,0,1,1,0,2.8H32.8a1.4,1.4,0,1,1,0-2.8Zm0,14a1.4,1.4,0,0,1,0-2.8H52.4a1.4,1.4,0,1,1,0,2.8Zm49,0V100.8h8.4v22.4Zm10.2-53.287A7.5,7.5,0,0,0,86,67.2a7.328,7.328,0,0,0-6.28,3.13A88.866,88.866,0,0,0,58,67.2c-12.681,0-25.119,4.1-25.642,4.272A1.4,1.4,0,0,0,31.4,72.8v3.835L20.376,66.614,58,58.83l37.623,7.784Z" transform="translate(-15.999 -56)" fill="#2ebde1"/>
  <path id="Trazado_1095747" data-name="Trazado 1095747" d="M137.8,239h-1.4v-2.8h2.8a1.4,1.4,0,1,0,0-2.8h-2.8a1.4,1.4,0,1,0-2.8,0h-1.4a4.2,4.2,0,1,0,0,8.4h1.4v2.8h-2.8a1.4,1.4,0,0,0,0,2.8h2.8a1.4,1.4,0,0,0,2.8,0h1.4a4.2,4.2,0,1,0,0-8.4Zm-5.6,0a1.4,1.4,0,0,1,0-2.8h1.4V239Zm5.6,5.6h-1.4v-2.8h1.4a1.4,1.4,0,1,1,0,2.8Z" transform="translate(-108.4 -201.2)" fill="#2ebde1"/>
</svg>
