<svg xmlns="http://www.w3.org/2000/svg" width="124" height="124" viewBox="0 0 124 124">
  <g id="Grupo_1193371" data-name="Grupo 1193371" transform="translate(7179.034 9911.141)">
    <g id="Grupo_1193365" data-name="Grupo 1193365" transform="translate(203.825 -286.687)">
      <g id="Grupo_1190972" data-name="Grupo 1190972" transform="translate(-7776.207 -17585.906)">
        <g id="Grupo_1190808" data-name="Grupo 1190808" transform="translate(-708.875 4775)">
          <circle id="Elipse_11474" data-name="Elipse 11474" cx="62" cy="62" r="62" transform="translate(1102.223 3186.452)" fill="#b8dcf3"/>
        </g>
      </g>
    </g>
    <g id="registrarse" transform="translate(-7153.727 -9880.885)">
      <path id="Trazado_1095758" data-name="Trazado 1095758" d="M78.43,44.569H76.8a4.205,4.205,0,0,0,.569-2.116,14.579,14.579,0,0,0-1.531-6.487l-.7-1.393a1.058,1.058,0,0,0-.473-.473l-2.441-1.221a3.626,3.626,0,0,0,2.643-5.2l-.675-1.35v-.807a7.414,7.414,0,0,0-7.438-7.408H66.6a7.217,7.217,0,0,0-7.217,7.222v.994l-.675,1.35a3.626,3.626,0,0,0,3.206,5.247L59.9,34.139a1.058,1.058,0,0,0-.493.7l-.938,4.688L52.7,41.449a1.058,1.058,0,0,0-.724,1v2.116h-.62L45.628,38.84V32.567a5.256,5.256,0,0,0-1.55-3.741l-2.213-2.213a4.206,4.206,0,0,0,.588-2.148v-4.97a3.495,3.495,0,0,0-5.433-2.908l-2.56,1.707a1.058,1.058,0,0,0-.471.88v5.291a4.206,4.206,0,0,0,.588,2.148L31.83,29.359a5.316,5.316,0,0,0-1.278,2.068L27.694,40a1.058,1.058,0,0,0-.017.613l3.174,11.639a1.058,1.058,0,0,0,1.021.78h1.359l-.3,11.545-1.06,6.891V59.383a1.058,1.058,0,0,0-1.058-1.058H27.639V53.034a1.058,1.058,0,0,0-1.058-1.058H21.291a1.058,1.058,0,0,0-1.058,1.058v5.291H17.058A1.058,1.058,0,0,0,16,59.383v16.93a1.058,1.058,0,0,0,1.058,1.058h2.116v1.058a1.058,1.058,0,0,0,2.116,0V77.371h5.291v1.058a1.058,1.058,0,0,0,2.116,0V77.371h2.116a1.061,1.061,0,0,0,.152-.012l-.14.909a1.058,1.058,0,0,0,1.046,1.219h3.174a1.058,1.058,0,0,0,.985-.672l3.574-9.12,2.9,9.056a1.058,1.058,0,0,0,1.008.736H78.43a1.058,1.058,0,0,0,1.058-1.058v-32.8a1.058,1.058,0,0,0-1.058-1.058ZM22.349,54.092h3.174v4.233H22.349Zm7.407,21.163H18.116V60.441h2.116v2.116h2.116V60.441h3.174v2.116h2.116V60.441h2.116ZM73.948,36.913a12.453,12.453,0,0,1,1.308,5.541,2.119,2.119,0,0,1-2.116,2.116H69.965V42.221l3.431-.858-.513-2.053-1.86.465V34.642l2.386,1.193ZM68.907,28.7a2.116,2.116,0,0,1-4.233,0V25.961L65.732,24.9,67.1,26.271a1.058,1.058,0,0,0,.748.31h1.058ZM66.025,32.93H67.6l1.308.654V40.3l-4.233,1.058V33.741Zm-.293,10.349,2.116-.529v1.819H65.732ZM60.442,29.3a1.517,1.517,0,0,1,.159-.675l.787-1.574a1.058,1.058,0,0,0,.112-.474V25.336a5.1,5.1,0,0,1,5.1-5.1h.159a5.3,5.3,0,0,1,3.77,1.551,5.245,5.245,0,0,1,1.552,3.74v1.057a1.058,1.058,0,0,0,.112.473l.787,1.573a1.51,1.51,0,0,1-1.351,2.186H70.453a4.205,4.205,0,0,0,.569-2.116V25.523a1.058,1.058,0,0,0-1.058-1.058H68.287L66.48,22.658a1.058,1.058,0,0,0-1.5,0l-2.116,2.116a1.058,1.058,0,0,0-.31.748V28.7a4.205,4.205,0,0,0,.569,2.116H61.952A1.512,1.512,0,0,1,60.442,29.3Zm-.724,12.037a1.058,1.058,0,0,0,.7-.8l.966-4.832,1.171-.7v9.559H58.325V41.8Zm-5.625,1.875,2.116-.705v2.059H54.093Zm-2.736,3.47H77.372V49.86H45.842l-.166-2.5,2.654,1.327a1.058,1.058,0,0,0,1.221-.2Zm-1.935-1.058-.829.829-2.965-1.483v-3.14ZM36.1,24.465V22.349h4.233v2.116a2.116,2.116,0,1,1-4.233,0Zm0-4.724,2.089-1.393a1.379,1.379,0,0,1,2.143,1.147v.738H36.1ZM32.56,32.1a3.19,3.19,0,0,1,.767-1.241l2.746-2.746a4.219,4.219,0,0,0,4.3,0l2.213,2.213a3.154,3.154,0,0,1,.93,2.245V45.627H36.1V41.645l3.063-6.125-1.893-.946-1.706,3.412-4.474-1.491ZM29.8,40.367l.622-1.867,4.188,1.4L34.1,40.922a1.058,1.058,0,0,0-.112.473v9.523H32.68Zm4.522,37H33.105l1.929-12.537a1.049,1.049,0,0,0,.012-.133l.222-8.561L38.584,66.5Zm10.245,0h-.286L36.1,51.811V47.744H43.58l1.975,29.628Zm3.106,0-1.693-25.4H77.372v25.4Z" transform="translate(-16 -16)" fill="#20849e"/>
      <rect id="Rectángulo_460963" data-name="Rectángulo 460963" width="2" height="2" transform="translate(45.437 56)" fill="#20849e"/>
      <rect id="Rectángulo_460964" data-name="Rectángulo 460964" width="9" height="2" transform="translate(49.437 56)" fill="#20849e"/>
      <rect id="Rectángulo_460965" data-name="Rectángulo 460965" width="7" height="2" transform="translate(51.437 52)" fill="#20849e"/>
    </g>
  </g>
</svg>
