<svg xmlns="http://www.w3.org/2000/svg" width="124" height="124" viewBox="0 0 124 124">
  <g id="Grupo_1193372" data-name="Grupo 1193372" transform="translate(7337.238 9922.142)">
    <g id="Grupo_1193364" data-name="Grupo 1193364" transform="translate(45.62 -297.687)">
      <g id="Grupo_1190972" data-name="Grupo 1190972" transform="translate(-7776.207 -17585.906)">
        <g id="Grupo_1190808" data-name="Grupo 1190808" transform="translate(-708.875 4775)">
          <circle id="Elipse_11474" data-name="Elipse 11474" cx="62" cy="62" r="62" transform="translate(1102.223 3186.452)" fill="#b8dcf3"/>
        </g>
      </g>
    </g>
    <g id="folleto_1_" data-name="folleto (1)" transform="translate(-7306.982 -9891.885)">
      <g id="Grupo_1193296" data-name="Grupo 1193296">
        <g id="Grupo_1193295" data-name="Grupo 1193295">
          <path id="Trazado_1095748" data-name="Trazado 1095748" d="M62.43,0H24.337a1.058,1.058,0,0,0-1.058,1.058V5.846a9.468,9.468,0,0,0-11.692,4.735H1.058A1.058,1.058,0,0,0,0,11.639V62.43a1.058,1.058,0,0,0,1.058,1.058H39.151a1.058,1.058,0,0,0,1.058-1.058V52.907H62.43a1.058,1.058,0,0,0,1.058-1.058V1.058A1.058,1.058,0,0,0,62.43,0ZM25.4,3.114,35.85,10.581H28.622A9.577,9.577,0,0,0,25.4,6.9ZM13.708,11.1a7.4,7.4,0,1,1,10.1,10.123,1.058,1.058,0,0,0-.529.915v2.2H21.163V18.426l2.864-2.864-1.5-1.5L20.1,16.492l-2.426-2.426-1.5,1.5,2.864,2.864v5.911H16.93v-2.2a1.058,1.058,0,0,0-.529-.915A7.407,7.407,0,0,1,13.708,11.1Zm8.428,26.994L20.1,40.632l-2.032-2.54ZM16.93,35.976V30.686h2.116v5.291Zm4.233,0V30.686h2.116v5.291ZM16.93,28.57V26.453h6.349V28.57Zm21.163,32.8H2.116V12.7h8.711a9.46,9.46,0,0,0,3.987,10.026V37.035a1.058,1.058,0,0,0,.232.661l4.233,5.291a1.058,1.058,0,0,0,1.653,0L25.163,37.7a1.058,1.058,0,0,0,.232-.661V22.723A9.46,9.46,0,0,0,29.382,12.7h8.711ZM61.372,50.79H40.209V11.639a1.038,1.038,0,0,0-.454-.847l.011-.015L27.638,2.116H61.372Z" fill="#20849e"/>
        </g>
      </g>
      <g id="Grupo_1193298" data-name="Grupo 1193298" transform="translate(43.383 5.291)">
        <g id="Grupo_1193297" data-name="Grupo 1193297">
          <path id="Trazado_1095749" data-name="Trazado 1095749" d="M341.756,40h-12.7A1.058,1.058,0,0,0,328,41.058v6.349a1.058,1.058,0,0,0,1.058,1.058h12.7a1.058,1.058,0,0,0,1.058-1.058V41.058A1.058,1.058,0,0,0,341.756,40ZM340.7,46.349H330.116V42.116H340.7Z" transform="translate(-328 -40)" fill="#20849e"/>
        </g>
      </g>
      <g id="Grupo_1193300" data-name="Grupo 1193300" transform="translate(43.383 15.872)">
        <g id="Grupo_1193299" data-name="Grupo 1193299">
          <rect id="Rectángulo_460939" data-name="Rectángulo 460939" width="2" height="2" transform="translate(-0.326 0.128)" fill="#20849e"/>
        </g>
      </g>
      <g id="Grupo_1193302" data-name="Grupo 1193302" transform="translate(47.616 15.872)">
        <g id="Grupo_1193301" data-name="Grupo 1193301">
          <rect id="Rectángulo_460940" data-name="Rectángulo 460940" width="10" height="2" transform="translate(0.441 0.128)" fill="#20849e"/>
        </g>
      </g>
      <g id="Grupo_1193304" data-name="Grupo 1193304" transform="translate(43.383 20.104)">
        <g id="Grupo_1193303" data-name="Grupo 1193303">
          <rect id="Rectángulo_460941" data-name="Rectángulo 460941" width="15" height="2" transform="translate(-0.326 -0.104)" fill="#20849e"/>
        </g>
      </g>
      <g id="Grupo_1193306" data-name="Grupo 1193306" transform="translate(43.383 24.337)">
        <g id="Grupo_1193305" data-name="Grupo 1193305">
          <rect id="Rectángulo_460942" data-name="Rectángulo 460942" width="15" height="2" transform="translate(-0.326 -0.337)" fill="#20849e"/>
        </g>
      </g>
      <g id="Grupo_1193308" data-name="Grupo 1193308" transform="translate(43.383 30.686)">
        <g id="Grupo_1193307" data-name="Grupo 1193307">
          <path id="Trazado_1095750" data-name="Trazado 1095750" d="M341.756,232h-12.7A1.058,1.058,0,0,0,328,233.058v6.349a1.058,1.058,0,0,0,1.058,1.058h12.7a1.058,1.058,0,0,0,1.058-1.058v-6.349A1.058,1.058,0,0,0,341.756,232Zm-1.058,6.349H330.116v-4.233H340.7Z" transform="translate(-328 -232)" fill="#20849e"/>
        </g>
      </g>
      <g id="Grupo_1193310" data-name="Grupo 1193310" transform="translate(43.383 41.267)">
        <g id="Grupo_1193309" data-name="Grupo 1193309">
          <rect id="Rectángulo_460943" data-name="Rectángulo 460943" width="2" height="2" transform="translate(-0.326 -0.268)" fill="#20849e"/>
        </g>
      </g>
      <g id="Grupo_1193312" data-name="Grupo 1193312" transform="translate(47.616 41.267)">
        <g id="Grupo_1193311" data-name="Grupo 1193311">
          <rect id="Rectángulo_460944" data-name="Rectángulo 460944" width="10" height="2" transform="translate(0.441 -0.268)" fill="#20849e"/>
        </g>
      </g>
      <g id="Grupo_1193314" data-name="Grupo 1193314" transform="translate(43.383 45.5)">
        <g id="Grupo_1193313" data-name="Grupo 1193313">
          <rect id="Rectángulo_460945" data-name="Rectángulo 460945" width="15" height="2" transform="translate(-0.326 0.5)" fill="#20849e"/>
        </g>
      </g>
      <g id="Grupo_1193316" data-name="Grupo 1193316" transform="translate(5.291 47.616)">
        <g id="Grupo_1193315" data-name="Grupo 1193315">
          <path id="Trazado_1095751" data-name="Trazado 1095751" d="M49.523,360H41.058A1.058,1.058,0,0,0,40,361.058v8.465a1.058,1.058,0,0,0,1.058,1.058h8.465a1.058,1.058,0,0,0,1.058-1.058v-8.465A1.058,1.058,0,0,0,49.523,360Zm-1.058,8.465H42.116v-6.349h6.349Z" transform="translate(-40 -360)" fill="#20849e"/>
        </g>
      </g>
      <g id="Grupo_1193318" data-name="Grupo 1193318" transform="translate(17.988 47.616)">
        <g id="Grupo_1193317" data-name="Grupo 1193317">
          <rect id="Rectángulo_460946" data-name="Rectángulo 460946" width="2" height="2" transform="translate(0.069 0.384)" fill="#20849e"/>
        </g>
      </g>
      <g id="Grupo_1193320" data-name="Grupo 1193320" transform="translate(22.221 47.616)">
        <g id="Grupo_1193319" data-name="Grupo 1193319">
          <rect id="Rectángulo_460947" data-name="Rectángulo 460947" width="13" height="2" transform="translate(-0.163 0.384)" fill="#20849e"/>
        </g>
      </g>
      <g id="Grupo_1193322" data-name="Grupo 1193322" transform="translate(17.988 51.848)">
        <g id="Grupo_1193321" data-name="Grupo 1193321">
          <rect id="Rectángulo_460948" data-name="Rectángulo 460948" width="17" height="2" transform="translate(0.069 0.151)" fill="#20849e"/>
        </g>
      </g>
      <g id="Grupo_1193324" data-name="Grupo 1193324" transform="translate(17.988 56.081)">
        <g id="Grupo_1193323" data-name="Grupo 1193323">
          <rect id="Rectángulo_460949" data-name="Rectángulo 460949" width="17" height="2" transform="translate(0.069 -0.081)" fill="#20849e"/>
        </g>
      </g>
    </g>
  </g>
</svg>
