<svg xmlns="http://www.w3.org/2000/svg" width="124" height="124" viewBox="0 0 124 124">
  <g id="Grupo_1193374" data-name="Grupo 1193374" transform="translate(7152.054 9742.886)">
    <g id="Grupo_1193368" data-name="Grupo 1193368" transform="translate(230.805 -118.431)">
      <g id="Grupo_1190972" data-name="Grupo 1190972" transform="translate(-7776.207 -17585.906)">
        <g id="Grupo_1190808" data-name="Grupo 1190808" transform="translate(-708.875 4775)">
          <circle id="Elipse_11474" data-name="Elipse 11474" cx="62" cy="62" r="62" transform="translate(1102.223 3186.452)" fill="#b8dcf3"/>
        </g>
      </g>
    </g>
    <g id="Layer_x0020_1" transform="translate(-7279.034 -9712.34)">
      <path id="Trazado_1095773" data-name="Trazado 1095773" d="M172.919,52.571a.991.991,0,0,1,0,1.981h-9.907a.99.99,0,0,1-1.012-.97V4.89A4.93,4.93,0,0,1,166.932,0h48.44a4.894,4.894,0,0,1,4.89,4.89V53.583a.954.954,0,0,1-1.054.97h-9.823a.97.97,0,1,1,0-1.939h8.938V4.89a2.951,2.951,0,0,0-2.951-2.909h-48.44a2.924,2.924,0,0,0-2.951,2.909V52.571Z" fill="#20849e"/>
      <path id="Trazado_1095774" data-name="Trazado 1095774" d="M404.757,1146.7a.97.97,0,1,1,0,1.939h-6.745a.99.99,0,0,1-1.012-.97v-9.654a1.026,1.026,0,0,1,1.012-1.012h36.467a.99.99,0,0,1,.97,1.012v9.654a.954.954,0,0,1-.97.97h-6.787a.97.97,0,0,1,0-1.939h5.776v-7.715H398.981v7.715Z" transform="translate(-225.093 -1089.066)" fill="#20849e"/>
      <path id="Trazado_1095775" data-name="Trazado 1095775" d="M580.934,1253.449a.992.992,0,0,1,1.981,0v17.2a1.026,1.026,0,0,1-1.012,1.012H558.97a.99.99,0,0,1-.97-1.012v-17.2a.992.992,0,0,1,1.981,0v16.231h20.953Z" transform="translate(-379.305 -1199.697)" fill="#20849e"/>
      <path id="Trazado_1095776" data-name="Trazado 1095776" d="M491.73,1253.981a.991.991,0,0,1,0-1.981h28.625a.991.991,0,0,1,0,1.981Z" transform="translate(-314.891 -1199.218)" fill="#20849e"/>
      <path id="Trazado_1095777" data-name="Trazado 1095777" d="M529.981,579.427h2.445v-2.445h-2.445Zm3.415,1.981h-4.384A1.026,1.026,0,0,1,528,580.4v-4.384A1.026,1.026,0,0,1,529.012,575H533.4a1.026,1.026,0,0,1,1.012,1.012V580.4A1.026,1.026,0,0,1,533.4,581.408Z" transform="translate(-350.57 -550.759)" fill="#20849e"/>
      <path id="Trazado_1095778" data-name="Trazado 1095778" d="M779.939,579.427h2.445v-2.445h-2.445Zm3.457,1.981H778.97A.99.99,0,0,1,778,580.4v-4.384a.99.99,0,0,1,.97-1.012H783.4a1.019,1.019,0,0,1,.97,1.012V580.4A1.018,1.018,0,0,1,783.4,581.408Z" transform="translate(-590.031 -550.759)" fill="#20849e"/>
      <path id="Trazado_1095779" data-name="Trazado 1095779" d="M1028.981,579.427h2.445v-2.445h-2.445Zm3.415,1.981h-4.427a1.019,1.019,0,0,1-.97-1.012v-4.384a1.019,1.019,0,0,1,.97-1.012h4.427a.99.99,0,0,1,.97,1.012V580.4A.99.99,0,0,1,1032.4,581.408Z" transform="translate(-828.533 -550.759)" fill="#20849e"/>
      <path id="Trazado_1095780" data-name="Trazado 1095780" d="M529.981,767.427h2.445v-2.445h-2.445Zm3.415,1.939h-4.384A.99.99,0,0,1,528,768.4V763.97a1.019,1.019,0,0,1,1.012-.97H533.4a1.019,1.019,0,0,1,1.012.97V768.4A.99.99,0,0,1,533.4,769.366Z" transform="translate(-350.57 -730.833)" fill="#20849e"/>
      <path id="Trazado_1095781" data-name="Trazado 1095781" d="M779.939,767.427h2.445v-2.445h-2.445Zm3.457,1.939H778.97a.954.954,0,0,1-.97-.97V763.97a.981.981,0,0,1,.97-.97H783.4a1.01,1.01,0,0,1,.97.97V768.4A.981.981,0,0,1,783.4,769.366Z" transform="translate(-590.031 -730.833)" fill="#20849e"/>
      <path id="Trazado_1095782" data-name="Trazado 1095782" d="M1028.981,767.427h2.445v-2.445h-2.445Zm3.415,1.939h-4.427a.981.981,0,0,1-.97-.97V763.97a1.01,1.01,0,0,1,.97-.97h4.427a.981.981,0,0,1,.97.97V768.4A.954.954,0,0,1,1032.4,769.366Z" transform="translate(-828.533 -730.833)" fill="#20849e"/>
      <path id="Trazado_1095783" data-name="Trazado 1095783" d="M529.981,955.385h2.445v-2.4h-2.445Zm3.415,1.981h-4.384A.99.99,0,0,1,528,956.4V951.97a.99.99,0,0,1,1.012-.97H533.4a.99.99,0,0,1,1.012.97V956.4A.99.99,0,0,1,533.4,957.366Z" transform="translate(-350.57 -910.908)" fill="#20849e"/>
      <path id="Trazado_1095784" data-name="Trazado 1095784" d="M779.939,955.385h2.445v-2.4h-2.445Zm3.457,1.981H778.97a.954.954,0,0,1-.97-.97V951.97a.954.954,0,0,1,.97-.97H783.4a.981.981,0,0,1,.97.97V956.4A.981.981,0,0,1,783.4,957.366Z" transform="translate(-590.031 -910.908)" fill="#20849e"/>
      <path id="Trazado_1095785" data-name="Trazado 1095785" d="M1028.981,955.385h2.445v-2.4h-2.445Zm3.415,1.981h-4.427a.981.981,0,0,1-.97-.97V951.97a.981.981,0,0,1,.97-.97h4.427a.954.954,0,0,1,.97.97V956.4A.954.954,0,0,1,1032.4,957.366Z" transform="translate(-828.533 -910.908)" fill="#20849e"/>
      <path id="Trazado_1095786" data-name="Trazado 1095786" d="M271.939,98.062h45.278V83.981H271.939Zm46.29,1.981H270.97a.99.99,0,0,1-.97-1.012V82.97a.981.981,0,0,1,.97-.97h47.259a.981.981,0,0,1,.97.97V99.032A.99.99,0,0,1,318.229,100.044Z" transform="translate(-103.447 -78.543)" fill="#20849e"/>
      <path id="Trazado_1095787" data-name="Trazado 1095787" d="M381.939,99.511a.97.97,0,1,1-1.939,0V83.449a.97.97,0,0,1,1.939,0Z" transform="translate(-208.81 -79.022)" fill="#20849e"/>
      <path id="Trazado_1095788" data-name="Trazado 1095788" d="M1281.981,99.511a.991.991,0,0,1-1.981,0V83.449a.992.992,0,0,1,1.981,0Z" transform="translate(-1070.867 -79.022)" fill="#20849e"/>
      <path id="Trazado_1095789" data-name="Trazado 1095789" d="M486.939,169.54a.97.97,0,1,1-1.939,0v-9.57a.954.954,0,0,1,.97-.97h7.125a.97.97,0,1,1,0,1.939h-6.155Z" transform="translate(-309.383 -152.297)" fill="#20849e"/>
      <path id="Trazado_1095790" data-name="Trazado 1095790" d="M485.73,273.981a.991.991,0,0,1,0-1.981h5.481a.992.992,0,0,1,0,1.981Z" transform="translate(-309.143 -260.533)" fill="#20849e"/>
      <path id="Trazado_1095791" data-name="Trazado 1095791" d="M753.137,168.57a.991.991,0,0,1,0,1.981h-7.125A1.026,1.026,0,0,1,745,169.54v-9.57a.99.99,0,0,1,1.012-.97h7.125a.97.97,0,1,1,0,1.939h-6.155v7.631Z" transform="translate(-558.422 -152.297)" fill="#20849e"/>
      <path id="Trazado_1095792" data-name="Trazado 1095792" d="M746.73,273.981a.991.991,0,0,1,0-1.981h5.481a.992.992,0,0,1,0,1.981Z" transform="translate(-559.14 -260.533)" fill="#20849e"/>
      <path id="Trazado_1095793" data-name="Trazado 1095793" d="M1014.137,168.57a.991.991,0,0,1,0,1.981h-7.125A1.026,1.026,0,0,1,1006,169.54v-9.57a.99.99,0,0,1,1.012-.97h7.125a.97.97,0,1,1,0,1.939h-6.155v7.631Z" transform="translate(-808.419 -152.297)" fill="#20849e"/>
      <path id="Trazado_1095794" data-name="Trazado 1095794" d="M1007.73,273.981a.991.991,0,0,1,0-1.981h5.438a.991.991,0,0,1,0,1.981Z" transform="translate(-809.137 -260.533)" fill="#20849e"/>
      <path id="Trazado_1095795" data-name="Trazado 1095795" d="M779.586,1362.5a.97.97,0,1,1,1.939,0,1.138,1.138,0,1,0,1.138-1.138,3.112,3.112,0,1,1,3.12-3.12.991.991,0,0,1-1.981,0,1.138,1.138,0,1,0-1.138,1.138,3.1,3.1,0,1,1-3.078,3.12Z" transform="translate(-591.533 -1297.995)" fill="#20849e"/>
      <path id="Trazado_1095796" data-name="Trazado 1095796" d="M831.3,1313.867a.992.992,0,0,1-1.981,0c0-1.265-.3-2.867.97-2.867C831.6,1311,831.3,1312.6,831.3,1313.867Z" transform="translate(-639.16 -1255.731)" fill="#20849e"/>
      <path id="Trazado_1095797" data-name="Trazado 1095797" d="M831.3,1559.825a.991.991,0,0,1-1.981,0c0-1.223-.3-2.825.97-2.825C831.6,1557,831.3,1558.6,831.3,1559.825Z" transform="translate(-639.16 -1491.36)" fill="#20849e"/>
    </g>
  </g>
</svg>
