<svg xmlns="http://www.w3.org/2000/svg" xmlns:xlink="http://www.w3.org/1999/xlink" width="88.348" height="88.348" viewBox="0 0 88.348 88.348">
  <defs>
    <filter id="Elipse_13737" x="0" y="0" width="88.348" height="88.348" filterUnits="userSpaceOnUse">
      <feOffset dy="3" input="SourceAlpha"/>
      <feGaussianBlur stdDeviation="3" result="blur"/>
      <feFlood flood-opacity="0.161"/>
      <feComposite operator="in" in2="blur"/>
      <feComposite in="SourceGraphic"/>
    </filter>
  </defs>
  <g id="Grupo_1193412" data-name="Grupo 1193412" transform="translate(4357.05 10458.935)">
    <g id="Grupo_1193409" data-name="Grupo 1193409" transform="translate(-4348.05 -10452.935)">
      <g transform="matrix(1, 0, 0, 1, -9, -6)" filter="url(#Elipse_13737)">
        <circle id="Elipse_13737-2" data-name="Elipse 13737" cx="35.174" cy="35.174" r="35.174" transform="translate(9 6)" fill="#fff"/>
      </g>
    </g>
    <g id="peticion-en-linea_1_" data-name="peticion-en-linea (1)" transform="translate(-4333.622 -10435.188)">
      <path id="Trazado_1095855" data-name="Trazado 1095855" d="M45.573,9.869a4.008,4.008,0,0,0-4-4H6a4.007,4.007,0,0,0-4,4V31.21H2v1.9a4.007,4.007,0,0,0,4,4h14.3l-3.243,5.617a.726.726,0,0,0,.629,1.089H29.878a.726.726,0,0,0,.629-1.089l-3.243-5.617H41.57a4.007,4.007,0,0,0,4-4v-1.9h0V9.869ZM6,7.319H41.57a2.553,2.553,0,0,1,2.55,2.55V30.487H19.681v-.7a5.918,5.918,0,0,1,.509-2.408,7.3,7.3,0,0,0,.641-3.012V17.8c0-.015,0-.03,0-.046V15.7a2.075,2.075,0,0,0-2.073-2.073,2.049,2.049,0,0,0-.841.182,2.034,2.034,0,0,0-2.556-1.032,2.069,2.069,0,0,0-3.89-.272,2.067,2.067,0,0,0-.8-.16,2.326,2.326,0,0,0-.381.032,2.085,2.085,0,0,0-1.687,2.042v1.792H7.984a2.372,2.372,0,0,0-2.369,2.369V22.1a6.908,6.908,0,0,0,1.316,4.064l.274.354a3.159,3.159,0,0,1,.256.34A5.493,5.493,0,0,1,8.448,30v.489h-5V9.869A2.553,2.553,0,0,1,6,7.318ZM9.9,30.486V30a6.914,6.914,0,0,0-1.233-3.949A4.139,4.139,0,0,0,8.33,25.6l-.232-.3a5.445,5.445,0,0,1-1.03-3.2V18.574a.917.917,0,0,1,.916-.916h2.948a.559.559,0,0,1,.329.11c.015.015.035.023.051.037a.772.772,0,0,1,.069.072.8.8,0,0,0,.043.071.571.571,0,0,1,.1.314.747.747,0,0,1-.045.23h0a.608.608,0,0,1-.542.364h-2a.727.727,0,0,0-.485,1.267c1.285,1.153,3.322,3.444,3.322,4.682a.726.726,0,1,0,1.452,0c0-1.472-1.416-3.293-2.529-4.5h.242a2.014,2.014,0,0,0,1.264-.453,2.032,2.032,0,0,0,2.527-.135,2.039,2.039,0,0,0,2.917-.229,1.985,1.985,0,0,0,1.737.231v4.64a5.855,5.855,0,0,1-.513,2.416,7.375,7.375,0,0,0-.637,3v.7H9.9Zm5.552-12.332V14.692a.619.619,0,0,1,1.237.023v3.444a.619.619,0,0,1-1.238.013c0-.006,0-.012,0-.018ZM14,14.669c0,.015,0,.03,0,.046v3.444s0,.008,0,.012a.635.635,0,0,1-.625.611.61.61,0,0,1-.43-.189,1.851,1.851,0,0,0-.189-1.2V13.329a.623.623,0,0,1,1.247,0V14.67Zm-2.7,1.57a2.074,2.074,0,0,0-.369-.033h-.867V14.414a.624.624,0,0,1,.492-.612.653.653,0,0,1,.744.612Zm8.082,1.491c0,.008,0,.015,0,.023v.024a.619.619,0,0,1-1.237-.023V15.7a.621.621,0,0,1,1.241,0ZM28.62,42.371H18.952l3.033-5.254h3.6Zm12.95-6.707H6a2.553,2.553,0,0,1-2.55-2.55V31.939H44.121v1.175A2.553,2.553,0,0,1,41.57,35.664Z" transform="translate(-2.001 -5.866)" fill="#c5a07a"/>
      <path id="Trazado_1095856" data-name="Trazado 1095856" d="M40.863,23.355H51A.726.726,0,0,0,51,21.9H40.863a.726.726,0,1,0,0,1.452Z" transform="translate(-12.442 -10.257)" fill="#c5a07a"/>
      <path id="Trazado_1095857" data-name="Trazado 1095857" d="M33.274,27.355H48.923a.726.726,0,0,0,0-1.452H33.274a.726.726,0,0,0,0,1.452Z" transform="translate(-10.364 -11.352)" fill="#c5a07a"/>
      <path id="Trazado_1095858" data-name="Trazado 1095858" d="M33.274,31.355H48.923a.726.726,0,0,0,0-1.452H33.274a.726.726,0,0,0,0,1.452Z" transform="translate(-10.364 -12.447)" fill="#c5a07a"/>
    </g>
  </g>
</svg>
