<svg xmlns="http://www.w3.org/2000/svg" width="56" height="62.002" viewBox="0 0 56 62.002">
  <g id="ax" transform="translate(-4 -1)">
    <g id="Grupo_1192656" data-name="Grupo 1192656">
      <path id="Trazado_1094584" data-name="Trazado 1094584" d="M9,63H19a1,1,0,0,0,0-2H9a3,3,0,0,1-3-3V6A3,3,0,0,1,9,3h3.219l.811,3.243A1,1,0,0,0,14,7H28a1,1,0,0,0,.97-.757L29.781,3H33a3,3,0,0,1,3,3V35a1,1,0,0,0,2,0V6a5.006,5.006,0,0,0-5-5H9A5.006,5.006,0,0,0,4,6V58A5.006,5.006,0,0,0,9,63ZM27.219,5H14.781l-.5-2H27.719Z" fill="#b3c867"/>
      <path id="Trazado_1094585" data-name="Trazado 1094585" d="M30,32h1a3,3,0,0,0,3-3V12a3,3,0,0,0-3-3H11a3,3,0,0,0-3,3V29a3,3,0,0,0,3,3H22v6.15l-1.106-1.382a5.9,5.9,0,0,0-3.445-2.1l-.716-.143a3.711,3.711,0,0,0-3.416,6.2l3.888,4.679a4.663,4.663,0,0,1,1.032,2.327l.5,3.538a6.724,6.724,0,0,0,1.888,3.776A4.644,4.644,0,0,1,22,58.353V62a1,1,0,0,0,2,0V58.353a6.631,6.631,0,0,0-1.955-4.72,4.713,4.713,0,0,1-1.323-2.645l-.5-3.538a6.666,6.666,0,0,0-1.474-3.322l-3.95-4.747a1.713,1.713,0,0,1,1.547-2.892l.716.143a3.907,3.907,0,0,1,2.276,1.385L22,41.351V45a1,1,0,0,0,2,0V26a2,2,0,0,1,4,0V39a1,1,0,0,0,.929,1l9.578.684A3.774,3.774,0,0,1,42,44.433V51.66a4.7,4.7,0,0,1-.494,2.091l-.8,1.6A6.712,6.712,0,0,0,40,58.34V62a1,1,0,0,0,2,0V58.34a4.7,4.7,0,0,1,.494-2.091l.8-1.6A6.712,6.712,0,0,0,44,51.66V44.433a5.782,5.782,0,0,0-5.351-5.747L30,38.068V32ZM26,22H15.09a5.992,5.992,0,0,1,11.838.12A3.946,3.946,0,0,0,26,22ZM11,30a1,1,0,0,1-1-1V12a1,1,0,0,1,1-1H31a1,1,0,0,1,1,1V29a1,1,0,0,1-1,1H30V26a3.966,3.966,0,0,0-1-2.618V23a8.008,8.008,0,0,0-7-7.931V14a1,1,0,0,0-2,0v1.069a8.007,8.007,0,0,0-6.962,7.188A1.994,1.994,0,0,0,12,24v2a2,2,0,0,0,2,2h8v2H11Zm11-4H14V24h8.556A3.949,3.949,0,0,0,22,26Z" fill="#b3c867"/>
      <path id="Trazado_1094586" data-name="Trazado 1094586" d="M50,39A10,10,0,1,0,40,29,10.011,10.011,0,0,0,50,39Zm0-18a8,8,0,1,1-8,8A8.009,8.009,0,0,1,50,21Z" fill="#b3c867"/>
      <path id="Trazado_1094587" data-name="Trazado 1094587" d="M48,34a1,1,0,0,0,.707-.293l7-7a1,1,0,0,0-1.414-1.414L48,31.586l-2.293-2.293a1,1,0,1,0-1.414,1.414l3,3A1,1,0,0,0,48,34Z" fill="#b3c867"/>
    </g>
  </g>
</svg>
