<svg xmlns="http://www.w3.org/2000/svg" xmlns:xlink="http://www.w3.org/1999/xlink" width="88.348" height="88.348" viewBox="0 0 88.348 88.348">
  <defs>
    <filter id="Elipse_13737" x="0" y="0" width="88.348" height="88.348" filterUnits="userSpaceOnUse">
      <feOffset dy="3" input="SourceAlpha"/>
      <feGaussianBlur stdDeviation="3" result="blur"/>
      <feFlood flood-opacity="0.161"/>
      <feComposite operator="in" in2="blur"/>
      <feComposite in="SourceGraphic"/>
    </filter>
  </defs>
  <g id="Grupo_1193411" data-name="Grupo 1193411" transform="translate(4256.979 10377.935)">
    <g id="Grupo_1193410" data-name="Grupo 1193410" transform="translate(-4247.979 -10371.935)">
      <g transform="matrix(1, 0, 0, 1, -9, -6)" filter="url(#Elipse_13737)">
        <circle id="Elipse_13737-2" data-name="Elipse 13737" cx="35.174" cy="35.174" r="35.174" transform="translate(9 6)" fill="#fff"/>
      </g>
    </g>
    <g id="peticion-en-linea" transform="translate(-4229.302 -10357.641)">
      <path id="Trazado_1095859" data-name="Trazado 1095859" d="M35.8,41.183V30.132h4.265a2.946,2.946,0,0,0,2.944-2.94V12.979a2.946,2.946,0,0,0-2.944-2.94H35.8V4.911A2.915,2.915,0,0,0,32.885,2H7.615A2.915,2.915,0,0,0,4.7,4.911V41.182a2.915,2.915,0,0,0,2.912,2.912H32.886A2.915,2.915,0,0,0,35.8,41.182Zm5.806-28.2V27.191a1.541,1.541,0,0,1-1.541,1.537H23.08a.7.7,0,0,0-.5.2L21.1,30.417V29.43a.7.7,0,0,0-.7-.7H17.729a1.541,1.541,0,0,1-1.541-1.537V12.979a1.541,1.541,0,0,1,1.541-1.537H40.061A1.541,1.541,0,0,1,41.6,12.979ZM25.4,3.4,24.52,5.594H15.977L15.093,3.4H25.4ZM7.614,3.4h5.967l1.273,3.155A.7.7,0,0,0,15.505,7h9.489a.7.7,0,0,0,.651-.438L26.919,3.4h5.966a1.51,1.51,0,0,1,1.508,1.508V10.04H17.729a2.946,2.946,0,0,0-2.944,2.94V27.193a2.946,2.946,0,0,0,2.944,2.94H19.7v1.978a.7.7,0,0,0,1.2.5l2.479-2.474H34.394v6.3H6.105V4.911A1.51,1.51,0,0,1,7.614,3.4ZM6.105,41.183V37.835H34.393v3.349a1.51,1.51,0,0,1-1.508,1.508H7.615a1.51,1.51,0,0,1-1.508-1.508Z" transform="translate(-4.703 -1.999)" fill="#c5a07a"/>
      <path id="Trazado_1095860" data-name="Trazado 1095860" d="M32.686,23.053H31.9l.3-.4a.7.7,0,0,0-1.129-.833l-.913,1.238h-1.88l1.381-1.873a.7.7,0,1,0-1.129-.833l-2,2.706H24.252a.7.7,0,0,0,0,1.4H25.5l-.716.971H22.972a.7.7,0,1,0,0,1.4h.781l-.3.4a.7.7,0,0,0,1.13.833l.913-1.238h1.88L25.995,28.7a.7.7,0,1,0,1.13.832l2-2.706h2.286a.7.7,0,0,0,0-1.4H30.154l.716-.971h1.816a.7.7,0,1,0,0-1.4ZM28.41,25.427h-1.88l.716-.971h1.88Z" transform="translate(-9.945 -7.389)" fill="#c5a07a"/>
      <path id="Trazado_1095861" data-name="Trazado 1095861" d="M44.523,23.052H42.237a.7.7,0,1,0,0,1.4h1.252l-.716.971H40.957a.7.7,0,0,0,0,1.4h.781l-.3.4a.7.7,0,0,0,1.13.833l.913-1.238h1.88L43.98,28.7a.7.7,0,1,0,1.13.832l2-2.706h2.286a.7.7,0,0,0,0-1.4H48.139l.716-.971h1.816a.7.7,0,0,0,0-1.4h-.781l.3-.4a.7.7,0,0,0-1.129-.833l-.913,1.238h-1.88l1.381-1.873a.7.7,0,1,0-1.129-.833l-2,2.706Zm2.588,1.4-.716.971h-1.88l.716-.971Z" transform="translate(-15.312 -7.389)" fill="#c5a07a"/>
    </g>
  </g>
</svg>
