<svg xmlns="http://www.w3.org/2000/svg" xmlns:xlink="http://www.w3.org/1999/xlink" width="88.348" height="88.348" viewBox="0 0 88.348 88.348">
  <defs>
    <filter id="Elipse_13737" x="0" y="0" width="88.348" height="88.348" filterUnits="userSpaceOnUse">
      <feOffset dy="3" input="SourceAlpha"/>
      <feGaussianBlur stdDeviation="3" result="blur"/>
      <feFlood flood-opacity="0.161"/>
      <feComposite operator="in" in2="blur"/>
      <feComposite in="SourceGraphic"/>
    </filter>
  </defs>
  <g id="Grupo_1193413" data-name="Grupo 1193413" transform="translate(4304.05 10577.761)">
    <g id="Grupo_1193408" data-name="Grupo 1193408" transform="translate(-4295.05 -10571.761)">
      <g transform="matrix(1, 0, 0, 1, -9, -6)" filter="url(#Elipse_13737)">
        <circle id="Elipse_13737-2" data-name="Elipse 13737" cx="35.174" cy="35.174" r="35.174" transform="translate(9 6)" fill="#fff"/>
      </g>
    </g>
    <g id="comentario-negativo" transform="translate(-4282.289 -10559.139)">
      <g id="Grupo_1193407" data-name="Grupo 1193407" transform="translate(0 0)">
        <path id="Trazado_1095846" data-name="Trazado 1095846" d="M47.289,14.855a13.854,13.854,0,1,0-26.916,4.618H3.694A3.7,3.7,0,0,0,0,23.168V40.716a3.7,3.7,0,0,0,3.694,3.694H17.643l3.1,3.394a.924.924,0,0,0,1.363,0l3.1-3.394h7.3a3.7,3.7,0,0,0,3.694-3.694V28.431A13.878,13.878,0,0,0,47.289,14.855ZM34.358,40.716a1.849,1.849,0,0,1-1.847,1.847H24.806a.924.924,0,0,0-.682.3l-2.7,2.949-2.7-2.949a.924.924,0,0,0-.682-.3H3.694a1.849,1.849,0,0,1-1.847-1.847V23.168A1.849,1.849,0,0,1,3.694,21.32h17.49a13.858,13.858,0,0,0,13.174,7.357Zm-.924-13.854A12.007,12.007,0,1,1,45.442,14.855,12.021,12.021,0,0,1,33.435,26.862Z" transform="translate(0 -1.001)" fill="#c5a07a"/>
        <path id="Trazado_1095847" data-name="Trazado 1095847" d="M312.271,186.261a.924.924,0,0,0,1.306,1.306,4.306,4.306,0,0,1,6.083,0,.924.924,0,0,0,1.306-1.306A6.155,6.155,0,0,0,312.271,186.261Z" transform="translate(-283.183 -167.518)" fill="#c5a07a"/>
        <path id="Trazado_1095848" data-name="Trazado 1095848" d="M285.069,91.271a.924.924,0,0,0-1.306,0,1.846,1.846,0,0,1-2.612,0,.924.924,0,0,0-1.306,1.306,3.692,3.692,0,0,0,5.225,0A.924.924,0,0,0,285.069,91.271Z" transform="translate(-253.752 -82.688)" fill="#c5a07a"/>
        <path id="Trazado_1095849" data-name="Trazado 1095849" d="M386.188,91.271a1.846,1.846,0,0,1-2.612,0,.924.924,0,0,0-1.306,1.306,3.692,3.692,0,0,0,5.225,0,.924.924,0,0,0-1.306-1.306Z" transform="translate(-346.717 -82.688)" fill="#c5a07a"/>
        <path id="Trazado_1095850" data-name="Trazado 1095850" d="M67.893,401H40.924a.924.924,0,1,0,0,1.847h26.97a.924.924,0,1,0,0-1.847Z" transform="translate(-36.306 -364.056)" fill="#c5a07a"/>
        <path id="Trazado_1095851" data-name="Trazado 1095851" d="M67.893,351H40.924a.924.924,0,0,0,0,1.847h26.97a.924.924,0,1,0,0-1.847Z" transform="translate(-36.306 -318.674)" fill="#c5a07a"/>
        <path id="Trazado_1095852" data-name="Trazado 1095852" d="M40.924,302.848H59.581a.924.924,0,1,0,0-1.847H40.924a.924.924,0,0,0,0,1.847Z" transform="translate(-36.306 -273.293)" fill="#c5a07a"/>
        <path id="Trazado_1095853" data-name="Trazado 1095853" d="M.924,90.237H16.81a.924.924,0,0,0,.924-.924V81.925A.924.924,0,0,0,16.81,81H.924A.924.924,0,0,0,0,81.925v7.389A.924.924,0,0,0,.924,90.237Zm.924-7.389H15.886V88.39H1.847Z" transform="translate(0 -73.612)" fill="#c5a07a"/>
        <path id="Trazado_1095854" data-name="Trazado 1095854" d="M49.421,121h-8.5a.924.924,0,1,0,0,1.847h8.5a.924.924,0,1,0,0-1.847Z" transform="translate(-36.306 -109.918)" fill="#c5a07a"/>
      </g>
    </g>
  </g>
</svg>
