<svg xmlns="http://www.w3.org/2000/svg" width="124" height="124" viewBox="0 0 124 124">
  <g id="Grupo_1193570" data-name="Grupo 1193570" transform="translate(4005.399 6420.323)">
    <g id="Grupo_1193563" data-name="Grupo 1193563" transform="translate(3377.46 3204.131)">
      <g id="Grupo_1190972" data-name="Grupo 1190972" transform="translate(-7776.207 -17585.906)">
        <g id="Grupo_1190808" data-name="Grupo 1190808" transform="translate(-708.875 4775)">
          <circle id="Elipse_11474" data-name="Elipse 11474" cx="62" cy="62" r="62" transform="translate(1102.223 3186.452)" fill="#b8dcf3"/>
        </g>
      </g>
    </g>
    <g id="_x35_0_Quality_Control" transform="translate(-3970.786 -6394)">
      <g id="Grupo_1193561" data-name="Grupo 1193561" transform="translate(0 0)">
        <g id="Grupo_1193560" data-name="Grupo 1193560">
          <path id="Trazado_1096341" data-name="Trazado 1096341" d="M102.79,45.985a5.548,5.548,0,0,1,1.167-.328,7.839,7.839,0,0,0,6.483-8.88,5.642,5.642,0,0,1,1.575-4.85,7.854,7.854,0,0,0-.027-11.018A5.631,5.631,0,0,1,110.44,16.1a7.851,7.851,0,0,0-6.492-8.9,5.615,5.615,0,0,1-4.07-2.961A7.842,7.842,0,0,0,89.39.838a5.612,5.612,0,0,1-5.046,0,7.844,7.844,0,0,0-10.481,3.4A5.623,5.623,0,0,1,69.77,7.2,7.854,7.854,0,0,0,63.3,16.133a5.626,5.626,0,0,1-1.575,4.8,7.859,7.859,0,0,0,.026,11.029,5.627,5.627,0,0,1,1.546,4.8,7.845,7.845,0,0,0,6.482,8.9,5.542,5.542,0,0,1,1.165.327l-10.1,16.868A1.115,1.115,0,0,0,62.106,64.5l8.169-2.319,1.81,8.3a1.114,1.114,0,0,0,2.045.335L85.655,51.571a5.636,5.636,0,0,1,2.43,0L99.611,70.811a1.115,1.115,0,0,0,2.045-.335l1.81-8.3,8.169,2.319a1.115,1.115,0,0,0,1.261-1.645ZM73.663,67.251,72.2,60.545a1.115,1.115,0,0,0-1.394-.835l-6.6,1.874,8.611-14.375a5.555,5.555,0,0,1,1.049,1.415,7.839,7.839,0,0,0,8.511,4.085Zm9.679-17.208A5.6,5.6,0,0,1,75.848,47.6a7.852,7.852,0,0,0-5.709-4.15,5.613,5.613,0,0,1-4.63-6.387,7.877,7.877,0,0,0-2.2-6.708,5.616,5.616,0,0,1,.025-7.883A7.867,7.867,0,0,0,65.5,15.766,5.615,5.615,0,0,1,70.152,9.4a7.853,7.853,0,0,0,5.695-4.143,5.607,5.607,0,0,1,7.5-2.431,7.855,7.855,0,0,0,7.057,0,5.6,5.6,0,0,1,7.491,2.435A7.862,7.862,0,0,0,103.61,9.4a5.618,5.618,0,0,1,4.621,6.392,7.866,7.866,0,0,0,2.193,6.7,5.62,5.62,0,0,1-.028,7.893,7.906,7.906,0,0,0-2.162,6.7,5.609,5.609,0,0,1-4.633,6.363A7.849,7.849,0,0,0,97.891,47.6a5.6,5.6,0,0,1-7.5,2.436,7.855,7.855,0,0,0-7.053,0Zm19.592,9.667a1.115,1.115,0,0,0-1.394.835l-1.463,6.706L91.363,52.705a7.773,7.773,0,0,0,8.512-4.082,5.553,5.553,0,0,1,1.049-1.415l8.611,14.375Z" transform="translate(-59.484 0)" fill="#20849e"/>
          <path id="Trazado_1096342" data-name="Trazado 1096342" d="M171.064,88.3a16.41,16.41,0,1,0-16.41,16.422A16.429,16.429,0,0,0,171.064,88.3Zm-16.41,14.192A14.186,14.186,0,1,1,168.834,88.3,14.2,14.2,0,0,1,154.654,102.493Z" transform="translate(-127.268 -61.872)" fill="#20849e"/>
          <path id="Trazado_1096343" data-name="Trazado 1096343" d="M219.721,152.217l-7.516,7.516-1.959-1.959a1.115,1.115,0,0,0-1.577,1.577l2.747,2.748a1.115,1.115,0,0,0,1.577,0l8.3-8.3a1.115,1.115,0,1,0-1.576-1.577Z" transform="translate(-187.597 -130.723)" fill="#20849e"/>
        </g>
      </g>
    </g>
  </g>
</svg>
