<svg xmlns="http://www.w3.org/2000/svg" width="124" height="124" viewBox="0 0 124 124">
  <g id="Grupo_1193569" data-name="Grupo 1193569" transform="translate(3916.012 6420.323)">
    <g id="Grupo_1193564" data-name="Grupo 1193564" transform="translate(3466.847 3204.131)">
      <g id="Grupo_1190972" data-name="Grupo 1190972" transform="translate(-7776.207 -17585.906)">
        <g id="Grupo_1190808" data-name="Grupo 1190808" transform="translate(-708.875 4775)">
          <circle id="Elipse_11474" data-name="Elipse 11474" cx="62" cy="62" r="62" transform="translate(1102.223 3186.452)" fill="#b8dcf3"/>
        </g>
      </g>
    </g>
    <g id="camisa" transform="translate(-3884.986 -6394)">
      <path id="Trazado_1096307" data-name="Trazado 1096307" d="M193.32,226.23a1.115,1.115,0,0,1-.013-2.23h.013a1.115,1.115,0,1,1,0,2.23Zm0,0" transform="translate(-165.414 -192.783)" fill="#20849e"/>
      <path id="Trazado_1096308" data-name="Trazado 1096308" d="M193.32,298.23a1.115,1.115,0,0,1-.013-2.23h.013a1.115,1.115,0,0,1,0,2.23Zm0,0" transform="translate(-165.414 -254.749)" fill="#20849e"/>
      <path id="Trazado_1096309" data-name="Trazado 1096309" d="M193.32,370.23a1.115,1.115,0,0,1-.013-2.23h.013a1.115,1.115,0,0,1,0,2.23Zm0,0" transform="translate(-165.414 -316.715)" fill="#20849e"/>
      <path id="Trazado_1096310" data-name="Trazado 1096310" d="M204.361,159.754a1.105,1.105,0,0,1-.49-.115l-11.243-5.529a1.115,1.115,0,1,1,.984-2l11.243,5.529a1.115,1.115,0,0,1-.494,2.116Zm0,0" transform="translate(-165.247 -130.813)" fill="#20849e"/>
      <path id="Trazado_1096311" data-name="Trazado 1096311" d="M273.784,90.908A1.118,1.118,0,0,1,272.74,89.4c.044-.114,4.3-11.551,4.3-16.286a1.115,1.115,0,0,1,2.23,0c0,5.136-4.254,16.583-4.436,17.068a1.116,1.116,0,0,1-1.045.725Zm0,0" transform="translate(-234.669 -61.966)" fill="#20849e"/>
      <path id="Trazado_1096312" data-name="Trazado 1096312" d="M112.449,159.755a1.115,1.115,0,0,1-.493-2.116l11.243-5.529a1.115,1.115,0,0,1,.984,2l-11.243,5.529A1.115,1.115,0,0,1,112.449,159.755Zm0,0" transform="translate(-95.818 -130.814)" fill="#20849e"/>
      <path id="Trazado_1096313" data-name="Trazado 1096313" d="M85.481,90.907a1.119,1.119,0,0,1-1.045-.725C84.254,89.7,80,78.251,80,73.115a1.115,1.115,0,0,1,2.23,0c0,4.735,4.252,16.173,4.3,16.287a1.114,1.114,0,0,1-1.045,1.505Zm0,0" transform="translate(-68.851 -61.966)" fill="#20849e"/>
      <path id="Trazado_1096314" data-name="Trazado 1096314" d="M1.115,77.579A1.115,1.115,0,0,1,.8,75.4l11.149-3.345a1.115,1.115,0,0,1,.64,2.136L1.435,77.532a1.148,1.148,0,0,1-.32.047Zm0,0" transform="translate(0 -61.971)" fill="#20849e"/>
      <path id="Trazado_1096315" data-name="Trazado 1096315" d="M1.115,142.826A1.114,1.114,0,0,1,0,141.711v-44.6a1.115,1.115,0,0,1,2.23,0v44.6A1.114,1.114,0,0,1,1.115,142.826Zm0,0" transform="translate(0 -82.621)" fill="#20849e"/>
      <path id="Trazado_1096316" data-name="Trazado 1096316" d="M3.345,420.46A3.349,3.349,0,0,1,0,417.115a1.115,1.115,0,0,1,2.23,0,1.116,1.116,0,0,0,1.115,1.115,1.115,1.115,0,1,1,0,2.23Zm0,0" transform="translate(0 -358.025)" fill="#20849e"/>
      <path id="Trazado_1096317" data-name="Trazado 1096317" d="M316.264,77.571a1.143,1.143,0,0,1-.32-.047L304.8,74.179a1.115,1.115,0,1,1,.64-2.136l11.149,3.345a1.115,1.115,0,0,1-.32,2.183Zm0,0" transform="translate(-261.634 -61.962)" fill="#20849e"/>
      <path id="Trazado_1096318" data-name="Trazado 1096318" d="M385.115,136.136A1.114,1.114,0,0,1,384,135.021V97.115a1.115,1.115,0,0,1,2.23,0v37.906A1.114,1.114,0,0,1,385.115,136.136Zm0,0" transform="translate(-330.485 -82.621)" fill="#20849e"/>
      <path id="Trazado_1096319" data-name="Trazado 1096319" d="M59.481,434.23H17.115a1.115,1.115,0,1,1,0-2.23H59.481a1.115,1.115,0,0,1,0,2.23Zm0,0" transform="translate(-13.77 -371.796)" fill="#20849e"/>
      <path id="Trazado_1096320" data-name="Trazado 1096320" d="M193.115,85.375a1.115,1.115,0,0,1-.32-2.183c10.6-3.18,14.918-10.56,14.961-10.634a1.115,1.115,0,1,1,1.935,1.106c-.191.334-4.812,8.23-16.256,11.664a1.148,1.148,0,0,1-.32.047Zm0,0" transform="translate(-165.242 -61.962)" fill="#20849e"/>
      <path id="Trazado_1096321" data-name="Trazado 1096321" d="M96.725,85.379a1.144,1.144,0,0,1-.32-.047C84.961,81.9,80.34,74,80.149,73.668a1.115,1.115,0,0,1,1.934-1.108c.042.075,4.412,7.471,14.962,10.636a1.115,1.115,0,0,1-.32,2.183Zm0,0" transform="translate(-68.853 -61.966)" fill="#20849e"/>
      <path id="Trazado_1096322" data-name="Trazado 1096322" d="M81.115,12.264A1.115,1.115,0,0,1,80,11.149,11.162,11.162,0,0,1,91.149,0a1.115,1.115,0,1,1,0,2.23,8.93,8.93,0,0,0-8.919,8.919A1.115,1.115,0,0,1,81.115,12.264Zm0,0" transform="translate(-68.851)" fill="#20849e"/>
      <path id="Trazado_1096323" data-name="Trazado 1096323" d="M243.149,12.264a1.115,1.115,0,0,1-1.115-1.115,8.929,8.929,0,0,0-8.919-8.919,1.115,1.115,0,1,1,0-2.23,11.161,11.161,0,0,1,11.149,11.149A1.115,1.115,0,0,1,243.149,12.264Zm0,0" transform="translate(-199.668)" fill="#20849e"/>
      <path id="Trazado_1096324" data-name="Trazado 1096324" d="M164.264,2.23H153.115a1.115,1.115,0,1,1,0-2.23h11.149a1.115,1.115,0,1,1,0,2.23Zm0,0" transform="translate(-130.817)" fill="#20849e"/>
      <path id="Trazado_1096325" data-name="Trazado 1096325" d="M85.64,40.751a1.143,1.143,0,0,1-.39-.07,1.115,1.115,0,0,1-.655-1.435A11.2,11.2,0,0,1,95.043,32a1.115,1.115,0,0,1,0,2.23,8.957,8.957,0,0,0-8.358,5.8,1.112,1.112,0,0,1-1.045.726Zm0,0" transform="translate(-72.745 -27.54)" fill="#20849e"/>
      <path id="Trazado_1096326" data-name="Trazado 1096326" d="M242.52,40.755a1.117,1.117,0,0,1-1.045-.726,8.957,8.957,0,0,0-8.361-5.8,1.115,1.115,0,1,1,0-2.23,11.2,11.2,0,0,1,10.449,7.25,1.114,1.114,0,0,1-.654,1.434A1.088,1.088,0,0,1,242.52,40.755Zm0,0" transform="translate(-199.668 -27.54)" fill="#20849e"/>
      <path id="Trazado_1096327" data-name="Trazado 1096327" d="M164.264,34.23H153.115a1.115,1.115,0,1,1,0-2.23h11.149a1.115,1.115,0,1,1,0,2.23Zm0,0" transform="translate(-130.817 -27.54)" fill="#20849e"/>
      <path id="Trazado_1096328" data-name="Trazado 1096328" d="M169.115,37.574A1.115,1.115,0,0,1,168,36.46V33.115a1.115,1.115,0,1,1,2.23,0V36.46A1.115,1.115,0,0,1,169.115,37.574Zm0,0" transform="translate(-144.587 -27.54)" fill="#20849e"/>
      <path id="Trazado_1096329" data-name="Trazado 1096329" d="M175.8,58.23h-6.689a1.115,1.115,0,1,1,0-2.23H175.8a1.115,1.115,0,0,1,0,2.23Zm0,0" transform="translate(-144.587 -48.196)" fill="#20849e"/>
      <path id="Trazado_1096330" data-name="Trazado 1096330" d="M217.115,37.574A1.115,1.115,0,0,1,216,36.46V33.115a1.115,1.115,0,1,1,2.23,0V36.46A1.115,1.115,0,0,1,217.115,37.574Zm0,0" transform="translate(-185.898 -27.54)" fill="#20849e"/>
      <path id="Trazado_1096331" data-name="Trazado 1096331" d="M217.451,203.408a1.114,1.114,0,0,1-1.115-1.115V164.916a1.115,1.115,0,0,1,2.23,0v37.377A1.114,1.114,0,0,1,217.451,203.408Zm0,0" transform="translate(-186.187 -140.973)" fill="#20849e"/>
      <path id="Trazado_1096332" data-name="Trazado 1096332" d="M169.115,203.408A1.114,1.114,0,0,1,168,202.293V164.916a1.115,1.115,0,1,1,2.23,0v37.377A1.114,1.114,0,0,1,169.115,203.408Zm0,0" transform="translate(-144.587 -140.973)" fill="#20849e"/>
      <path id="Trazado_1096333" data-name="Trazado 1096333" d="M11.149,306.23H1.115a1.115,1.115,0,1,1,0-2.23H11.149a1.115,1.115,0,1,1,0,2.23Zm0,0" transform="translate(0 -261.634)" fill="#20849e"/>
      <path id="Trazado_1096334" data-name="Trazado 1096334" d="M11.149,330.23H1.115a1.115,1.115,0,1,1,0-2.23H11.149a1.115,1.115,0,1,1,0,2.23Zm0,0" transform="translate(0 -282.289)" fill="#20849e"/>
      <path id="Trazado_1096335" data-name="Trazado 1096335" d="M73.115,324.068A1.114,1.114,0,0,1,72,322.953V305.115a1.115,1.115,0,0,1,2.23,0v17.838A1.114,1.114,0,0,1,73.115,324.068Zm0,0" transform="translate(-61.966 -261.634)" fill="#20849e"/>
      <path id="Trazado_1096336" data-name="Trazado 1096336" d="M330.034,388.068a10.034,10.034,0,1,1,10.034-10.034A10.045,10.045,0,0,1,330.034,388.068Zm0-17.838a7.8,7.8,0,1,0,7.8,7.8A7.814,7.814,0,0,0,330.034,370.23Zm0,0" transform="translate(-275.404 -316.715)" fill="#20849e"/>
      <path id="Trazado_1096337" data-name="Trazado 1096337" d="M363.345,444.457a1.114,1.114,0,0,1-.788-.327l-2.23-2.23a1.115,1.115,0,0,1,1.577-1.577l2.23,2.23a1.115,1.115,0,0,1-.788,1.9Zm0,0" transform="translate(-309.829 -378.678)" fill="#20849e"/>
      <path id="Trazado_1096338" data-name="Trazado 1096338" d="M377.115,423.8a1.115,1.115,0,0,1-.788-1.9l5.575-5.574a1.115,1.115,0,0,1,1.577,1.577l-5.574,5.574A1.112,1.112,0,0,1,377.115,423.8Zm0,0" transform="translate(-323.6 -358.023)" fill="#20849e"/>
    </g>
  </g>
</svg>
