<svg xmlns="http://www.w3.org/2000/svg" width="124" height="124" viewBox="0 0 124 124">
  <g id="Grupo_1193571" data-name="Grupo 1193571" transform="translate(4122.002 6418.234)">
    <g id="Grupo_1193562" data-name="Grupo 1193562" transform="translate(3260.857 3206.22)">
      <g id="Grupo_1190972" data-name="Grupo 1190972" transform="translate(-7776.207 -17585.906)">
        <g id="Grupo_1190808" data-name="Grupo 1190808" transform="translate(-708.875 4775)">
          <circle id="Elipse_11474" data-name="Elipse 11474" cx="62" cy="62" r="62" transform="translate(1102.223 3186.452)" fill="#b8dcf3"/>
        </g>
      </g>
    </g>
    <g id="organizar" transform="translate(-4089.938 -6394)">
      <path id="Trazado_1096372" data-name="Trazado 1096372" d="M292,207.394A1.394,1.394,0,1,0,293.394,206,1.394,1.394,0,0,0,292,207.394Z" transform="translate(-251.306 -177.291)" fill="#20849e"/>
      <path id="Trazado_1096373" data-name="Trazado 1096373" d="M4.181,71.353H50.449a4.186,4.186,0,0,0,4.181-4.181V12.543a4.186,4.186,0,0,0-4.181-4.181H43.481V6.968a1.394,1.394,0,0,0-1.394-1.394H35.2a8.365,8.365,0,0,0-15.771,0H12.543a1.394,1.394,0,0,0-1.394,1.394V8.362H4.181A4.186,4.186,0,0,0,0,12.543v54.63A4.186,4.186,0,0,0,4.181,71.353ZM13.936,8.362h6.55a1.394,1.394,0,0,0,1.366-1.117,5.576,5.576,0,0,1,10.926,0,1.394,1.394,0,0,0,1.366,1.117h6.55v2.787H13.936ZM2.787,12.543a1.4,1.4,0,0,1,1.394-1.394h6.968v1.394a1.394,1.394,0,0,0,1.394,1.394H42.087a1.394,1.394,0,0,0,1.394-1.394V11.149h6.968a1.4,1.4,0,0,1,1.394,1.394v54.63a1.4,1.4,0,0,1-1.394,1.394H4.181a1.4,1.4,0,0,1-1.394-1.394Z" fill="#20849e"/>
      <path id="Trazado_1096374" data-name="Trazado 1096374" d="M63.195,173.954a1.394,1.394,0,0,0,1.971,0l5.575-5.574a1.394,1.394,0,1,0-1.971-1.971L64.18,171l-1.8-1.8a1.394,1.394,0,0,0-1.971,1.971Z" transform="translate(-51.638 -142.866)" fill="#20849e"/>
      <path id="Trazado_1096375" data-name="Trazado 1096375" d="M63.195,273.954a1.394,1.394,0,0,0,1.971,0l5.575-5.574a1.394,1.394,0,1,0-1.971-1.971L64.18,271l-1.8-1.8a1.394,1.394,0,0,0-1.971,1.971Z" transform="translate(-51.638 -228.93)" fill="#20849e"/>
      <path id="Trazado_1096376" data-name="Trazado 1096376" d="M64.181,366a4.181,4.181,0,1,0,4.181,4.181A4.186,4.186,0,0,0,64.181,366Zm0,5.575a1.394,1.394,0,1,1,1.394-1.394A1.4,1.4,0,0,1,64.181,371.575Z" transform="translate(-51.638 -314.994)" fill="#20849e"/>
      <path id="Trazado_1096377" data-name="Trazado 1096377" d="M187.394,168.787h17.56a1.394,1.394,0,0,0,0-2.787h-17.56a1.394,1.394,0,1,0,0,2.787Z" transform="translate(-160.079 -142.866)" fill="#20849e"/>
      <path id="Trazado_1096378" data-name="Trazado 1096378" d="M187.394,208.787h9.2a1.394,1.394,0,0,0,0-2.787h-9.2a1.394,1.394,0,1,0,0,2.787Z" transform="translate(-160.079 -177.291)" fill="#20849e"/>
      <path id="Trazado_1096379" data-name="Trazado 1096379" d="M187.394,268.787h17.56a1.394,1.394,0,1,0,0-2.787h-17.56a1.394,1.394,0,0,0,0,2.787Z" transform="translate(-160.079 -228.93)" fill="#20849e"/>
      <path id="Trazado_1096380" data-name="Trazado 1096380" d="M187.394,308.787h11.985a1.394,1.394,0,1,0,0-2.787H187.394a1.394,1.394,0,1,0,0,2.787Z" transform="translate(-160.079 -263.355)" fill="#20849e"/>
      <path id="Trazado_1096381" data-name="Trazado 1096381" d="M187.394,368.787h17.56a1.394,1.394,0,0,0,0-2.787h-17.56a1.394,1.394,0,0,0,0,2.787Z" transform="translate(-160.079 -314.994)" fill="#20849e"/>
      <path id="Trazado_1096382" data-name="Trazado 1096382" d="M187.394,408.787h11.985a1.394,1.394,0,1,0,0-2.787H187.394a1.394,1.394,0,0,0,0,2.787Z" transform="translate(-160.079 -349.419)" fill="#20849e"/>
      <path id="Trazado_1096383" data-name="Trazado 1096383" d="M441.627,68.229,438.879,60.9a1.393,1.393,0,0,0-1.3-.9h0a1.394,1.394,0,0,0-1.3.9l-2.75,7.332A23.941,23.941,0,0,0,432,76.62v42.19a4.186,4.186,0,0,0,4.181,4.181h2.787a4.186,4.186,0,0,0,4.181-4.181V76.62A23.957,23.957,0,0,0,441.627,68.229Zm-6.84,8.392a21.165,21.165,0,0,1,.173-2.684h5.229a21.1,21.1,0,0,1,.173,2.684v34.386h-5.575V76.62Zm2.787-11.258,1.445,3.849c.237.635.443,1.282.619,1.937h-4.126c.176-.655.382-1.3.618-1.936Zm1.394,54.842h-2.787a1.4,1.4,0,0,1-1.394-1.394v-5.017h5.574v5.017A1.4,1.4,0,0,1,438.968,120.2Z" transform="translate(-371.795 -51.638)" fill="#20849e"/>
    </g>
  </g>
</svg>
