<svg id="cama-matrimonial" xmlns="http://www.w3.org/2000/svg" width="62.375" height="57.605" viewBox="0 0 62.375 57.605">
  <path id="Trazado_1096306" data-name="Trazado 1096306" d="M58.4,47.83V28.225a8.658,8.658,0,0,0-8.648-8.648H12.379a8.658,8.658,0,0,0-8.648,8.648V48.083A13.394,13.394,0,0,0,0,57.368V72.233a4.949,4.949,0,1,0,9.9,0V70.7h42.58v1.535a4.949,4.949,0,1,0,9.9,0V57.368A13.4,13.4,0,0,0,58.4,47.83ZM12.379,22.014H49.748a6.219,6.219,0,0,1,6.212,6.212V45.913a13.393,13.393,0,0,0-2.373-1.156V40.706a6.521,6.521,0,0,0-6.513-6.513H36.483a6.508,6.508,0,0,0-5.3,2.727,6.508,6.508,0,0,0-5.3-2.727H15.3a6.521,6.521,0,0,0-6.513,6.513v4.051A13.4,13.4,0,0,0,6.167,46.07V28.225a6.219,6.219,0,0,1,6.212-6.212Zm1.062,21.913a13.478,13.478,0,0,0-2.216.184v-3.4A4.081,4.081,0,0,1,15.3,36.629h10.59a4.081,4.081,0,0,1,4.077,4.077v3.221H13.441Zm18.964-3.221a4.081,4.081,0,0,1,4.077-4.077h10.59a4.081,4.081,0,0,1,4.077,4.077v3.4a13.479,13.479,0,0,0-2.216-.184H32.406ZM13.441,46.363H48.934a11.017,11.017,0,0,1,11,11v3.614H47.72a1.218,1.218,0,1,0,0,2.437H59.939v4.843H2.437V63.418h33.1a1.218,1.218,0,1,0,0-2.437H2.437V57.368a11.017,11.017,0,0,1,11-11ZM7.461,72.233a2.512,2.512,0,1,1-5.025,0V70.7H7.461Zm49.965,2.512a2.515,2.515,0,0,1-2.512-2.512V70.7h5.025v1.535A2.515,2.515,0,0,1,57.426,74.746Z" transform="translate(0 -19.577)" fill="#2ebde1"/>
  <ellipse id="Elipse_13832" data-name="Elipse 13832" cx="1.219" cy="1.219" rx="1.219" ry="1.219" transform="translate(40.409 41.404)" fill="#2ebde1"/>
</svg>
