<svg xmlns="http://www.w3.org/2000/svg" width="124" height="124" viewBox="0 0 124 124">
  <g id="Grupo_1193763" data-name="Grupo 1193763" transform="translate(-1659 9783.417)">
    <g id="Grupo_1193758" data-name="Grupo 1193758" transform="translate(9041.859 -158.963)">
      <g id="Grupo_1190972" data-name="Grupo 1190972" transform="translate(-7776.207 -17585.906)">
        <g id="Grupo_1190808" data-name="Grupo 1190808" transform="translate(-708.875 4775)">
          <circle id="Elipse_11474" data-name="Elipse 11474" cx="62" cy="62" r="62" transform="translate(1102.223 3186.452)" fill="#b8dcf3"/>
        </g>
      </g>
    </g>
    <g id="Online_Booking" transform="translate(1689.054 -9745.598)">
      <g id="XMLID_6846_" transform="translate(0 0)">
        <g id="XMLID_6869_" transform="translate(14.725 12.266)">
          <path id="XMLID_6870_" d="M121.472,167.865a.75.75,0,0,1-.532-.22l-2.181-2.18a.752.752,0,0,1,1.063-1.063l1.649,1.649,4.92-4.92a.752.752,0,1,1,1.063,1.063L122,167.645A.749.749,0,0,1,121.472,167.865Z" transform="translate(-118.54 -160.91)" fill="#20849e"/>
        </g>
        <g id="XMLID_6867_" transform="translate(3.758)">
          <path id="XMLID_6868_" d="M86.624,102.078a.752.752,0,0,1-.752-.752V64.5H32.5v36.823a.752.752,0,1,1-1.5,0V63.742A.733.733,0,0,1,31.739,63H86.611a.755.755,0,0,1,.764.742v37.584A.752.752,0,0,1,86.624,102.078Z" transform="translate(-31 -63)" fill="#20849e"/>
        </g>
        <g id="XMLID_6863_" transform="translate(0 37.462)">
          <path id="XMLID_6864_" d="M58.7,372.925H7.191A6.2,6.2,0,0,1,1,366.734v-3.956a.752.752,0,0,1,.752-.752H26.306a.752.752,0,0,1,.752.752v1.128H38.709v-1.128a.752.752,0,0,1,.752-.752h24.68a.752.752,0,0,1,.752.752v3.956A6.2,6.2,0,0,1,58.7,372.925Zm-56.2-9.4v3.2a4.693,4.693,0,0,0,4.688,4.688H58.7a4.693,4.693,0,0,0,4.688-4.688v-3.2H40.212v1.128a.752.752,0,0,1-.752.752H26.306a.752.752,0,0,1-.752-.752v-1.128Z" transform="translate(-1 -362.026)" fill="#20849e"/>
        </g>
        <g id="XMLID_6859_" transform="translate(9.158 5.845)">
          <path id="XMLID_6860_" d="M84.234,129.93A10.135,10.135,0,1,1,94.37,119.794,10.147,10.147,0,0,1,84.234,129.93Zm0-18.768a8.632,8.632,0,1,0,8.632,8.632A8.642,8.642,0,0,0,84.234,111.162Z" transform="translate(-74.099 -109.659)" fill="#20849e"/>
        </g>
        <g id="XMLID_6857_" transform="translate(9.759 30.819)">
          <path id="XMLID_6858_" d="M122.5,310.5H79.65a.752.752,0,1,1,0-1.5H122.5a.752.752,0,1,1,0,1.5Z" transform="translate(-78.898 -309)" fill="#20849e"/>
        </g>
        <g id="XMLID_6853_" transform="translate(33.825 5.891)">
          <path id="XMLID_6854_" d="M290.544,118.294H271.752a.752.752,0,0,1-.752-.752v-6.765a.752.752,0,0,1,.752-.752h18.792a.752.752,0,0,1,.752.752v6.765A.752.752,0,0,1,290.544,118.294Zm-18.04-1.5h17.289v-5.262H272.5Z" transform="translate(-271 -110.026)" fill="#20849e"/>
        </g>
        <g id="XMLID_6851_" transform="translate(33.825 26.187)">
          <path id="XMLID_6852_" d="M290.544,273.529H271.752a.752.752,0,1,1,0-1.5h18.792a.752.752,0,1,1,0,1.5Z" transform="translate(-271 -272.026)" fill="#20849e"/>
        </g>
        <g id="XMLID_6849_" transform="translate(33.825 21.677)">
          <path id="XMLID_6850_" d="M290.544,237.529H271.752a.752.752,0,1,1,0-1.5h18.792a.752.752,0,1,1,0,1.5Z" transform="translate(-271 -236.026)" fill="#20849e"/>
        </g>
        <g id="XMLID_6847_" transform="translate(33.825 17.167)">
          <path id="XMLID_6848_" d="M290.544,201.529H271.752a.752.752,0,1,1,0-1.5h18.792a.752.752,0,1,1,0,1.5Z" transform="translate(-271 -200.026)" fill="#20849e"/>
        </g>
      </g>
    </g>
  </g>
</svg>
