<svg xmlns="http://www.w3.org/2000/svg" width="124" height="124" viewBox="0 0 124 124">
  <g id="Grupo_1193761" data-name="Grupo 1193761" transform="translate(-1959.038 9783.417)">
    <g id="Grupo_1193760" data-name="Grupo 1193760" transform="translate(9341.896 -158.963)">
      <g id="Grupo_1190972" data-name="Grupo 1190972" transform="translate(-7776.207 -17585.906)">
        <g id="Grupo_1190808" data-name="Grupo 1190808" transform="translate(-708.875 4775)">
          <circle id="Elipse_11474" data-name="Elipse 11474" cx="62" cy="62" r="62" transform="translate(1102.223 3186.452)" fill="#b8dcf3"/>
        </g>
      </g>
    </g>
    <g id="hoja" transform="translate(1993.783 -9753.488)">
      <path id="Trazado_1096679" data-name="Trazado 1096679" d="M84.635,53.487H79.923V5.54A5.546,5.546,0,0,0,74.383,0H35.77a5.546,5.546,0,0,0-5.54,5.54V58.6a5.545,5.545,0,0,0,5.457,5.537H81.361A5.444,5.444,0,0,0,86.8,58.706V55.651a2.168,2.168,0,0,0-2.165-2.164Zm-45.3,5.167a3.615,3.615,0,0,1-3.594,3.611A3.664,3.664,0,0,1,32.109,58.6V5.54A3.665,3.665,0,0,1,35.77,1.879H74.382A3.665,3.665,0,0,1,78.043,5.54V53.487H41.5a2.166,2.166,0,0,0-2.164,2.164Zm45.587.053a3.562,3.562,0,0,1-3.559,3.558H39.854a5.465,5.465,0,0,0,1.358-3.611v-3a.285.285,0,0,1,.284-.284H84.635a.285.285,0,0,1,.284.284Z" transform="translate(-30.23)" fill="#20849e"/>
      <path id="Trazado_1096680" data-name="Trazado 1096680" d="M74.944,73.8a.938.938,0,0,0,1.328,0l5.977-5.976A.94.94,0,0,0,80.92,66.5L75.608,71.81l-2.741-2.741A.94.94,0,0,0,71.538,70.4Z" transform="translate(-66.122 -57.926)" fill="#20849e"/>
      <path id="Trazado_1096681" data-name="Trazado 1096681" d="M190.19,74.649h22.749a.94.94,0,0,0,0-1.879H190.19a.94.94,0,0,0,0,1.879Z" transform="translate(-169.328 -63.653)" fill="#20849e"/>
      <path id="Trazado_1096682" data-name="Trazado 1096682" d="M190.19,109.269h13.977a.94.94,0,1,0,0-1.879H190.19a.94.94,0,0,0,0,1.879Z" transform="translate(-169.328 -93.936)" fill="#20849e"/>
      <path id="Trazado_1096683" data-name="Trazado 1096683" d="M190.19,188.579h22.749a.94.94,0,0,0,0-1.879H190.19a.94.94,0,0,0,0,1.879Z" transform="translate(-169.328 -163.31)" fill="#20849e"/>
      <path id="Trazado_1096684" data-name="Trazado 1096684" d="M190.19,223.2h13.977a.94.94,0,1,0,0-1.879H190.19a.94.94,0,0,0,0,1.879Z" transform="translate(-169.328 -193.593)" fill="#20849e"/>
      <path id="Trazado_1096685" data-name="Trazado 1096685" d="M72.21,177.83h9.382a.94.94,0,0,0,.94-.94V167.51a.94.94,0,0,0-.94-.94H72.21a.94.94,0,0,0-.94.94v9.381A.94.94,0,0,0,72.21,177.83Zm.94-9.382h7.5v7.5h-7.5Z" transform="translate(-66.129 -145.702)" fill="#20849e"/>
      <path id="Trazado_1096686" data-name="Trazado 1096686" d="M190.19,316.1h22.749a.94.94,0,0,0,0-1.879H190.19a.94.94,0,0,0,0,1.879Z" transform="translate(-169.328 -274.855)" fill="#20849e"/>
      <path id="Trazado_1096687" data-name="Trazado 1096687" d="M190.19,350.719h13.977a.94.94,0,1,0,0-1.879H190.19a.94.94,0,0,0,0,1.879Z" transform="translate(-169.328 -305.137)" fill="#20849e"/>
      <path id="Trazado_1096688" data-name="Trazado 1096688" d="M82.531,304.411V295.03a.94.94,0,0,0-.94-.94H72.21a.94.94,0,0,0-.94.94v9.381a.94.94,0,0,0,.94.94h9.382A.939.939,0,0,0,82.531,304.411Zm-1.879-.94h-7.5v-7.5h7.5Z" transform="translate(-66.129 -257.246)" fill="#20849e"/>
    </g>
  </g>
</svg>
