<svg xmlns="http://www.w3.org/2000/svg" width="124" height="124" viewBox="0 0 124 124">
  <g id="Grupo_1193766" data-name="Grupo 1193766" transform="translate(-1809.587 9783.418)">
    <g id="Grupo_1193759" data-name="Grupo 1193759" transform="translate(9192.445 -158.963)">
      <g id="Grupo_1190972" data-name="Grupo 1190972" transform="translate(-7776.207 -17585.906)">
        <g id="Grupo_1190808" data-name="Grupo 1190808" transform="translate(-708.875 4775)">
          <circle id="Elipse_11474" data-name="Elipse 11474" cx="62" cy="62" r="62" transform="translate(1102.223 3186.452)" fill="#b8dcf3"/>
        </g>
      </g>
    </g>
    <g id="reserva_3_" data-name="reserva (3)" transform="translate(1841.867 -9751.45)">
      <path id="Trazado_1096703" data-name="Trazado 1096703" d="M49.641,29.867a17.167,17.167,0,0,0-6.989,1.479V15.407a1.233,1.233,0,0,0-1.233-1.233H39.851V10.412a1.233,1.233,0,0,0-1.233-1.233H35.865V7.7a1.233,1.233,0,1,0-2.465,0V9.179H30.57a1.233,1.233,0,0,0-1.233,1.233v3.762H27.692V9.29a1.232,1.232,0,0,0-1.233-1.233H23.291V4.227a1.233,1.233,0,0,0-1.233-1.233H14.972V.74a1.233,1.233,0,0,0-2.466,0V2.994H5.714A1.232,1.232,0,0,0,4.482,4.227V8.058H1.314A1.233,1.233,0,0,0,.081,9.29V54.537a1.233,1.233,0,0,0,1.233,1.233H34.679a17.273,17.273,0,1,0,14.962-25.9ZM6.947,5.459H20.826v2.6H6.947ZM17.682,53.3h-2.71V45.757h2.71Zm-5.175,0H10.09V45.757h2.417Zm12.719,0H20.147v-8.78a1.232,1.232,0,0,0-1.233-1.233H8.857a1.233,1.233,0,0,0-1.233,1.233V53.3H2.547V10.523h22.68ZM31.8,11.645h5.583v2.53H31.8ZM27.692,53.3V16.64h12.5V32.691a17.393,17.393,0,0,0-2.5,1.988,1.238,1.238,0,0,0-.374-.058H30.624a1.233,1.233,0,0,0,0,2.466H35.6A17.294,17.294,0,0,0,33.781,40.3H30.624a1.233,1.233,0,0,0,0,2.465h2.3a17.178,17.178,0,0,0-.547,3.662H30.624a1.233,1.233,0,0,0,0,2.465h1.83A17.138,17.138,0,0,0,33.5,53.3Zm21.95,8.647A14.809,14.809,0,1,1,64.451,47.142,14.809,14.809,0,0,1,49.641,61.951Zm0,0" transform="translate(-0.081 0.493)" fill="#20849e"/>
      <path id="Trazado_1096704" data-name="Trazado 1096704" d="M47.8,197.953H62.745a1.233,1.233,0,0,0,0-2.466H47.8a1.233,1.233,0,0,0,0,2.466Zm0,0" transform="translate(-41.466 -173.971)" fill="#20849e"/>
      <path id="Trazado_1096705" data-name="Trazado 1096705" d="M47.8,260.559H62.745a1.233,1.233,0,0,0,0-2.466H47.8a1.233,1.233,0,0,0,0,2.466Zm0,0" transform="translate(-41.466 -229.704)" fill="#20849e"/>
      <path id="Trazado_1096706" data-name="Trazado 1096706" d="M47.8,323.168H62.745a1.233,1.233,0,0,0,0-2.465H47.8a1.233,1.233,0,0,0,0,2.465Zm0,0" transform="translate(-41.466 -285.439)" fill="#20849e"/>
      <path id="Trazado_1096707" data-name="Trazado 1096707" d="M47.8,135.348H62.745a1.233,1.233,0,0,0,0-2.465H47.8a1.233,1.233,0,0,0,0,2.465Zm0,0" transform="translate(-41.466 -118.24)" fill="#20849e"/>
      <path id="Trazado_1096708" data-name="Trazado 1096708" d="M268.283,266.008h6.426a1.233,1.233,0,1,0,0-2.465h-6.426a1.233,1.233,0,0,0,0,2.465Zm0,0" transform="translate(-237.74 -234.555)" fill="#20849e"/>
      <path id="Trazado_1096709" data-name="Trazado 1096709" d="M268.283,211.563h6.426a1.233,1.233,0,0,0,0-2.466h-6.426a1.233,1.233,0,0,0,0,2.466Zm0,0" transform="translate(-237.74 -186.087)" fill="#20849e"/>
      <path id="Trazado_1096710" data-name="Trazado 1096710" d="M376.535,356.675a8.648,8.648,0,1,0-1.743,1.743l3.927,3.928a1.233,1.233,0,0,0,1.744-1.743Zm-13.09-5.173a6.174,6.174,0,1,1,10.625,4.272,1.249,1.249,0,0,0-.18.18,6.169,6.169,0,0,1-10.446-4.451Zm0,0" transform="translate(-321.342 -305.151)" fill="#20849e"/>
    </g>
  </g>
</svg>
