<svg xmlns="http://www.w3.org/2000/svg" width="110.27" height="110.861" viewBox="0 0 110.27 110.861">
  <path id="voto-negativo" d="M79.21,32.408a1.252,1.252,0,0,0,.027-.468,36.1,36.1,0,0,0-.853-4.27c0-.015-.007-.03-.01-.044l0-.009,0-.007,0-.007h0a36.518,36.518,0,0,0-12.7-19.737A36.33,36.33,0,0,0,6.762,36.056L3.094,38.485A5.787,5.787,0,0,0,5.025,48.962,5.784,5.784,0,0,0,8.886,57.3a5.781,5.781,0,0,0,3.86,8.343,5.8,5.8,0,0,0,3.975,8.375,5.878,5.878,0,0,0,1.165.117,5.753,5.753,0,0,0,3.186-.964l6.22-4.119c.625.3,1.263.59,1.9.854A36.05,36.05,0,0,0,36.157,72a26.725,26.725,0,0,0,4.135,5.149l2.385,2.312a5.219,5.219,0,0,0,7.986-6.629c-.184-.279-.357-.566-.522-.856A36.257,36.257,0,0,0,75.928,51.9a1.249,1.249,0,1,0-2.256-1.072A33.764,33.764,0,0,1,49.053,69.641a15.46,15.46,0,0,1-.548-8.757L51.55,47.728a3.376,3.376,0,0,0,1.8,1.007,3.466,3.466,0,0,0,.687.07,3.379,3.379,0,0,0,1.872-.567L76.868,34.357q.057.985.058,1.975a33.916,33.916,0,0,1-1.263,9.192,1.249,1.249,0,0,0,2.4.677A36.45,36.45,0,0,0,79.21,32.408ZM64.185,39.761,46.2,12.935,56.792,5.92A34.037,34.037,0,0,1,75.944,28.212l0,.01c0,.008,0,.015,0,.023a33.194,33.194,0,0,1,.634,3.3ZM29.747,67.432l3.333-2.207.751,2.025q.346.933.764,1.84A33.513,33.513,0,0,1,30.151,67.6c-.135-.056-.269-.114-.4-.172Zm16.323-7.111a17.967,17.967,0,0,0,1.051,11.218v0l.009.019a18.1,18.1,0,0,0,1.449,2.652,2.722,2.722,0,0,1-4.165,3.455l-2.384-2.311a24.246,24.246,0,0,1-4.02-5.112l-.03-.049a24.457,24.457,0,0,1-1.807-3.814l-1.3-3.5a1.249,1.249,0,0,0-1.605-.737l-.039.017a.718.718,0,0,0-.175.088l-.025.015-.016.01L19.693,71.094A3.3,3.3,0,1,1,16.054,65.6l1.137-.752h0l.019-.013,2.58-1.709a1.249,1.249,0,0,0-1.379-2.083l-2.6,1.72a3.295,3.295,0,0,1-3.621-5.505l3.736-2.475A1.249,1.249,0,0,0,14.553,52.7l-2.6,1.719a3.3,3.3,0,0,1-3.624-5.5l3.737-2.475a1.249,1.249,0,1,0-1.378-2.083L8.111,46.062a3.295,3.295,0,1,1-3.638-5.494l9.069-6.006a1.249,1.249,0,1,0-1.379-2.083L9.315,34.365A33.886,33.886,0,0,1,54.484,4.452L35.317,17.145a3.414,3.414,0,0,0-.958,4.721l.111.168L32.832,23.12a5.57,5.57,0,0,1-3.966.858,8.056,8.056,0,0,0-5.739,1.241l-6.506,4.309A1.249,1.249,0,0,0,18,31.611L24.506,27.3a5.567,5.567,0,0,1,3.962-.858A8.074,8.074,0,0,0,34.21,25.2l1.639-1.086L49.634,44.929Zm8.459-14.165a.909.909,0,0,1-1.258-.258L37.246,21.7l0,0,0,0-.8-1.2a.913.913,0,0,1,.256-1.26l7.418-4.912L62.1,41.14Zm0,0" transform="matrix(-0.839, -0.545, 0.545, -0.839, 66.61, 111.133)" fill="#b3c867"/>
</svg>
