<svg xmlns="http://www.w3.org/2000/svg" width="105.006" height="105.006" viewBox="0 0 105.006 105.006">
  <g id="Grupo_1193756" data-name="Grupo 1193756" transform="translate(-2571.536 8911.777)">
    <g id="Grupo_1193751" data-name="Grupo 1193751" transform="translate(6655.373 1219.802)">
      <circle id="Elipse_11481" data-name="Elipse 11481" cx="52.503" cy="52.503" r="52.503" transform="translate(-4083.836 -10131.58)" fill="#e9f8fc"/>
    </g>
    <g id="comprobado" transform="translate(2596.407 -8882.926)">
      <g id="Grupo_1193696" data-name="Grupo 1193696" transform="translate(0 0)">
        <g id="Grupo_1193695" data-name="Grupo 1193695">
          <path id="Trazado_1096656" data-name="Trazado 1096656" d="M55.49,56.642a1.688,1.688,0,0,0-3.367.243c.042.574.062,1.164.062,1.751a24.4,24.4,0,1,1-24.4-24.4,24.178,24.178,0,0,1,14.636,4.877,1.688,1.688,0,0,0,2.028-2.7A27.529,27.529,0,0,0,27.78,30.855a27.78,27.78,0,1,0,27.78,27.78C55.561,57.967,55.537,57.3,55.49,56.642Z" transform="translate(0 -30.855)" fill="#20849e"/>
        </g>
      </g>
      <g id="Grupo_1193698" data-name="Grupo 1193698" transform="translate(7.756 1.889)">
        <g id="Grupo_1193697" data-name="Grupo 1193697">
          <path id="Trazado_1096657" data-name="Trazado 1096657" d="M116.35,48.09a6.593,6.593,0,0,0-9.313,0L82.717,72.411,74.1,63.789A6.585,6.585,0,1,0,64.783,73.1L79.631,87.951a4.369,4.369,0,0,0,6.171,0L116.35,57.4A6.593,6.593,0,0,0,116.35,48.09Zm-2.387,6.925L83.415,85.564a.989.989,0,0,1-1.4,0L67.17,70.715a3.209,3.209,0,0,1,4.538-4.538l8.869,8.869a3.026,3.026,0,0,0,4.279,0l24.568-24.569a3.209,3.209,0,0,1,4.538,4.538Z" transform="translate(-62.857 -46.165)" fill="#20849e"/>
        </g>
      </g>
    </g>
  </g>
</svg>
