<svg xmlns="http://www.w3.org/2000/svg" width="105.006" height="105.006" viewBox="0 0 105.006 105.006">
  <g id="Grupo_1193755" data-name="Grupo 1193755" transform="translate(-2452.348 8862.275)">
    <g id="Grupo_1193749" data-name="Grupo 1193749" transform="translate(6536.184 1269.305)">
      <circle id="Elipse_11481" data-name="Elipse 11481" cx="52.503" cy="52.503" r="52.503" transform="translate(-4083.836 -10131.58)" fill="#e9f8fc"/>
    </g>
    <g id="cita" transform="translate(2472.348 -8841.359)">
      <g id="Grupo_1193674" data-name="Grupo 1193674">
        <g id="Grupo_1193673" data-name="Grupo 1193673">
          <path id="Trazado_1096645" data-name="Trazado 1096645" d="M57.005,5.429H51.124V3.7a3.7,3.7,0,1,0-7.4,0V5.429H22.991V3.7a3.7,3.7,0,1,0-7.4,0V5.475a1.231,1.231,0,0,0-.329-.046H10.343A6.176,6.176,0,0,0,4.173,11.6V32.616a1.234,1.234,0,1,0,2.468,0V18.138H51.124a1.234,1.234,0,0,0,0-2.468H6.641V11.6a3.706,3.706,0,0,1,3.7-3.7h4.916a1.236,1.236,0,0,0,.329-.046V9.439a3.7,3.7,0,1,0,7.4,0V7.9H43.72V9.439a3.7,3.7,0,1,0,7.4,0V7.9h5.882a3.706,3.706,0,0,1,3.7,3.7V58.485a2.222,2.222,0,1,1-4.443,0V55.293A1.234,1.234,0,0,0,55.03,54.06H40.677a1.234,1.234,0,0,0,0,2.468H53.8v1.958a4.661,4.661,0,0,0,.561,2.222H4.689a2.224,2.224,0,0,1-2.221-2.221V56.527H30.085a1.234,1.234,0,0,0,0-2.468H17.757a10.118,10.118,0,1,0-13.185,0H1.234A1.234,1.234,0,0,0,0,55.293v3.193a4.694,4.694,0,0,0,4.689,4.689h53.8a4.7,4.7,0,0,0,4.689-4.69V11.6A6.176,6.176,0,0,0,57.005,5.429ZM20.524,9.439a1.234,1.234,0,1,1-2.468,0V3.7a1.234,1.234,0,1,1,2.468,0Zm28.133,0a1.234,1.234,0,1,1-2.468,0V3.7a1.234,1.234,0,1,1,2.468,0ZM3.514,46.394a7.65,7.65,0,1,1,7.65,7.65A7.659,7.659,0,0,1,3.514,46.394Z" fill="#20849e"/>
        </g>
      </g>
      <g id="Grupo_1193676" data-name="Grupo 1193676" transform="translate(55.678 15.67)">
        <g id="Grupo_1193675" data-name="Grupo 1193675">
          <path id="Trazado_1096646" data-name="Trazado 1096646" d="M453.346,127.362a1.233,1.233,0,1,0,.362.872A1.243,1.243,0,0,0,453.346,127.362Z" transform="translate(-451.24 -127)" fill="#20849e"/>
        </g>
      </g>
      <g id="Grupo_1193678" data-name="Grupo 1193678" transform="translate(34.744 54.06)">
        <g id="Grupo_1193677" data-name="Grupo 1193677">
          <path id="Trazado_1096647" data-name="Trazado 1096647" d="M283.686,438.49a1.234,1.234,0,1,0,.362.872A1.242,1.242,0,0,0,283.686,438.49Z" transform="translate(-281.58 -438.13)" fill="#20849e"/>
        </g>
      </g>
      <g id="Grupo_1193680" data-name="Grupo 1193680" transform="translate(23.227 37.51)">
        <g id="Grupo_1193679" data-name="Grupo 1193679">
          <path id="Trazado_1096648" data-name="Trazado 1096648" d="M192.934,304a4.689,4.689,0,1,0,4.689,4.689A4.694,4.694,0,0,0,192.934,304Zm0,6.91a2.221,2.221,0,1,1,2.221-2.221A2.224,2.224,0,0,1,192.934,310.91Z" transform="translate(-188.245 -304)" fill="#20849e"/>
        </g>
      </g>
      <g id="Grupo_1193682" data-name="Grupo 1193682" transform="translate(34.743 37.51)">
        <g id="Grupo_1193681" data-name="Grupo 1193681">
          <path id="Trazado_1096649" data-name="Trazado 1096649" d="M286.267,304a4.689,4.689,0,1,0,4.689,4.689A4.694,4.694,0,0,0,286.267,304Zm0,6.91a2.221,2.221,0,1,1,2.221-2.221A2.224,2.224,0,0,1,286.267,310.91Z" transform="translate(-281.578 -304)" fill="#20849e"/>
        </g>
      </g>
      <g id="Grupo_1193684" data-name="Grupo 1193684" transform="translate(46.26 37.51)">
        <g id="Grupo_1193683" data-name="Grupo 1193683">
          <path id="Trazado_1096650" data-name="Trazado 1096650" d="M379.6,304a4.689,4.689,0,1,0,4.689,4.689A4.694,4.694,0,0,0,379.6,304Zm0,6.91a2.221,2.221,0,1,1,2.221-2.221A2.224,2.224,0,0,1,379.6,310.91Z" transform="translate(-374.912 -304)" fill="#20849e"/>
        </g>
      </g>
      <g id="Grupo_1193686" data-name="Grupo 1193686" transform="translate(11.711 24.678)">
        <g id="Grupo_1193685" data-name="Grupo 1193685">
          <path id="Trazado_1096651" data-name="Trazado 1096651" d="M99.6,200a4.689,4.689,0,1,0,4.689,4.689A4.694,4.694,0,0,0,99.6,200Zm0,6.91a2.221,2.221,0,1,1,2.221-2.221A2.224,2.224,0,0,1,99.6,206.91Z" transform="translate(-94.912 -200)" fill="#20849e"/>
        </g>
      </g>
      <g id="Grupo_1193688" data-name="Grupo 1193688" transform="translate(34.743 24.678)">
        <g id="Grupo_1193687" data-name="Grupo 1193687">
          <path id="Trazado_1096652" data-name="Trazado 1096652" d="M286.267,200a4.689,4.689,0,1,0,4.689,4.689A4.694,4.694,0,0,0,286.267,200Zm0,6.91a2.221,2.221,0,1,1,2.221-2.221A2.224,2.224,0,0,1,286.267,206.91Z" transform="translate(-281.578 -200)" fill="#20849e"/>
        </g>
      </g>
      <g id="Grupo_1193690" data-name="Grupo 1193690" transform="translate(46.26 24.678)">
        <g id="Grupo_1193689" data-name="Grupo 1193689">
          <path id="Trazado_1096653" data-name="Trazado 1096653" d="M379.6,200a4.689,4.689,0,1,0,4.689,4.689A4.694,4.694,0,0,0,379.6,200Zm0,6.91a2.221,2.221,0,1,1,2.221-2.221A2.224,2.224,0,0,1,379.6,206.91Z" transform="translate(-374.912 -200)" fill="#20849e"/>
        </g>
      </g>
      <g id="Grupo_1193692" data-name="Grupo 1193692" transform="translate(23.227 24.678)">
        <g id="Grupo_1193691" data-name="Grupo 1193691">
          <path id="Trazado_1096654" data-name="Trazado 1096654" d="M192.934,200a4.689,4.689,0,1,0,4.689,4.689A4.694,4.694,0,0,0,192.934,200Zm0,6.91a2.221,2.221,0,1,1,2.221-2.221A2.224,2.224,0,0,1,192.934,206.91Z" transform="translate(-188.245 -200)" fill="#20849e"/>
        </g>
      </g>
      <g id="Grupo_1193694" data-name="Grupo 1193694" transform="translate(6.317 43.026)">
        <g id="Grupo_1193693" data-name="Grupo 1193693">
          <path id="Trazado_1096655" data-name="Trazado 1096655" d="M60.437,349.062a1.234,1.234,0,0,0-1.745,0l-4.018,4.018L53.3,351.707a1.234,1.234,0,0,0-1.745,1.745L53.8,355.7a1.234,1.234,0,0,0,1.745,0l4.891-4.891A1.234,1.234,0,0,0,60.437,349.062Z" transform="translate(-51.194 -348.7)" fill="#20849e"/>
        </g>
      </g>
    </g>
  </g>
</svg>
