<svg xmlns="http://www.w3.org/2000/svg" width="105.006" height="105.006" viewBox="0 0 105.006 105.006">
  <g id="Grupo_1193753" data-name="Grupo 1193753" transform="translate(-2636.536 9022.777)">
    <g id="Grupo_1193752" data-name="Grupo 1193752" transform="translate(6720.373 1108.802)">
      <circle id="Elipse_11481" data-name="Elipse 11481" cx="52.503" cy="52.503" r="52.503" transform="translate(-4083.836 -10131.58)" fill="#e9f8fc"/>
    </g>
    <g id="campana-del-hotel" transform="translate(2653.503 -8999.985)">
      <path id="Trazado_1096637" data-name="Trazado 1096637" d="M66.445,49.613H62.769V47.163h3.676a1.225,1.225,0,0,0,1.225-1.225v-4.9a30.293,30.293,0,0,0-6.766-19.2,1.226,1.226,0,0,0-1.91,1.539,27.844,27.844,0,0,1,6.225,17.66v3.676H8.852V41.036A28.217,28.217,0,0,1,52,17.126a1.225,1.225,0,1,0,1.3-2.077,30.522,30.522,0,0,0-10.133-4.026V7.951h1.225a1.225,1.225,0,0,0,0-2.451h-14.7a1.225,1.225,0,0,0,0,2.451h1.225v3.068A30.685,30.685,0,0,0,6.4,41.036v4.9a1.225,1.225,0,0,0,1.225,1.225H11.3v2.451H7.627a5.977,5.977,0,0,0-4.31,1.793A5.989,5.989,0,0,0,1.5,55.74a1.225,1.225,0,0,0,1.225,1.225H32.134a1.225,1.225,0,0,0,0-2.451H4.159a3.648,3.648,0,0,1,.89-1.376,3.562,3.562,0,0,1,2.578-1.075H66.445a3.68,3.68,0,0,1,3.465,2.451H41.937a1.225,1.225,0,0,0,0,2.451H71.346a1.225,1.225,0,0,0,1.225-1.225,6.133,6.133,0,0,0-6.127-6.127ZM33.36,7.951h7.352v2.685a28.494,28.494,0,0,0-7.352.008ZM13.754,49.613V47.163H60.318v2.451Z" transform="translate(-1.5 -5.5)" fill="#20849e"/>
      <path id="Trazado_1096638" data-name="Trazado 1096638" d="M18.762,11.157a23.022,23.022,0,0,0-10.071,7.4,1.224,1.224,0,1,0,1.929,1.508,20.583,20.583,0,0,1,9-6.615,1.225,1.225,0,1,0-.857-2.3Z" transform="translate(8.553 2.596)" fill="#20849e"/>
      <path id="Trazado_1096639" data-name="Trazado 1096639" d="M3.725,13.951H7.191a1.225,1.225,0,0,0,0-2.451H3.725a1.225,1.225,0,0,0,0,2.451Z" transform="translate(-0.049 3.205)" fill="#20849e"/>
      <path id="Trazado_1096640" data-name="Trazado 1096640" d="M6.967,12.043A1.225,1.225,0,0,0,8.7,10.31L6.249,7.859A1.225,1.225,0,0,0,4.516,9.592Z" transform="translate(2.355 -2.598)" fill="#20849e"/>
      <path id="Trazado_1096641" data-name="Trazado 1096641" d="M9.383,11.76a1.225,1.225,0,0,0,1.225-1.225V7.069a1.225,1.225,0,1,0-2.451,0v3.466A1.225,1.225,0,0,0,9.383,11.76Z" transform="translate(8.158 -5.002)" fill="#20849e"/>
      <path id="Trazado_1096642" data-name="Trazado 1096642" d="M27.086,12.725a1.225,1.225,0,0,0,1.225,1.225h3.466a1.225,1.225,0,0,0,0-2.451H28.311A1.225,1.225,0,0,0,27.086,12.725Z" transform="translate(35.619 3.205)" fill="#20849e"/>
      <path id="Trazado_1096643" data-name="Trazado 1096643" d="M27.068,12.4a1.221,1.221,0,0,0,.866-.359l2.451-2.451a1.225,1.225,0,1,0-1.733-1.733L26.2,10.31a1.225,1.225,0,0,0,.866,2.092Z" transform="translate(33.815 -2.598)" fill="#20849e"/>
      <path id="Trazado_1096644" data-name="Trazado 1096644" d="M24.068,11.76a1.225,1.225,0,0,0,1.225-1.225V7.069a1.225,1.225,0,1,0-2.451,0v3.466A1.225,1.225,0,0,0,24.068,11.76Z" transform="translate(29.463 -5.002)" fill="#20849e"/>
      <circle id="Elipse_13834" data-name="Elipse 13834" cx="1" cy="1" r="1" transform="translate(34.348 48.986)" fill="#20849e"/>
      <ellipse id="Elipse_13835" data-name="Elipse 13835" cx="1.225" cy="1.225" rx="1.225" ry="1.225" transform="translate(53.831 12.34)" fill="#20849e"/>
    </g>
  </g>
</svg>
