<svg xmlns="http://www.w3.org/2000/svg" width="105.006" height="105.006" viewBox="0 0 105.006 105.006">
  <g id="Grupo_1193754" data-name="Grupo 1193754" transform="translate(-2472.348 9006.275)">
    <g id="Grupo_1193748" data-name="Grupo 1193748" transform="translate(6556.184 1125.305)">
      <circle id="Elipse_11481" data-name="Elipse 11481" cx="52.503" cy="52.503" r="52.503" transform="translate(-4083.836 -10131.58)" fill="#e9f8fc"/>
    </g>
    <g id="archivo" transform="translate(2499.539 -8985.393)">
      <path id="Trazado_1096630" data-name="Trazado 1096630" d="M60.216,39.253a12.482,12.482,0,0,0-13.63-2.68V14.762a3.356,3.356,0,0,0-.989-2.389L34.214.989A3.372,3.372,0,0,0,33.3.342h0L33.253.319c-.029-.014-.059-.028-.09-.04A3.387,3.387,0,0,0,31.824,0H4.4A3.575,3.575,0,0,0,.83,3.571v56.1A3.575,3.575,0,0,0,4.4,63.241H43.015a3.576,3.576,0,0,0,3.565-3.356q0-.037,0-.074v-.256a12.462,12.462,0,0,0,13.634-20.3ZM42.373,12.64H34.22a.273.273,0,0,1-.273-.273V4.212Zm1.741,47.127a1.105,1.105,0,0,1-1.1,1.006H4.4a1.1,1.1,0,0,1-1.1-1.1V3.571a1.1,1.1,0,0,1,1.1-1.1H31.479v9.9a2.744,2.744,0,0,0,2.741,2.741h9.9V37.954a12.464,12.464,0,0,0,0,20.219v1.594Zm14.357-4.635A9.994,9.994,0,1,1,61.4,48.065,10.006,10.006,0,0,1,58.471,55.132Z" transform="translate(-0.83 0)" fill="#20849e"/>
      <path id="Trazado_1096631" data-name="Trazado 1096631" d="M62.531,141.848h17.2a1.234,1.234,0,1,0,0-2.468h-17.2a1.234,1.234,0,1,0,0,2.468Z" transform="translate(-53.836 -122.182)" fill="#20849e"/>
      <path id="Trazado_1096632" data-name="Trazado 1096632" d="M84.023,319.3H62.531a1.234,1.234,0,1,0,0,2.468H84.023a1.234,1.234,0,1,0,0-2.468Z" transform="translate(-53.836 -279.9)" fill="#20849e"/>
      <path id="Trazado_1096633" data-name="Trazado 1096633" d="M84.023,379.271H62.531a1.234,1.234,0,0,0,0,2.468H84.023a1.234,1.234,0,1,0,0-2.468Z" transform="translate(-53.836 -332.473)" fill="#20849e"/>
      <path id="Trazado_1096634" data-name="Trazado 1096634" d="M90.961,259.326H62.531a1.234,1.234,0,0,0,0,2.468h28.43a1.234,1.234,0,0,0,0-2.468Z" transform="translate(-53.836 -227.328)" fill="#20849e"/>
      <path id="Trazado_1096635" data-name="Trazado 1096635" d="M61.531,202.468H83.792a1.234,1.234,0,0,0,0-2.468H61.531a1.234,1.234,0,0,0,0,2.468Z" transform="translate(-52.959 -175.322)" fill="#20849e"/>
      <ellipse id="Elipse_13833" data-name="Elipse 13833" cx="1.234" cy="1.235" rx="1.234" ry="1.235" transform="translate(35.738 24.677)" fill="#20849e"/>
      <path id="Trazado_1096636" data-name="Trazado 1096636" d="M381.505,351.613a1.234,1.234,0,0,0-1.745,0l-2.618,2.618-2.577-2.577a1.234,1.234,0,0,0-1.745,1.745l2.577,2.577-2.618,2.618a1.234,1.234,0,0,0,1.745,1.745l2.618-2.618,2.577,2.577a1.234,1.234,0,0,0,1.745-1.745l-2.577-2.577,2.618-2.618a1.234,1.234,0,0,0,0-1.745Z" transform="translate(-326.568 -307.911)" fill="#20849e"/>
    </g>
  </g>
</svg>
