<svg xmlns="http://www.w3.org/2000/svg" width="74" height="75" viewBox="0 0 74 75">
  <g id="Grupo_1193768" data-name="Grupo 1193768" transform="translate(-0.333 0.333)">
    <ellipse id="Elipse_13841" data-name="Elipse 13841" cx="37" cy="37.5" rx="37" ry="37.5" transform="translate(0.333 -0.333)" fill="#b3c867"/>
    <g id="Layer_1-2" transform="translate(23.816 17.238)">
      <g id="Security" transform="translate(0)">
        <g id="Grupo_1193746" data-name="Grupo 1193746">
          <path id="Trazado_1096809" data-name="Trazado 1096809" d="M59.978,7.984V3.09A3.089,3.089,0,0,0,56.888,0H39.29A3.089,3.089,0,0,0,36.2,3.09V39.672a3.089,3.089,0,0,0,3.09,3.09h17.6a3.089,3.089,0,0,0,3.09-3.09V34.861a13.448,13.448,0,0,0,0-26.877ZM53.514,1,52.5,2.923H43.675L42.664,1Zm5.462,38.67a2.089,2.089,0,0,1-2.088,2.088H39.29A2.089,2.089,0,0,1,37.2,39.672V3.09A2.089,2.089,0,0,1,39.29,1h2.238L42.8,3.4a.986.986,0,0,0,.869.526H52.52a.971.971,0,0,0,.869-.526L54.641,1h2.238A2.089,2.089,0,0,1,58.967,3.09V7.984a13.448,13.448,0,0,0,0,26.877v4.811Zm.5-5.8A12.444,12.444,0,1,1,71.921,21.423,12.454,12.454,0,0,1,59.477,33.867Z" transform="translate(-36.2)" fill="#7d8c48"/>
          <path id="Trazado_1096810" data-name="Trazado 1096810" d="M121.4,465.2h8.644a.5.5,0,0,1,0,1H121.4a.5.5,0,1,1,0-1Z" transform="translate(-113.826 -426.347)" fill="#7d8c48"/>
        </g>
        <path id="Trazado_1096811" data-name="Trazado 1096811" d="M241.765,178.553a.931.931,0,0,1-.418-.1,18.655,18.655,0,0,1-3.533-2.2c-1.236-.994-2.714-2.564-2.714-4.427v-5.9a.9.9,0,0,1,.585-.835c2.03-.743,3.942-1.453,5.754-2.121a1.109,1.109,0,0,1,.81.05l.042.017c.735.276,1.487.551,2.238.827,1.119.409,2.28.835,3.383,1.261a.838.838,0,0,1,.535.835v5.83c0,1.687-1.178,3.416-3.4,4.994a19.03,19.03,0,0,1-2.856,1.687A1.54,1.54,0,0,1,241.765,178.553ZM236.094,166v5.821c0,1.545,1.47,2.948,2.339,3.65a17.554,17.554,0,0,0,3.324,2.071,18.657,18.657,0,0,0,2.689-1.587c1.353-.969,2.973-2.481,2.973-4.176v-5.771c-1.069-.4-2.188-.818-3.266-1.211-.752-.276-1.5-.551-2.238-.827l-.042-.017c-.042-.017-.092-.033-.117-.042-1.779.651-3.666,1.353-5.663,2.088Z" transform="translate(-218.488 -149.305)" fill="#7d8c48"/>
        <path id="Trazado_1096812" data-name="Trazado 1096812" d="M268.775,229.69a.481.481,0,0,1-.351-.15l-2.506-2.506a.5.5,0,0,1,.71-.71l2.146,2.146,4.351-4.351a.509.509,0,0,1,.71,0,.5.5,0,0,1,0,.71l-4.71,4.711A.481.481,0,0,1,268.775,229.69Z" transform="translate(-246.601 -205.269)" fill="#7d8c48"/>
      </g>
    </g>
  </g>
</svg>
