<svg xmlns="http://www.w3.org/2000/svg" width="74" height="75" viewBox="0 0 74 75">
  <g id="Grupo_1193769" data-name="Grupo 1193769" transform="translate(-0.333 0.333)">
    <ellipse id="Elipse_13839" data-name="Elipse 13839" cx="37" cy="37.5" rx="37" ry="37.5" transform="translate(0.333 -0.333)" fill="#b3c867"/>
    <g id="reserva-en-linea_5_" data-name="reserva-en-linea (5)" transform="translate(19.887 14.845)">
      <g id="Grupo_1193725" data-name="Grupo 1193725" transform="translate(0 0)">
        <path id="Trazado_1096761" data-name="Trazado 1096761" d="M94.578,54.562h-24.6A4.583,4.583,0,0,1,65.4,49.984V13.318A4.583,4.583,0,0,1,69.978,8.74h24.6a4.583,4.583,0,0,1,4.578,4.578V49.985A4.584,4.584,0,0,1,94.578,54.562ZM69.978,9.8a3.525,3.525,0,0,0-3.522,3.522V49.985a3.526,3.526,0,0,0,3.522,3.522h24.6A3.526,3.526,0,0,0,98.1,49.985V13.318A3.526,3.526,0,0,0,94.579,9.8Z" transform="translate(-65.4 -8.74)" fill="#7d8c48"/>
      </g>
      <g id="Grupo_1193726" data-name="Grupo 1193726" transform="translate(0 6.203)">
        <path id="Trazado_1096762" data-name="Trazado 1096762" d="M98.628,68.546h-32.7a.528.528,0,1,1,0-1.056h32.7a.528.528,0,1,1,0,1.056Z" transform="translate(-65.4 -67.49)" fill="#7d8c48"/>
      </g>
      <g id="Grupo_1193727" data-name="Grupo 1193727" transform="translate(0 38.563)">
        <path id="Trazado_1096763" data-name="Trazado 1096763" d="M98.628,375.046h-32.7a.528.528,0,1,1,0-1.056h32.7a.528.528,0,1,1,0,1.056Z" transform="translate(-65.4 -373.99)" fill="#7d8c48"/>
      </g>
      <g id="Grupo_1193728" data-name="Grupo 1193728" transform="translate(9.766 3.101)">
        <path id="Trazado_1096764" data-name="Trazado 1096764" d="M171.6,39.166H158.428a.528.528,0,0,1,0-1.056H171.6a.528.528,0,1,1,0,1.056Z" transform="translate(-157.9 -38.11)" fill="#7d8c48"/>
      </g>
      <g id="Grupo_1193729" data-name="Grupo 1193729" transform="translate(14.444 41.664)">
        <path id="Trazado_1096765" data-name="Trazado 1096765" d="M206.972,404.416h-4.234a.528.528,0,1,1,0-1.056h4.234a.528.528,0,1,1,0,1.056Z" transform="translate(-202.21 -403.36)" fill="#7d8c48"/>
      </g>
      <g id="Grupo_1193730" data-name="Grupo 1193730" transform="translate(3.658 26.345)">
        <path id="Trazado_1096766" data-name="Trazado 1096766" d="M124.9,268.682a1.664,1.664,0,0,1-1.576-1.476l-.515-2.35H103.73l-.515,2.351a1.664,1.664,0,0,1-1.576,1.476,1.591,1.591,0,0,1-1.589-1.589v-8.3a.528.528,0,0,1,.528-.528H125.96a.528.528,0,0,1,.528.528v8.3A1.59,1.59,0,0,1,124.9,268.682ZM103.306,263.8h19.927a.528.528,0,0,1,.515.415l.606,2.765c.033.152.171.646.545.646a.534.534,0,0,0,.533-.533v-7.769H101.107v7.769a.534.534,0,0,0,.533.533c.375,0,.512-.494.545-.646l.606-2.765A.528.528,0,0,1,103.306,263.8Z" transform="translate(-100.05 -258.27)" fill="#7d8c48"/>
      </g>
      <g id="Grupo_1193731" data-name="Grupo 1193731" transform="translate(4.701 22.823)">
        <path id="Trazado_1096767" data-name="Trazado 1096767" d="M134.21,229.488a.528.528,0,0,1-.528-.528V227.2a1.235,1.235,0,0,0-1.233-1.233h-20.23a1.235,1.235,0,0,0-1.233,1.233v1.761a.528.528,0,0,1-1.056,0V227.2a2.291,2.291,0,0,1,2.289-2.289h20.23a2.291,2.291,0,0,1,2.289,2.289v1.761A.528.528,0,0,1,134.21,229.488Z" transform="translate(-109.93 -224.91)" fill="#7d8c48"/>
      </g>
      <g id="Grupo_1193732" data-name="Grupo 1193732" transform="translate(6.67 11.61)">
        <path id="Trazado_1096768" data-name="Trazado 1096768" d="M148.921,130.974a.528.528,0,0,1-.528-.528v-8.821a6.65,6.65,0,0,1-3.061-.807,7.289,7.289,0,0,0-1.892-1.07.528.528,0,0,1,.389-.982,8.325,8.325,0,0,1,2.165,1.228,7.218,7.218,0,0,0,2.947.6.528.528,0,0,1,.508.528v9.32A.527.527,0,0,1,148.921,130.974Zm-19.813,0a.528.528,0,0,1-.528-.528v-9.32a.529.529,0,0,1,.51-.528,7.072,7.072,0,0,0,2.94-.6,8.111,8.111,0,0,1,2.184-1.255.528.528,0,1,1,.389.982,7.082,7.082,0,0,0-1.9,1.089,6.488,6.488,0,0,1-3.066.812v8.82A.528.528,0,0,1,129.108,130.974Z" transform="translate(-128.58 -118.706)" fill="#7d8c48"/>
      </g>
      <g id="Grupo_1193733" data-name="Grupo 1193733" transform="translate(8.418 15.34)">
        <path id="Trazado_1096769" data-name="Trazado 1096769" d="M161.976,162.568a.528.528,0,0,1-.528-.528v-6.955h-2.259a.528.528,0,0,1,0-1.056h2.787a.528.528,0,0,1,.528.528v7.482A.528.528,0,0,1,161.976,162.568Zm-16.318,0a.528.528,0,0,1-.528-.528v-7.482a.528.528,0,0,1,.528-.528h2.787a.528.528,0,1,1,0,1.056h-2.259v6.955A.527.527,0,0,1,145.658,162.568Z" transform="translate(-145.13 -154.03)" fill="#7d8c48"/>
      </g>
      <g id="Grupo_1193734" data-name="Grupo 1193734" transform="translate(3.659 28.258)">
        <path id="Trazado_1096770" data-name="Trazado 1096770" d="M125.969,277.446H100.588a.528.528,0,1,1,0-1.056H125.97a.528.528,0,1,1,0,1.056Z" transform="translate(-100.06 -276.39)" fill="#7d8c48"/>
      </g>
      <g id="Grupo_1193735" data-name="Grupo 1193735" transform="translate(8.49 28.257)">
        <path id="Trazado_1096771" data-name="Trazado 1096771" d="M146.338,281.054a.528.528,0,0,1-.528-.528v-3.618a.528.528,0,1,1,1.056,0v3.618A.527.527,0,0,1,146.338,281.054Z" transform="translate(-145.81 -276.38)" fill="#7d8c48"/>
      </g>
      <g id="Grupo_1193736" data-name="Grupo 1193736" transform="translate(11.634 28.257)">
        <path id="Trazado_1096772" data-name="Trazado 1096772" d="M176.118,281.054a.528.528,0,0,1-.528-.528v-3.618a.528.528,0,1,1,1.056,0v3.618A.527.527,0,0,1,176.118,281.054Z" transform="translate(-175.59 -276.38)" fill="#7d8c48"/>
      </g>
      <g id="Grupo_1193737" data-name="Grupo 1193737" transform="translate(14.778 28.257)">
        <path id="Trazado_1096773" data-name="Trazado 1096773" d="M205.9,281.054a.528.528,0,0,1-.528-.528v-3.618a.528.528,0,1,1,1.056,0v3.618A.527.527,0,0,1,205.9,281.054Z" transform="translate(-205.37 -276.38)" fill="#7d8c48"/>
      </g>
      <g id="Grupo_1193738" data-name="Grupo 1193738" transform="translate(17.922 28.257)">
        <path id="Trazado_1096774" data-name="Trazado 1096774" d="M235.678,281.054a.528.528,0,0,1-.528-.528v-3.618a.528.528,0,1,1,1.056,0v3.618A.527.527,0,0,1,235.678,281.054Z" transform="translate(-235.15 -276.38)" fill="#7d8c48"/>
      </g>
      <g id="Grupo_1193739" data-name="Grupo 1193739" transform="translate(21.066 28.257)">
        <path id="Trazado_1096775" data-name="Trazado 1096775" d="M265.458,281.054a.528.528,0,0,1-.528-.528v-3.618a.528.528,0,1,1,1.056,0v3.618A.527.527,0,0,1,265.458,281.054Z" transform="translate(-264.93 -276.38)" fill="#7d8c48"/>
      </g>
      <g id="Grupo_1193740" data-name="Grupo 1193740" transform="translate(24.21 28.257)">
        <path id="Trazado_1096776" data-name="Trazado 1096776" d="M295.238,281.054a.528.528,0,0,1-.528-.528v-3.618a.528.528,0,1,1,1.056,0v3.618A.527.527,0,0,1,295.238,281.054Z" transform="translate(-294.71 -276.38)" fill="#7d8c48"/>
      </g>
      <g id="Grupo_1193741" data-name="Grupo 1193741" transform="translate(16.633 11.009)">
        <path id="Trazado_1096777" data-name="Trazado 1096777" d="M223.468,114.982a.528.528,0,0,1-.528-.528v-.916a.528.528,0,1,1,1.056,0v.916A.527.527,0,0,1,223.468,114.982Z" transform="translate(-222.94 -113.01)" fill="#7d8c48"/>
      </g>
      <g id="Grupo_1193742" data-name="Grupo 1193742" transform="translate(16.521 17.075)">
        <path id="Trazado_1096778" data-name="Trazado 1096778" d="M222.408,172.442a.528.528,0,0,1-.528-.528V171a.528.528,0,0,1,1.056,0v.916A.528.528,0,0,1,222.408,172.442Z" transform="translate(-221.88 -170.47)" fill="#7d8c48"/>
      </g>
      <g id="Grupo_1193743" data-name="Grupo 1193743" transform="translate(15.259 11.925)">
        <path id="Trazado_1096779" data-name="Trazado 1096779" d="M211.643,127.9l-.1,0a1.671,1.671,0,0,1-1.616-1.848.528.528,0,0,1,.528-.523h.005a.528.528,0,0,1,.523.533c-.005.506.2.761.613.782.436.021.892-.248.92-.547,0-.007,0-.014,0-.021.079-.606-.825-.967-1.006-1.034-1.243-.452-1.753-1.144-1.514-2.058a1.87,1.87,0,0,1,2.093-1.472,1.761,1.761,0,0,1,1.527,1.866.528.528,0,0,1-1.056-.038.715.715,0,0,0-.625-.782.812.812,0,0,0-.917.694c-.041.156-.116.448.853.8,1.176.428,1.809,1.232,1.693,2.153a1.866,1.866,0,0,1-1.924,1.5Z" transform="translate(-209.929 -121.691)" fill="#7d8c48"/>
      </g>
      <g id="Grupo_1193744" data-name="Grupo 1193744" transform="translate(11.141 9.064)">
        <path id="Trazado_1096780" data-name="Trazado 1096780" d="M176.884,106.518a5.964,5.964,0,1,1,5.964-5.964A5.971,5.971,0,0,1,176.884,106.518Zm0-10.873a4.908,4.908,0,1,0,4.908,4.908A4.914,4.914,0,0,0,176.884,95.646Z" transform="translate(-170.92 -94.59)" fill="#7d8c48"/>
      </g>
    </g>
  </g>
</svg>
