<svg xmlns="http://www.w3.org/2000/svg" width="74" height="75" viewBox="0 0 74 75">
  <g id="Grupo_1193771" data-name="Grupo 1193771" transform="translate(-0.333)">
    <ellipse id="Elipse_13836" data-name="Elipse 13836" cx="37" cy="37.5" rx="37" ry="37.5" transform="translate(0.333)" fill="#b8dcf3"/>
    <g id="cuestionario" transform="translate(16.829 16.833)">
      <path id="Trazado_1096666" data-name="Trazado 1096666" d="M9.784,6a4.784,4.784,0,1,0,4.784,4.784A4.784,4.784,0,0,0,9.784,6Zm0,8.2A3.417,3.417,0,1,1,13.2,10.784,3.417,3.417,0,0,1,9.784,14.2Z" transform="translate(-1.583 -1.899)" fill="#20849e"/>
      <path id="Trazado_1096667" data-name="Trazado 1096667" d="M9.784,22a4.784,4.784,0,1,0,4.784,4.784A4.784,4.784,0,0,0,9.784,22Zm0,8.2A3.417,3.417,0,1,1,13.2,26.784,3.417,3.417,0,0,1,9.784,30.2Z" transform="translate(-1.583 -6.963)" fill="#20849e"/>
      <path id="Trazado_1096668" data-name="Trazado 1096668" d="M9.784,38a4.784,4.784,0,1,0,4.784,4.784A4.784,4.784,0,0,0,9.784,38Zm0,8.2A3.417,3.417,0,1,1,13.2,42.784,3.417,3.417,0,0,1,9.784,46.2Z" transform="translate(-1.583 -12.027)" fill="#20849e"/>
      <path id="Trazado_1096669" data-name="Trazado 1096669" d="M11.871,10.273l-1.577,2.1-.126-.126a.683.683,0,1,0-.967.967l.684.683a.683.683,0,0,0,.483.2h.049a.683.683,0,0,0,.5-.273l2.05-2.734a.683.683,0,1,0-1.094-.82Z" transform="translate(-2.849 -3.165)" fill="#20849e"/>
      <path id="Trazado_1096670" data-name="Trazado 1096670" d="M11.871,26.273l-1.577,2.1-.126-.126a.683.683,0,1,0-.967.967l.684.683a.684.684,0,0,0,.483.2h.049a.684.684,0,0,0,.5-.273l2.05-2.734a.683.683,0,0,0-1.094-.82Z" transform="translate(-2.849 -8.229)" fill="#20849e"/>
      <path id="Trazado_1096671" data-name="Trazado 1096671" d="M11.871,42.273l-1.577,2.1-.126-.126a.683.683,0,1,0-.967.967l.684.683a.684.684,0,0,0,.483.2h.049a.684.684,0,0,0,.5-.273l2.05-2.734a.683.683,0,0,0-1.094-.82Z" transform="translate(-2.849 -13.293)" fill="#20849e"/>
      <path id="Trazado_1096672" data-name="Trazado 1096672" d="M21.683,9.367h4.1a.683.683,0,0,0,0-1.367h-4.1a.683.683,0,0,0,0,1.367Z" transform="translate(-6.647 -2.532)" fill="#20849e"/>
      <path id="Trazado_1096673" data-name="Trazado 1096673" d="M21.683,13.367h8.885a.683.683,0,0,0,0-1.367H21.683a.683.683,0,0,0,0,1.367Z" transform="translate(-6.647 -3.798)" fill="#20849e"/>
      <path id="Trazado_1096674" data-name="Trazado 1096674" d="M21.683,17.367h6.835a.683.683,0,0,0,0-1.367H21.683a.683.683,0,0,0,0,1.367Z" transform="translate(-6.647 -5.064)" fill="#20849e"/>
      <path id="Trazado_1096675" data-name="Trazado 1096675" d="M21.683,25.367h2.734a.683.683,0,0,0,0-1.367H21.683a.683.683,0,0,0,0,1.367Z" transform="translate(-6.647 -7.596)" fill="#20849e"/>
      <path id="Trazado_1096676" data-name="Trazado 1096676" d="M28.707,15.072V6.151a.683.683,0,0,0-.2-.483L23.038.2a.683.683,0,0,0-.483-.2H2.05A2.05,2.05,0,0,0,0,2.05V37.592a2.05,2.05,0,0,0,2.05,2.05H22.259a12.973,12.973,0,1,0,6.448-24.571ZM23.239,2.333l3.134,3.135H23.922a.683.683,0,0,1-.683-.683ZM2.05,38.276a.683.683,0,0,1-.683-.683V2.05a.683.683,0,0,1,.683-.683H21.872V4.784a2.05,2.05,0,0,0,2.05,2.05H27.34v8.237a12.934,12.934,0,0,0-8.761,4.066H15.037a.683.683,0,0,0,0,1.367h2.418a12.864,12.864,0,0,0-.864,1.367H15.037a.683.683,0,0,0,0,1.367h.925a12.872,12.872,0,0,0-.889,4.1h-.036a.683.683,0,0,0,0,1.367h.035a12.84,12.84,0,0,0,.144,1.367h-.178a.683.683,0,0,0,0,1.367h.472a12.756,12.756,0,0,0,.453,1.367h-.925a.683.683,0,0,0,0,1.367H16.59a13.055,13.055,0,0,0,3.491,4.1Zm25.973,1.367A11.619,11.619,0,1,1,39.642,28.023,11.619,11.619,0,0,1,28.023,39.643Z" transform="translate(0)" fill="#20849e"/>
      <path id="Trazado_1096677" data-name="Trazado 1096677" d="M37.835,26A6.842,6.842,0,0,0,31,32.835a2.05,2.05,0,1,0,4.1,0,2.734,2.734,0,1,1,2.734,2.734,2.05,2.05,0,0,0-2.05,2.05v1.367a2.05,2.05,0,0,0,4.065.382A6.835,6.835,0,0,0,37.835,26Zm1.214,12.17a.683.683,0,0,0-.53.666v.15a.683.683,0,1,1-1.367,0V37.619a.683.683,0,0,1,.683-.683,4.1,4.1,0,1,0-4.1-4.1.683.683,0,1,1-1.367,0,5.468,5.468,0,1,1,6.682,5.335Z" transform="translate(-9.812 -8.229)" fill="#20849e"/>
      <path id="Trazado_1096678" data-name="Trazado 1096678" d="M40.05,50a2.05,2.05,0,1,0,2.05,2.05A2.05,2.05,0,0,0,40.05,50Zm0,2.734a.683.683,0,1,1,.683-.683A.683.683,0,0,1,40.05,52.734Z" transform="translate(-12.027 -15.825)" fill="#20849e"/>
    </g>
  </g>
</svg>
