<svg xmlns="http://www.w3.org/2000/svg" width="124" height="124" viewBox="0 0 124 124">
  <g id="Grupo_1193767" data-name="Grupo 1193767" transform="translate(-1616.303 9729.418)">
    <g id="Grupo_1193765" data-name="Grupo 1193765" transform="translate(-193.284 54)">
      <g id="Grupo_1193759" data-name="Grupo 1193759" transform="translate(9192.445 -158.963)">
        <g id="Grupo_1190972" data-name="Grupo 1190972" transform="translate(-7776.207 -17585.906)">
          <g id="Grupo_1190808" data-name="Grupo 1190808" transform="translate(-708.875 4775)">
            <circle id="Elipse_11474" data-name="Elipse 11474" cx="62" cy="62" r="62" transform="translate(1102.223 3186.452)" fill="#b8dcf3"/>
          </g>
        </g>
      </g>
      <path id="reservar" d="M60.517,64.284h-.965l1.475-3.575a9.757,9.757,0,0,0,.768-3.886V40.231a3.568,3.568,0,0,0-3.223-3.545A8.542,8.542,0,0,0,55.6,20.135H30.364a16.386,16.386,0,1,0,0,17.084h8.922v8.921l-1.911-3.311A3.57,3.57,0,0,0,32.554,41.5l-.053.029a3.571,3.571,0,0,0-1.3,4.87l6.989,12.1a7.775,7.775,0,0,1,1.1,4.1v1.686H37.828a1.7,1.7,0,0,0-1.7,1.7v5.668a1.7,1.7,0,0,0,1.7,1.7H60.517a1.7,1.7,0,0,0,1.7-1.7V65.985a1.7,1.7,0,0,0-1.7-1.7ZM16.385,43.057A14.382,14.382,0,1,1,30.767,28.675,14.4,14.4,0,0,1,16.385,43.057Zm15.022-7.84a16.363,16.363,0,0,0,0-13.079H55.6a6.54,6.54,0,0,1,0,13.079h-.227a3.555,3.555,0,0,0-3.832-.46,3.565,3.565,0,0,0-5.128-3.147v-3.5a3.565,3.565,0,1,0-7.131,0v7.1H31.407ZM39.92,57.5,32.932,45.4a1.563,1.563,0,1,1,2.707-1.563l3.778,6.548a1,1,0,0,0,1.869-.5V28.114a1.562,1.562,0,1,1,3.124,0V44.95a1,1,0,1,0,2,0V34.815a1.562,1.562,0,1,1,3.124,0V46.35a1,1,0,1,0,2,0V37.962a1.562,1.562,0,0,1,2.666-1.1.849.849,0,0,0,.064.07,1.556,1.556,0,0,1,.395,1.035V49.146a1,1,0,1,0,2,0V40.232a1.56,1.56,0,0,1,3.121,0V56.823a7.85,7.85,0,0,1-.616,3.123l-1.79,4.338h-16.1V62.6a9.756,9.756,0,0,0-1.362-5.1ZM60.212,71.351H38.13V66.287H60.212ZM25.791,22.207a3.2,3.2,0,0,0-4.518,0L15.11,28.371,11.5,24.757a3.193,3.193,0,1,0-4.513,4.518l5.871,5.871a3.194,3.194,0,0,0,4.518,0l8.42-8.42a3.2,3.2,0,0,0,0-4.518Zm-1.417,3.1-8.42,8.42a1.192,1.192,0,0,1-1.684,0L8.4,27.856a1.19,1.19,0,0,1,1.682-1.683L14.4,30.5a1,1,0,0,0,1.416,0l6.872-6.872a1.191,1.191,0,0,1,1.684,1.684Z" transform="translate(1838.256 -9757.888)" fill="#20849e"/>
    </g>
  </g>
</svg>
