<svg xmlns="http://www.w3.org/2000/svg" width="124" height="124" viewBox="0 0 124 124">
  <g id="Grupo_1193764" data-name="Grupo 1193764" transform="translate(-1518.299 9783.417)">
    <g id="Grupo_1193367" data-name="Grupo 1193367" transform="translate(8901.158 -158.963)">
      <g id="Grupo_1190972" data-name="Grupo 1190972" transform="translate(-7776.207 -17585.906)">
        <g id="Grupo_1190808" data-name="Grupo 1190808" transform="translate(-708.875 4775)">
          <circle id="Elipse_11474" data-name="Elipse 11474" cx="62" cy="62" r="62" transform="translate(1102.223 3186.452)" fill="#b8dcf3"/>
        </g>
      </g>
    </g>
    <g id="reserva_4_" data-name="reserva (4)" transform="translate(1558.237 -9753.488)">
      <path id="Trazado_1096711" data-name="Trazado 1096711" d="M348.878,233.773a1.253,1.253,0,0,0-1.766.141l-1.369,1.607-.733-.569a1.253,1.253,0,1,0-1.536,1.98l1.678,1.3a1.253,1.253,0,0,0,1.722-.177l2.145-2.518A1.253,1.253,0,0,0,348.878,233.773Z" transform="translate(-310.03 -204.224)" fill="#20849e"/>
      <path id="Trazado_1096712" data-name="Trazado 1096712" d="M162.295,43.676h14.384a1.253,1.253,0,0,0,0-2.506H162.295a1.253,1.253,0,0,0,0,2.506Z" transform="translate(-150.876 -36.012)" fill="#20849e"/>
      <path id="Trazado_1096713" data-name="Trazado 1096713" d="M219.7,169.707a1.253,1.253,0,0,0-1.253,1.253v2.518a1.253,1.253,0,1,0,2.506,0V170.96A1.253,1.253,0,0,0,219.7,169.707Z" transform="translate(-201.092 -148.446)" fill="#20849e"/>
      <path id="Trazado_1096714" data-name="Trazado 1096714" d="M168.384,169.707a1.253,1.253,0,0,0-1.253,1.253v2.518a1.253,1.253,0,1,0,2.506,0V170.96A1.253,1.253,0,0,0,168.384,169.707Z" transform="translate(-156.203 -148.446)" fill="#20849e"/>
      <path id="Trazado_1096715" data-name="Trazado 1096715" d="M271.023,174.731a1.253,1.253,0,0,0,1.253-1.253V170.96a1.253,1.253,0,1,0-2.506,0v2.518A1.253,1.253,0,0,0,271.023,174.731Z" transform="translate(-245.983 -148.446)" fill="#20849e"/>
      <path id="Trazado_1096716" data-name="Trazado 1096716" d="M219.7,233.868a1.253,1.253,0,0,0-1.253,1.253v2.518a1.253,1.253,0,1,0,2.506,0v-2.518A1.253,1.253,0,0,0,219.7,233.868Z" transform="translate(-201.092 -204.569)" fill="#20849e"/>
      <path id="Trazado_1096717" data-name="Trazado 1096717" d="M168.384,233.868a1.253,1.253,0,0,0-1.253,1.253v2.518a1.253,1.253,0,1,0,2.506,0v-2.518A1.253,1.253,0,0,0,168.384,233.868Z" transform="translate(-156.203 -204.569)" fill="#20849e"/>
      <path id="Trazado_1096718" data-name="Trazado 1096718" d="M271.023,238.892a1.253,1.253,0,0,0,1.253-1.253v-2.518a1.253,1.253,0,1,0-2.506,0v2.518A1.253,1.253,0,0,0,271.023,238.892Z" transform="translate(-245.983 -204.569)" fill="#20849e"/>
      <path id="Trazado_1096719" data-name="Trazado 1096719" d="M124.022,31.811a8.044,8.044,0,0,0-6.9-7.953V6.706A6.714,6.714,0,0,0,110.413,0H86.6A6.714,6.714,0,0,0,79.9,6.706v50.73A6.714,6.714,0,0,0,86.6,64.143h23.808a6.714,6.714,0,0,0,6.706-6.706V39.764a8.044,8.044,0,0,0,6.9-7.953ZM86.6,2.506h23.808a4.206,4.206,0,0,1,4.2,4.2V23.9a8.018,8.018,0,0,0-4.233,2.171V16.326a1.253,1.253,0,0,0-1.253-1.253H87.889a1.253,1.253,0,0,0-1.253,1.253V47.838a1.253,1.253,0,0,0,.069,2.5h23.606a1.253,1.253,0,0,0,.069-2.5V37.554a8.018,8.018,0,0,0,4.233,2.171V54.706H82.4v-48a4.206,4.206,0,0,1,4.2-4.2Zm14.49,45.33H95.923V40.418h5.171Zm1.253-9.924H94.67a1.253,1.253,0,0,0-1.253,1.253v8.671H89.142V17.579h18.733V47.835H103.6V39.165A1.253,1.253,0,0,0,102.347,37.912Zm8.066,23.726H86.6a4.206,4.206,0,0,1-4.2-4.2v-.226h32.21v.226A4.206,4.206,0,0,1,110.413,61.638Zm5.578-24.3a5.526,5.526,0,1,1,5.526-5.526A5.532,5.532,0,0,1,115.99,37.337Z" transform="translate(-79.898 0)" fill="#20849e"/>
    </g>
  </g>
</svg>
