<svg xmlns="http://www.w3.org/2000/svg" xmlns:xlink="http://www.w3.org/1999/xlink" width="88.348" height="88.348" viewBox="0 0 88.348 88.348">
  <defs>
    <filter id="Elipse_13737" x="0" y="0" width="88.348" height="88.348" filterUnits="userSpaceOnUse">
      <feOffset dy="3" input="SourceAlpha"/>
      <feGaussianBlur stdDeviation="3" result="blur"/>
      <feFlood flood-opacity="0.161"/>
      <feComposite operator="in" in2="blur"/>
      <feComposite in="SourceGraphic"/>
    </filter>
  </defs>
  <g id="Grupo_1193414" data-name="Grupo 1193414" transform="translate(4164.05 10612.935)">
    <g id="Grupo_1190317" data-name="Grupo 1190317" transform="translate(-4155.05 -10606.935)">
      <g transform="matrix(1, 0, 0, 1, -9, -6)" filter="url(#Elipse_13737)">
        <circle id="Elipse_13737-2" data-name="Elipse 13737" cx="35.174" cy="35.174" r="35.174" transform="translate(9 6)" fill="#fff"/>
      </g>
    </g>
    <g id="alerta" transform="translate(-4139.36 -10593.216)">
      <g id="Grupo_1193400" data-name="Grupo 1193400" transform="translate(27.713 20.561)">
        <path id="Trazado_1095840" data-name="Trazado 1095840" d="M20.864,22.228a5.364,5.364,0,1,1,5.364-5.364A5.37,5.37,0,0,1,20.864,22.228Zm0-8.94a3.576,3.576,0,1,0,3.576,3.576A3.579,3.579,0,0,0,20.864,13.288Z" transform="translate(-15.5 -11.5)" fill="#c5a07a"/>
      </g>
      <g id="Grupo_1193401" data-name="Grupo 1193401" transform="translate(23.243 33.971)">
        <path id="Trazado_1095841" data-name="Trazado 1095841" d="M31.773,27.94a.894.894,0,0,1-.894-.894V23.47A2.685,2.685,0,0,0,28.2,20.788H17.47a2.685,2.685,0,0,0-2.682,2.682v3.576a.894.894,0,1,1-1.788,0V23.47A4.474,4.474,0,0,1,17.47,19H28.2a4.474,4.474,0,0,1,4.47,4.47v3.576A.894.894,0,0,1,31.773,27.94Z" transform="translate(-13 -19)" fill="#c5a07a"/>
      </g>
      <g id="Grupo_1193402" data-name="Grupo 1193402" transform="translate(0)">
        <path id="Trazado_1095842" data-name="Trazado 1095842" d="M20.561,28.607a.894.894,0,0,1-.606-.238L14.4,23.243H4.47A4.474,4.474,0,0,1,0,18.773V4.47A4.474,4.474,0,0,1,4.47,0H22.349a4.474,4.474,0,0,1,4.47,4.47v14.3a4.474,4.474,0,0,1-4.47,4.47h-.894v4.47a.9.9,0,0,1-.894.894ZM4.47,1.788A2.685,2.685,0,0,0,1.788,4.47v14.3A2.685,2.685,0,0,0,4.47,21.455H14.75a.886.886,0,0,1,.606.238l4.311,3.978V22.349a.894.894,0,0,1,.894-.894h1.788a2.685,2.685,0,0,0,2.682-2.682V4.47a2.685,2.685,0,0,0-2.682-2.682Z" transform="translate(0)" fill="#c5a07a"/>
      </g>
      <g id="Grupo_1193403" data-name="Grupo 1193403" transform="translate(3.576 26.819)">
        <path id="Trazado_1095843" data-name="Trazado 1095843" d="M5.576,22.152a3.576,3.576,0,1,1,3.576-3.576A3.579,3.579,0,0,1,5.576,22.152Zm0-5.364a1.788,1.788,0,1,0,1.788,1.788A1.789,1.789,0,0,0,5.576,16.788Z" transform="translate(-2 -15)" fill="#c5a07a"/>
      </g>
      <g id="Grupo_1193404" data-name="Grupo 1193404" transform="translate(0 35.759)">
        <path id="Trazado_1095844" data-name="Trazado 1095844" d="M13.41,27.152a.894.894,0,0,1-.894-.894V24.47a2.685,2.685,0,0,0-2.682-2.682H4.47A2.685,2.685,0,0,0,1.788,24.47v1.788a.894.894,0,1,1-1.788,0V24.47A4.474,4.474,0,0,1,4.47,20H9.834a4.474,4.474,0,0,1,4.47,4.47v1.788A.894.894,0,0,1,13.41,27.152Z" transform="translate(0 -20)" fill="#c5a07a"/>
      </g>
      <g id="Grupo_1193405" data-name="Grupo 1193405" transform="translate(12.516 5.364)">
        <path id="Trazado_1095845" data-name="Trazado 1095845" d="M7.894,11.94A.894.894,0,0,1,7,11.046V3.894a.894.894,0,1,1,1.788,0v7.152A.894.894,0,0,1,7.894,11.94Z" transform="translate(-7 -3)" fill="#c5a07a"/>
      </g>
      <g id="Grupo_1193406" data-name="Grupo 1193406" transform="translate(12.873 16.306)">
        <circle id="Elipse_13831" data-name="Elipse 13831" cx="1" cy="1" r="1" transform="translate(0.127 -0.455)" fill="#c5a07a"/>
      </g>
    </g>
  </g>
</svg>
