<svg xmlns="http://www.w3.org/2000/svg" width="76.652" height="76.649" viewBox="0 0 76.652 76.649">
  <g id="analisis-de-los-datos" transform="translate(-1 -1)">
    <path id="Trazado_1096624" data-name="Trazado 1096624" d="M73.94,55.4a3.709,3.709,0,0,0,3.709-3.709V4.709A3.709,3.709,0,0,0,73.94,1H4.709A3.709,3.709,0,0,0,1,4.709V51.687A3.709,3.709,0,0,0,4.709,55.4H26.467a21.111,21.111,0,0,0,10.108,8.413l-3.944,3.95H28.2V64.05a3.709,3.709,0,0,0-3.709-3.709H9.654A3.709,3.709,0,0,0,5.945,64.05v9.89a3.709,3.709,0,0,0,3.709,3.709H24.489A3.709,3.709,0,0,0,28.2,73.94V70.232h4.945a1.236,1.236,0,0,0,.874-.362l5.219-5.219a20.662,20.662,0,0,0,16.147-2.579L58.6,65.286l-.362.362a1.236,1.236,0,0,0,0,1.748l8.354,8.354a6.481,6.481,0,0,0,9.166-9.166L67.4,58.231a1.236,1.236,0,0,0-1.748,0l-.366.362-3.2-3.2ZM25.726,73.94a1.236,1.236,0,0,1-1.236,1.236H9.654A1.236,1.236,0,0,1,8.418,73.94V64.05a1.236,1.236,0,0,1,1.236-1.236H24.489a1.236,1.236,0,0,1,1.236,1.236ZM4.709,52.924a1.236,1.236,0,0,1-1.236-1.236V4.709A1.236,1.236,0,0,1,4.709,3.473H73.94a1.236,1.236,0,0,1,1.236,1.236V51.687a1.236,1.236,0,0,1-1.236,1.236H63.4a20.939,20.939,0,0,0-10.569-27.83l6.274-6.274v3.2h2.473V15.835A1.236,1.236,0,0,0,60.341,14.6H54.16v2.473h3.2l-7.07,7.07a20.908,20.908,0,0,0-5.31-.853l-5.84-9.345a1.236,1.236,0,0,0-1.048-.581H33.143V9.654a3.709,3.709,0,0,0-3.709-3.709H14.6A3.709,3.709,0,0,0,10.89,9.654v9.89A3.709,3.709,0,0,0,14.6,23.253H29.434a3.709,3.709,0,0,0,3.709-3.709V15.835H37.4l4.705,7.529a20.981,20.981,0,0,0-13.731,7.193l-1.731-1.945a1.236,1.236,0,0,0-.915-.414h-.006a1.236,1.236,0,0,0-.911.4l-13.6,14.835,1.822,1.671L25.712,31.279l1.124,1.266A20.741,20.741,0,0,0,23.6,47.979H8.418V14.6H5.945V49.215a1.236,1.236,0,0,0,1.236,1.236h17a20.645,20.645,0,0,0,.956,2.473ZM30.671,9.654v9.89a1.236,1.236,0,0,1-1.236,1.236H14.6a1.236,1.236,0,0,1-1.236-1.236V9.654A1.236,1.236,0,0,1,14.6,8.418H29.434A1.236,1.236,0,0,1,30.671,9.654ZM25.726,44.27A18.544,18.544,0,1,1,44.27,62.814,18.544,18.544,0,0,1,25.726,44.27ZM74,68.333A4.009,4.009,0,1,1,68.332,74l-7.479-7.48,5.67-5.67ZM60.341,63.538l-2.909-2.909a21.127,21.127,0,0,0,3.2-3.2l2.909,2.909Z" transform="translate(0 0)" fill="#b3c867"/>
    <path id="Trazado_1096625" data-name="Trazado 1096625" d="M39.072,23A16.072,16.072,0,1,0,55.143,39.072,16.072,16.072,0,0,0,39.072,23Zm-.539,2.5-8.062,8.062-2.3-2.586A13.569,13.569,0,0,1,38.533,25.5Zm.539,27.171a13.6,13.6,0,0,1-12.1-7.418H41.544V42.78H26a13.389,13.389,0,0,1,.831-9.592l2.663,3a1.236,1.236,0,0,0,.889.414h.036a1.236,1.236,0,0,0,.874-.362L41.783,25.746a13.6,13.6,0,0,1-2.711,26.925Z" transform="translate(5.198 5.198)" fill="#b3c867"/>
    <path id="Trazado_1096626" data-name="Trazado 1096626" d="M13,9H25.363v2.473H13Z" transform="translate(2.835 1.89)" fill="#b3c867"/>
    <path id="Trazado_1096627" data-name="Trazado 1096627" d="M13,13H25.363v2.473H13Z" transform="translate(2.835 2.835)" fill="#b3c867"/>
    <path id="Trazado_1096628" data-name="Trazado 1096628" d="M9,53H21.363v2.473H9Z" transform="translate(1.89 12.286)" fill="#b3c867"/>
    <path id="Trazado_1096629" data-name="Trazado 1096629" d="M9,57H21.363v2.473H9Z" transform="translate(1.89 13.232)" fill="#b3c867"/>
  </g>
</svg>
