<svg xmlns="http://www.w3.org/2000/svg" width="72" height="73.452" viewBox="0 0 72 73.452">
  <g id="aceptar" transform="translate(-8.112 -9.999)">
    <path id="Trazado_1096619" data-name="Trazado 1096619" d="M70.727,70.666c-.167-4.942-2.233-8.494-3.43-11.293-.978-2.284-3.423-2.761-5.405-2.471a5.154,5.154,0,0,0-5.534-1.422A6.964,6.964,0,0,0,50.3,54.45c-1.622-4.871-3.217-9.582-4.588-12.728C44.556,39.1,42.986,35.506,38.9,36.8c-3.906,1.229-2.909,6-2.426,8.288C38.816,56.2,39.46,61.973,39.46,62.037c.309,2.574.3,2.876-.129,3.263A22.945,22.945,0,0,1,34.7,63.633c-4.723-2.021-8.005-1.705-9.743.959-1.808,2.767-1.049,6.306,3.4,8.3,5.45,2.439,9.723,7.78,13.018,12.548,2.053,2.967,4.646,4.5,7.722,4.652a10.11,10.11,0,0,1,.837,1.93,1.294,1.294,0,0,0,2.1.541A24.26,24.26,0,0,1,60.7,87.79c5.09-1.532,6.866-1.409,7.181-1.364a1.21,1.21,0,0,0,1.68-1.287c0-.238-.1-2.349-.219-3.217.039-1.042,1.557-6.081,1.39-11.255ZM66.75,82.2c.051.335.1,1,.135,1.654a31.57,31.57,0,0,0-6.956,1.474A27.226,27.226,0,0,0,51.686,89.5c-.952-1.931-1.815-1.969-2.188-1.969-4.054,0-5.92-3.539-6.171-3.79-1.93-2.761-6.969-10.084-13.919-13.2-2.124-.952-3.6-2.574-2.3-4.543.36-.541,1.441-2.2,6.589,0,4.363,1.866,6,2.336,7.078,1.435,1.75-1.422,1.583-2.767,1.229-5.708,0-.064-.689-5.985-3.037-17.169-.721-3.436-.528-4.929.682-5.309,1.641-.515,2.291.328,3.674,3.5,1.673,3.81,4.5,12.432,5.791,16.454a1.287,1.287,0,0,0,2.445-.8c-.032-.1-.212-.643-.5-1.5,2.471-.592,4.4.643,4.82,2.233a1.287,1.287,0,1,0,2.5-.6A4.009,4.009,0,0,0,58.2,58a2.169,2.169,0,0,1,1.435.315A5.2,5.2,0,0,1,60.759,60a1.287,1.287,0,0,0,2.51-.489,1.733,1.733,0,0,1,1.725.946c1.229,2.535,3.037,5.708,3.217,10.3.122,5.476-1.647,10.122-1.461,11.448Z" transform="translate(-5.68 -9.457)" fill="#fec190"/>
    <path id="Trazado_1096620" data-name="Trazado 1096620" d="M24.835,43.462a14.8,14.8,0,0,0,3.52-.309,1.289,1.289,0,0,0-.644-2.5,12.748,12.748,0,0,1-2.876.232A14.157,14.157,0,1,1,38.96,25.753a1.29,1.29,0,1,0,2.574-.174,16.731,16.731,0,1,0-16.7,17.883Z" transform="translate(0 0)" fill="#fec190"/>
    <path id="Trazado_1096621" data-name="Trazado 1096621" d="M101.462,26.763a16.731,16.731,0,1,0-16.7,16.7,16.731,16.731,0,0,0,16.7-16.7Zm-16.7,14.125A14.157,14.157,0,1,1,98.92,26.731,14.157,14.157,0,0,1,84.763,40.888Z" transform="translate(-21.35)" fill="#fec190"/>
    <path id="Trazado_1096622" data-name="Trazado 1096622" d="M35.834,26.987,27.32,35.5l-4.659-4.659a1.287,1.287,0,0,0-1.815,1.8l5.566,5.573a1.287,1.287,0,0,0,1.821,0l9.421-9.434a1.288,1.288,0,1,0-1.821-1.821Z" transform="translate(-4.442 -5.912)" fill="#fec190"/>
    <path id="Trazado_1096623" data-name="Trazado 1096623" d="M97,24.441a1.287,1.287,0,0,0-1.815,0L89.719,29.9l-5.463-5.457a1.287,1.287,0,1,0-1.815,1.815L87.9,31.719l-5.457,5.463A1.287,1.287,0,1,0,84.255,39l5.463-5.457L95.182,39A1.287,1.287,0,1,0,97,37.182L91.54,31.719,97,26.255A1.287,1.287,0,0,0,97,24.441Z" transform="translate(-26.338 -4.988)" fill="#fec190"/>
  </g>
</svg>
