<svg xmlns="http://www.w3.org/2000/svg" width="124" height="124" viewBox="0 0 124 124">
  <g id="Grupo_1193373" data-name="Grupo 1193373" transform="translate(7324.333 9746.885)">
    <g id="Grupo_1193367" data-name="Grupo 1193367" transform="translate(58.525 -122.431)">
      <g id="Grupo_1190972" data-name="Grupo 1190972" transform="translate(-7776.207 -17585.906)">
        <g id="Grupo_1190808" data-name="Grupo 1190808" transform="translate(-708.875 4775)">
          <circle id="Elipse_11474" data-name="Elipse 11474" cx="62" cy="62" r="62" transform="translate(1102.223 3186.452)" fill="#b8dcf3"/>
        </g>
      </g>
    </g>
    <g id="tarifa" transform="translate(-7296.194 -9705.141)">
      <g id="Grupo_1193363" data-name="Grupo 1193363" transform="translate(0 0)">
        <path id="Trazado_1095767" data-name="Trazado 1095767" d="M273.492,124.66a1.323,1.323,0,0,0-1.323-1.323H250.738a1.323,1.323,0,0,0-1.323,1.323v5.291a1.323,1.323,0,0,0,1.323,1.323h21.431a1.323,1.323,0,0,0,1.323-1.323Zm-2.645,3.968H252.06v-2.645h18.786Z" transform="translate(-216.426 -112.101)" fill="#20849e"/>
        <path id="Trazado_1095768" data-name="Trazado 1095768" d="M273.492,211.708a1.323,1.323,0,0,0-1.323-1.323H250.738a1.323,1.323,0,1,0,0,2.645h21.431A1.323,1.323,0,0,0,273.492,211.708Z" transform="translate(-216.426 -187.635)" fill="#20849e"/>
        <path id="Trazado_1095769" data-name="Trazado 1095769" d="M250.738,257.433a1.323,1.323,0,1,0,0,2.645H255.2a1.323,1.323,0,0,0,0-2.645Z" transform="translate(-216.426 -228.46)" fill="#20849e"/>
        <path id="Trazado_1095770" data-name="Trazado 1095770" d="M52.433,106.385a12.433,12.433,0,1,0,12.433,12.433,12.447,12.447,0,0,0-12.433-12.433Zm-6.04,20.126a4.386,4.386,0,0,1,4.351-3.88h3.379a4.386,4.386,0,0,1,4.351,3.88,9.756,9.756,0,0,1-12.081,0Zm8.231-8.716a2.191,2.191,0,1,1-4.381,0v-1.26a2.191,2.191,0,1,1,4.381,0Zm5.953,6.445A7.062,7.062,0,0,0,56.5,120.4a4.806,4.806,0,0,0,.766-2.607v-1.26a4.836,4.836,0,0,0-9.672,0v1.26a4.805,4.805,0,0,0,.766,2.607,7.064,7.064,0,0,0-4.074,3.838,9.788,9.788,0,1,1,16.288,0Z" transform="translate(-34.709 -97.391)" fill="#20849e"/>
        <path id="Trazado_1095771" data-name="Trazado 1095771" d="M62.43,69.873V45a6.621,6.621,0,0,0-6.613-6.613h-16a1.323,1.323,0,1,0,0,2.645h16A3.972,3.972,0,0,1,59.784,45V68.1A14.76,14.76,0,0,0,38.42,78.594H6.613a3.972,3.972,0,0,1-3.968-3.968V45A3.972,3.972,0,0,1,6.613,41.03H27.908a1.323,1.323,0,1,0,0-2.645H6.613A6.621,6.621,0,0,0,0,45V74.626a6.621,6.621,0,0,0,6.613,6.613H38.193A14.764,14.764,0,1,0,62.43,69.873ZM52.956,93.306A12.119,12.119,0,1,1,65.075,81.187,12.133,12.133,0,0,1,52.956,93.306Z" transform="translate(0 -38.385)" fill="#20849e"/>
        <path id="Trazado_1095772" data-name="Trazado 1095772" d="M369.952,300.341a1.86,1.86,0,0,1,1.992,1.685,1.323,1.323,0,0,0,2.645,0,4.389,4.389,0,0,0-3.315-4.15v-.109a1.323,1.323,0,0,0-2.645,0v.109a4.389,4.389,0,0,0-3.315,4.15,4.5,4.5,0,0,0,4.637,4.331,1.709,1.709,0,1,1-1.992,1.685,1.323,1.323,0,0,0-2.645,0,4.389,4.389,0,0,0,3.317,4.151,1.321,1.321,0,0,0,2.64,0,4.389,4.389,0,0,0,3.317-4.151,4.5,4.5,0,0,0-4.637-4.331,1.709,1.709,0,1,1,0-3.371Z" transform="translate(-316.996 -262.311)" fill="#20849e"/>
        <ellipse id="Elipse_13830" data-name="Elipse 13830" cx="1" cy="1.5" rx="1" ry="1.5" transform="translate(32.72 0)" fill="#20849e"/>
      </g>
    </g>
  </g>
</svg>
