<svg xmlns="http://www.w3.org/2000/svg" width="124" height="124" viewBox="0 0 124 124">
  <g id="Grupo_1193572" data-name="Grupo 1193572" transform="translate(4234.643 6418.234)">
    <g id="Grupo_1192918" data-name="Grupo 1192918" transform="translate(3148.216 3206.22)">
      <g id="Grupo_1190972" data-name="Grupo 1190972" transform="translate(-7776.207 -17585.906)">
        <g id="Grupo_1190808" data-name="Grupo 1190808" transform="translate(-708.875 4775)">
          <circle id="Elipse_11474" data-name="Elipse 11474" cx="62" cy="62" r="62" transform="translate(1102.223 3186.452)" fill="#b8dcf3"/>
        </g>
      </g>
    </g>
    <g id="turista_2_" data-name="turista (2)" transform="translate(-4202.972 -6394)">
      <path id="Trazado_1096427" data-name="Trazado 1096427" d="M237.09,165.563h2.173a1.394,1.394,0,1,0,0-2.787h-1.147l.9-2.658a1.394,1.394,0,1,0-2.64-.894l-1.23,3.63a2.051,2.051,0,0,0,1.943,2.71Z" transform="translate(-207.632 -136.219)" fill="#20849e"/>
      <path id="Trazado_1096428" data-name="Trazado 1096428" d="M97.642,71.357a1.4,1.4,0,0,0,1.388-1.52l-.921-10.081a15.264,15.264,0,0,0-1.188-4.626,1.394,1.394,0,0,0-2.558,1.106,12.475,12.475,0,0,1,.971,3.778l.782,8.556H90.835V59.357a1.394,1.394,0,0,0-2.787,0v3.1H49.25v-3.1a1.394,1.394,0,0,0-2.787,0V68.57H41.281l.665-8.562A12.58,12.58,0,0,1,50.9,49.2l.02-.006,9.556-2.924a10.613,10.613,0,0,0,8.444,3.992,10.28,10.28,0,0,0,8.047-3.983l9.308,2.88a1.394,1.394,0,1,0,.824-2.663l-9.441-2.921-.846-6.038a14.477,14.477,0,0,0,5.491-7.285,3.8,3.8,0,0,0,1.778.44h3.769a3.824,3.824,0,0,0,3.82-3.82V19.383a3.824,3.824,0,0,0-3.656-3.816A20.307,20.307,0,0,0,81.522,4.812,19.723,19.723,0,0,0,68.647,0c-9.064-.135-17.455,6.732-19.37,15.564a3.824,3.824,0,0,0-3.669,3.815v7.488a3.825,3.825,0,0,0,3.82,3.821H53.2a3.794,3.794,0,0,0,1.778-.44,14.477,14.477,0,0,0,5.63,7.38l-.834,5.94-9.653,2.953A15.389,15.389,0,0,0,39.17,59.756c0,.008,0,.015,0,.023l-.782,10.076a1.4,1.4,0,0,0,1.389,1.5Zm-29-63.031A11.756,11.756,0,0,1,80.212,18.881,10.373,10.373,0,0,1,76.341,15.2a1.4,1.4,0,0,0-2.586.721v2.8a10.1,10.1,0,0,1-7.71-4.463,1.394,1.394,0,0,0-2.613.674v2.547a8.932,8.932,0,0,1-4.467-3.887,11.637,11.637,0,0,1,9.682-5.263ZM88.884,19.383v7.488A1.034,1.034,0,0,1,87.852,27.9H84.083a1.034,1.034,0,0,1-1.033-1.033V19.383a1.042,1.042,0,0,1,1.033-1.033h3.769A1.034,1.034,0,0,1,88.884,19.383ZM57.591,6.922a16.858,16.858,0,0,1,22.11,0,17.512,17.512,0,0,1,5.44,8.642H84.083a3.829,3.829,0,0,0-1.6.353,14.414,14.414,0,0,0-27.678,0,3.871,3.871,0,0,0-1.607-.351H52.151a17.511,17.511,0,0,1,5.441-8.642Zm-3.362,19.95A1.034,1.034,0,0,1,53.2,27.9H49.428A1.034,1.034,0,0,1,48.4,26.87V19.382a1.033,1.033,0,0,1,1.033-1.032H53.2a1.037,1.037,0,0,1,1.033,1.033Zm2.787-1.2V19.944a10.882,10.882,0,0,1,.556-3.469,11.547,11.547,0,0,0,6.994,4.213,1.4,1.4,0,0,0,1.652-1.369v-.76a13.777,13.777,0,0,0,8.929,3.018,1.394,1.394,0,0,0,1.394-1.394v-.464a8.919,8.919,0,0,0,3.721,2.118v3.839a11.623,11.623,0,1,1-23.246,0Zm7.035,13.661A14.461,14.461,0,0,0,74.2,38.972l.75,5.349a7.419,7.419,0,0,1-6.061,3.153A7.841,7.841,0,0,1,62.482,44.3l.74-5.269q.41.166.83.306ZM49.25,65.245h38.8V68.57H49.25Z" transform="translate(-38.38 -0.002)" fill="#20849e"/>
      <path id="Trazado_1096429" data-name="Trazado 1096429" d="M414.115,354.4a1.333,1.333,0,0,0-.212.174,1.392,1.392,0,1,0,.212-.174Z" transform="translate(-361.223 -304.808)" fill="#20849e"/>
    </g>
  </g>
</svg>
