<svg xmlns="http://www.w3.org/2000/svg" width="105.006" height="105.006" viewBox="0 0 105.006 105.006">
  <g id="Grupo_1193757" data-name="Grupo 1193757" transform="translate(-2275.182 8859.275)">
    <g id="Grupo_1193750" data-name="Grupo 1193750" transform="translate(6359.018 1272.305)">
      <circle id="Elipse_11481" data-name="Elipse 11481" cx="52.503" cy="52.503" r="52.503" transform="translate(-4083.836 -10131.58)" fill="#e9f8fc"/>
    </g>
    <g id="conversacion" transform="translate(2297.109 -8838.359)">
      <g id="Grupo_1193700" data-name="Grupo 1193700" transform="translate(0 21.47)">
        <g id="Grupo_1193699" data-name="Grupo 1193699">
          <path id="Trazado_1096658" data-name="Trazado 1096658" d="M42.692,191.891a1.234,1.234,0,0,0-1.234,1.234v8.514a6.176,6.176,0,0,1-6.169,6.169H21.967a1.234,1.234,0,0,0-1.234,1.233l0,2.453-2.945-2.945a1.234,1.234,0,0,0-1.132-.741H8.637a6.176,6.176,0,0,1-6.169-6.169v-19a6.176,6.176,0,0,1,6.169-6.169H21.1a1.234,1.234,0,0,0,0-2.468H8.637A8.647,8.647,0,0,0,0,182.637v19a8.647,8.647,0,0,0,8.637,8.637h7.386l5.068,5.068a1.234,1.234,0,0,0,2.106-.872l0-4.2H35.289a8.647,8.647,0,0,0,8.637-8.637v-8.514A1.234,1.234,0,0,0,42.692,191.891Z" transform="translate(0 -174)" fill="#20849e"/>
        </g>
      </g>
      <g id="Grupo_1193702" data-name="Grupo 1193702" transform="translate(24.184)">
        <g id="Grupo_1193701" data-name="Grupo 1193701">
          <path id="Trazado_1096659" data-name="Trazado 1096659" d="M217.057,0h-3.123a17.934,17.934,0,0,0,0,35.868h3.123a17.968,17.968,0,0,0,4.552-.584l4.613,4.611a1.234,1.234,0,0,0,2.106-.873V31.883a18.106,18.106,0,0,0,4.714-5.812,17.741,17.741,0,0,0,1.949-8.138A17.954,17.954,0,0,0,217.057,0Zm9.295,30.3a1.234,1.234,0,0,0-.491.986v4.763l-3.019-3.018a1.233,1.233,0,0,0-1.235-.307,15.47,15.47,0,0,1-4.549.68h-3.123a15.466,15.466,0,0,1,0-30.932h3.123A15.467,15.467,0,0,1,226.351,30.3Z" transform="translate(-196)" fill="#20849e"/>
        </g>
      </g>
      <g id="Grupo_1193704" data-name="Grupo 1193704" transform="translate(38.801 8.645)">
        <g id="Grupo_1193703" data-name="Grupo 1193703">
          <path id="Trazado_1096660" data-name="Trazado 1096660" d="M324.9,74.919a5.236,5.236,0,0,0-4.844-4.843,5.184,5.184,0,0,0-3.932,1.392,5.243,5.243,0,0,0-1.66,3.819,1.234,1.234,0,1,0,2.468,0,2.757,2.757,0,0,1,2.954-2.749,2.757,2.757,0,0,1,.408,5.439,2.335,2.335,0,0,0-1.839,2.289V83.23a1.234,1.234,0,1,0,2.468,0V80.364A5.2,5.2,0,0,0,324.9,74.919Z" transform="translate(-314.462 -70.063)" fill="#20849e"/>
        </g>
      </g>
      <g id="Grupo_1193706" data-name="Grupo 1193706" transform="translate(42.791 25.459)">
        <g id="Grupo_1193705" data-name="Grupo 1193705">
          <path id="Trazado_1096661" data-name="Trazado 1096661" d="M348.906,206.692a1.235,1.235,0,1,0,.362.872A1.243,1.243,0,0,0,348.906,206.692Z" transform="translate(-346.8 -206.33)" fill="#20849e"/>
        </g>
      </g>
      <g id="Grupo_1193708" data-name="Grupo 1193708" transform="translate(6.663 38.25)">
        <g id="Grupo_1193707" data-name="Grupo 1193707">
          <path id="Trazado_1096662" data-name="Trazado 1096662" d="M81.269,310H55.234a1.234,1.234,0,0,0,0,2.468H81.269a1.234,1.234,0,1,0,0-2.468Z" transform="translate(-54 -310)" fill="#20849e"/>
        </g>
      </g>
      <g id="Grupo_1193710" data-name="Grupo 1193710" transform="translate(32.698 45.16)">
        <g id="Grupo_1193709" data-name="Grupo 1193709">
          <path id="Trazado_1096663" data-name="Trazado 1096663" d="M267.106,366.362a1.233,1.233,0,1,0,.362.872A1.243,1.243,0,0,0,267.106,366.362Z" transform="translate(-265 -366)" fill="#20849e"/>
        </g>
      </g>
      <g id="Grupo_1193712" data-name="Grupo 1193712" transform="translate(6.663 45.16)">
        <g id="Grupo_1193711" data-name="Grupo 1193711">
          <path id="Trazado_1096664" data-name="Trazado 1096664" d="M76.416,366H55.234a1.234,1.234,0,1,0,0,2.468H76.416a1.234,1.234,0,1,0,0-2.468Z" transform="translate(-54 -366)" fill="#20849e"/>
        </g>
      </g>
      <g id="Grupo_1193714" data-name="Grupo 1193714" transform="translate(6.663 31.341)">
        <g id="Grupo_1193713" data-name="Grupo 1193713">
          <path id="Trazado_1096665" data-name="Trazado 1096665" d="M73.249,254H55.234a1.234,1.234,0,1,0,0,2.468H73.249a1.234,1.234,0,1,0,0-2.468Z" transform="translate(-54 -254)" fill="#20849e"/>
        </g>
      </g>
    </g>
  </g>
</svg>
