<svg xmlns="http://www.w3.org/2000/svg" width="63.583" height="73.844" viewBox="0 0 63.583 73.844">
  <g id="turismo" transform="translate(-35.573)">
    <path id="Trazado_1095798" data-name="Trazado 1095798" d="M227.817,181.758a1.082,1.082,0,0,0-.051,1.529,5.321,5.321,0,0,0,7.645,0,1.082,1.082,0,1,0-1.58-1.478,3.16,3.16,0,0,1-4.485,0A1.081,1.081,0,0,0,227.817,181.758Z" transform="translate(-164.224 -155.294)" fill="#b3c867"/>
    <path id="Trazado_1095799" data-name="Trazado 1095799" d="M216.045,138.22a1.082,1.082,0,0,0-2.163,0v1.1a1.082,1.082,0,0,0,2.163,0Z" transform="translate(-152.592 -117.359)" fill="#b3c867"/>
    <path id="Trazado_1095800" data-name="Trazado 1095800" d="M200.237,111.029a1.079,1.079,0,0,0,.79-.343,1.889,1.889,0,0,1,2.668,0,1.082,1.082,0,1,0,1.58-1.478,4.051,4.051,0,0,0-5.828,0,1.082,1.082,0,0,0,.79,1.821Z" transform="translate(-139.989 -92.4)" fill="#b3c867"/>
    <path id="Trazado_1095801" data-name="Trazado 1095801" d="M284.2,137.138a1.082,1.082,0,0,0-1.082,1.082v1.1a1.082,1.082,0,1,0,2.163,0v-1.1A1.082,1.082,0,0,0,284.2,137.138Z" transform="translate(-211.842 -117.359)" fill="#b3c867"/>
    <path id="Trazado_1095802" data-name="Trazado 1095802" d="M270.264,110.686a1.889,1.889,0,0,1,2.668,0,1.082,1.082,0,0,0,1.58-1.478,4.051,4.051,0,0,0-5.828,0,1.082,1.082,0,0,0,1.58,1.478Z" transform="translate(-199.24 -92.399)" fill="#b3c867"/>
    <path id="Trazado_1095803" data-name="Trazado 1095803" d="M99.147,69.12a4.415,4.415,0,0,0-1.336-2.906L88.888,48.645a11.541,11.541,0,0,0-1.549-2.3V32.309a6.8,6.8,0,0,0,1.682.284,3.964,3.964,0,0,0,3.953-3.962V19.253a3.966,3.966,0,0,0-3.962-3.961H84.134V11.475A8.4,8.4,0,0,0,83.763,9a1.082,1.082,0,1,0-2.067.638,6.231,6.231,0,0,1,.275,1.84v7.558c-.21-.007.126,0-2.394,0V13.286A5.283,5.283,0,0,0,74.3,8.009H68.836A2.015,2.015,0,0,0,66.97,9.266a3.735,3.735,0,0,1-3.493,2.376H58.238a3.09,3.09,0,0,0-3.086,3.086v4.3s-2.349,0-2.394,0V15.622a1.98,1.98,0,0,0-1.076-1.762,3.867,3.867,0,0,1,.611-7.128,1.823,1.823,0,0,0,1.248-1.41,3.867,3.867,0,0,1,7.2-1.143,2.033,2.033,0,0,0,1.783,1.062H75.738a6.212,6.212,0,0,1,3.382,1A1.082,1.082,0,0,0,80.3,4.421a8.37,8.37,0,0,0-4.557-1.343H62.6A6.03,6.03,0,0,0,51.455,4.732,6.031,6.031,0,0,0,49.9,15.293H45.717a3.966,3.966,0,0,0-3.962,3.961v9.378a3.964,3.964,0,0,0,3.953,3.962,3.987,3.987,0,0,0,.9-.1l.779-.18V46.341a11.537,11.537,0,0,0-1.549,2.3L36.919,66.214a4.447,4.447,0,0,0,6.043,6.521l1.8-1.585a1.082,1.082,0,1,0-1.43-1.623l-1.8,1.585a2.283,2.283,0,1,1-3.02-3.425l10.542-9.294v1.933a2.34,2.34,0,0,0,2.077,2.322l-3.985,3.513a1.082,1.082,0,1,0,1.431,1.623L50.714,65.9v4.99a1.8,1.8,0,0,0,1.8,1.8H82.212a1.8,1.8,0,0,0,1.8-1.8V65.9l7.753,6.835a4.447,4.447,0,0,0,7.38-3.615ZM93.41,62.328l-7.734-6.819v-2.6a2.341,2.341,0,0,0-1.661-2.237V46.216a9.45,9.45,0,0,1,2.944,3.409ZM51.391,60.5a.174.174,0,0,1-.174-.174V52.912a.174.174,0,0,1,.174-.174h4.434A1.273,1.273,0,0,1,57.1,54.009v5.22A1.273,1.273,0,0,1,55.824,60.5H51.391Zm8.135-18.126a14.626,14.626,0,0,0,15.677,0l1.927.779v4.088H57.6V43.154Zm7.838-4.74a11.33,11.33,0,0,0,5.159-1.641v3.687a2.38,2.38,0,0,0,.492,1.453,12.462,12.462,0,0,1-11.3,0,2.382,2.382,0,0,0,.492-1.453V35.994a11.331,11.331,0,0,0,5.159,1.641ZM81.851,50.574H79.294v-8.22l2.245.764a.461.461,0,0,1,.312.437ZM55.435,42.4v.007c-.005.97,0,7.172,0,8.162H52.878V43.555a.461.461,0,0,1,.313-.437l2.245-.764ZM57.6,62.17a3.437,3.437,0,0,0,1.661-2.94v-5.22a3.436,3.436,0,0,0-1.661-2.94V49.405H77.13v1.664a3.437,3.437,0,0,0-1.661,2.94v5.22a3.436,3.436,0,0,0,1.661,2.94v8.36H57.6ZM78.9,60.5a1.273,1.273,0,0,1-1.272-1.272v-5.22A1.273,1.273,0,0,1,78.9,52.738h4.434a.174.174,0,0,1,.174.174v7.415a.174.174,0,0,1-.174.174H78.9Zm6.271-16.113a11.536,11.536,0,0,0-1.161-.711v-.121a2.623,2.623,0,0,0-1.779-2.485l-2.727-.928a1.785,1.785,0,0,0-2.122.782L74.829,39.89a.226.226,0,0,1-.142-.209V34.563a14.065,14.065,0,0,0,3.85-4.284c1.323.3,4.031.926,6.638,1.529ZM84.134,17.456h4.878a1.8,1.8,0,0,1,1.8,1.8v9.378a1.8,1.8,0,0,1-2.205,1.75c-.259-.06-7.527-1.74-9.256-2.135a7.333,7.333,0,0,0,.2-1.1h2.291a4.057,4.057,0,0,0,2.3-7.4V17.456Zm-2.3,3.737a1.9,1.9,0,1,1,0,3.79h-2.26v-3.79Zm-23.6-7.388h5.238a5.886,5.886,0,0,0,5.46-3.632H74.3a3.117,3.117,0,0,1,3.114,3.114V26.524c0,4.257-6.568,8.948-10.049,8.948s-10.049-4.691-10.049-8.948v-11.8a.924.924,0,0,1,.923-.923Zm-3.086,7.388v3.79h-2.26a1.9,1.9,0,1,1,0-3.79Zm-9.03,9.188a1.8,1.8,0,0,1-2.2-1.75V19.254a1.8,1.8,0,0,1,1.8-1.8h4.878v2.289a4.057,4.057,0,0,0,2.3,7.4h2.291a7.3,7.3,0,0,0,.2,1.1c-1.729.4-9,2.075-9.257,2.135Zm10.07-.1a14.07,14.07,0,0,0,3.85,4.284v5.117a.225.225,0,0,1-.14.209l-2.56,1.035a1.785,1.785,0,0,0-2.12-.783l-2.728.929a2.623,2.623,0,0,0-1.78,2.485v.121a11.563,11.563,0,0,0-1.161.711V31.809c2.608-.6,5.316-1.227,6.639-1.529ZM41.319,62.328l6.451-12.7a9.451,9.451,0,0,1,2.944-3.409v4.459a2.341,2.341,0,0,0-1.661,2.237v2.6Zm11.559,1.665,1.506-1.328h1.051v7.865H52.878Zm28.973,6.537H79.294V62.664h1.05l1.508,1.329Zm14.571.38a2.289,2.289,0,0,1-3.225.2l-9.6-8.463a2.34,2.34,0,0,0,2.078-2.322V58.393l10.542,9.294a2.283,2.283,0,0,1,.2,3.222Z" transform="translate(0)" fill="#b3c867"/>
  </g>
</svg>
