<svg xmlns="http://www.w3.org/2000/svg" width="124" height="124" viewBox="0 0 124 124">
  <g id="Grupo_1193370" data-name="Grupo 1193370" transform="translate(7023.333 9953.886)">
    <g id="Grupo_1193366" data-name="Grupo 1193366" transform="translate(359.525 -329.431)">
      <g id="Grupo_1190972" data-name="Grupo 1190972" transform="translate(-7776.207 -17585.906)">
        <g id="Grupo_1190808" data-name="Grupo 1190808" transform="translate(-708.875 4775)">
          <circle id="Elipse_11474" data-name="Elipse 11474" cx="62" cy="62" r="62" transform="translate(1102.223 3186.452)" fill="#b8dcf3"/>
        </g>
      </g>
    </g>
    <g id="reserva" transform="translate(-6988.054 -9927.861)">
      <path id="Trazado_1095764" data-name="Trazado 1095764" d="M108.856,447.658h5.871c3.4,0,3.408-5.3,0-5.3h-5.871C105.453,442.356,105.448,447.658,108.856,447.658Zm0-3.318h5.871a.667.667,0,0,1,0,1.334h-5.871A.667.667,0,0,1,108.856,444.34Z" transform="translate(-92.243 -383.847)" fill="#20849e"/>
      <path id="Trazado_1095765" data-name="Trazado 1095765" d="M112.488,255.866l-6.462,6.463-2.238-2.238a.993.993,0,0,0-1.4,1.4l2.94,2.94a.992.992,0,0,0,1.4,0l7.164-7.164a.993.993,0,0,0-1.4-1.4Z" transform="translate(-88.588 -221.769)" fill="#20849e"/>
      <path id="Trazado_1095766" data-name="Trazado 1095766" d="M66.99,43.885a10.408,10.408,0,0,1-.888-2.443A50.369,50.369,0,0,0,61.734,29.79l-3.228-6.162a4.492,4.492,0,0,0-8.239.918,4.491,4.491,0,0,0-5.8,3.039A4.5,4.5,0,0,0,39.1,29.55V3.876A3.88,3.88,0,0,0,35.229,0H12.119a.992.992,0,0,0,0,1.984h23.11a1.894,1.894,0,0,1,1.892,1.892v2.9H1.991v-2.9A1.894,1.894,0,0,1,3.883,1.984H6.564A.992.992,0,0,0,6.564,0H3.883A3.88,3.88,0,0,0,.007,3.876V63.845A3.88,3.88,0,0,0,3.883,67.72H35.229A3.88,3.88,0,0,0,39.1,63.845V51.606l3.545,1.753a4.49,4.49,0,0,1,2.027,2.032,6.518,6.518,0,0,0,8.781,2.866l5.91-3.1a.992.992,0,0,0-.921-1.757l-5.91,3.1a4.507,4.507,0,0,1-6.081-1.984,6.486,6.486,0,0,0-2.928-2.934L28.486,44.14c-2.825-1.372-.782-5.8,2.087-4.466l5.462,2.875a1,1,0,0,0,1.341-1.338L27.887,23.1C26.329,20.17,30.5,17.467,32.094,20.5l6.707,12.8,1.752,3.344a.993.993,0,0,0,1.757-.921L40.6,32.475a2.475,2.475,0,0,1,3.98-2.553l1.9,3.623a.993.993,0,0,0,1.757-.921l-1.93-3.683a2.489,2.489,0,0,1,4.049-2.082l1.91,3.646a.993.993,0,0,0,1.757-.921l-1.911-3.647a2.476,2.476,0,0,1,4.633-1.388l3.228,6.162a48.392,48.392,0,0,1,4.2,11.193,11.814,11.814,0,0,0,1.06,2.9,4.472,4.472,0,0,1-1.884,6.029.992.992,0,0,0,.921,1.757,6.458,6.458,0,0,0,2.72-8.707ZM37.121,63.845a1.894,1.894,0,0,1-1.892,1.892H3.883a1.894,1.894,0,0,1-1.892-1.892V56.571h35.13ZM25.514,40a4.482,4.482,0,0,0,.335,4.409,8.714,8.714,0,1,1,2.389-6.755A4.529,4.529,0,0,0,25.514,40Zm7.2-21.8a4.444,4.444,0,0,0-1.479-.792,4.5,4.5,0,0,0-5.678,5.175H6.726a.331.331,0,0,1-.331-.331V15.158a.331.331,0,0,1,.331-.331h25.66a.331.331,0,0,1,.331.331Zm4.4,7.63-2.42-4.62V15.158a2.317,2.317,0,0,0-2.315-2.315H6.726a2.317,2.317,0,0,0-2.315,2.315v7.089a2.317,2.317,0,0,0,2.315,2.315H26.413L34.14,39.31l-2.662-1.4-.036-.018a4.461,4.461,0,0,0-1.226-.38A10.694,10.694,0,1,0,27.3,45.758c3.147,1.814,6.56,3.256,9.816,4.866v3.963H1.991V8.759h35.13Z" transform="translate(-0.007 0)" fill="#20849e"/>
    </g>
  </g>
</svg>
