<svg xmlns="http://www.w3.org/2000/svg" width="124" height="124" viewBox="0 0 124 124">
  <g id="Grupo_1193369" data-name="Grupo 1193369" transform="translate(6853.684 9849.141)">
    <g id="Grupo_1192292" data-name="Grupo 1192292" transform="translate(529.175 -224.687)">
      <g id="Grupo_1190972" data-name="Grupo 1190972" transform="translate(-7776.207 -17585.906)">
        <g id="Grupo_1190808" data-name="Grupo 1190808" transform="translate(-708.875 4775)">
          <circle id="Elipse_11474" data-name="Elipse 11474" cx="62" cy="62" r="62" transform="translate(1102.223 3186.452)" fill="#b8dcf3"/>
        </g>
      </g>
    </g>
    <g id="folleto" transform="translate(-6823.428 -9818.885)">
      <g id="Grupo_1193326" data-name="Grupo 1193326">
        <g id="Grupo_1193325" data-name="Grupo 1193325">
          <path id="Trazado_1095752" data-name="Trazado 1095752" d="M62.43,0H24.337a1.058,1.058,0,0,0-1.058,1.058v9.523H1.058A1.058,1.058,0,0,0,0,11.639V62.43a1.058,1.058,0,0,0,1.058,1.058H39.151a1.058,1.058,0,0,0,1.058-1.058V52.907H62.43a1.058,1.058,0,0,0,1.058-1.058V1.058A1.058,1.058,0,0,0,62.43,0ZM25.4,3.114l10.453,7.467H25.4Zm12.7,58.258H2.116V12.7H38.093ZM61.372,50.79H40.209V11.639a1.038,1.038,0,0,0-.454-.847l.011-.016L27.639,2.116H61.372Z" fill="#20849e"/>
        </g>
      </g>
      <g id="Grupo_1193328" data-name="Grupo 1193328" transform="translate(43.383 5.291)">
        <g id="Grupo_1193327" data-name="Grupo 1193327">
          <path id="Trazado_1095753" data-name="Trazado 1095753" d="M341.756,40h-12.7A1.058,1.058,0,0,0,328,41.058v6.349a1.058,1.058,0,0,0,1.058,1.058h12.7a1.058,1.058,0,0,0,1.058-1.058V41.058A1.058,1.058,0,0,0,341.756,40ZM340.7,46.349H330.116V42.116H340.7Z" transform="translate(-328 -40)" fill="#20849e"/>
        </g>
      </g>
      <g id="Grupo_1193330" data-name="Grupo 1193330" transform="translate(43.383 15.872)">
        <g id="Grupo_1193329" data-name="Grupo 1193329">
          <rect id="Rectángulo_460950" data-name="Rectángulo 460950" width="2" height="2" transform="translate(-0.137 0.128)" fill="#20849e"/>
        </g>
      </g>
      <g id="Grupo_1193332" data-name="Grupo 1193332" transform="translate(47.616 15.872)">
        <g id="Grupo_1193331" data-name="Grupo 1193331">
          <rect id="Rectángulo_460951" data-name="Rectángulo 460951" width="11" height="2" transform="translate(-0.369 0.128)" fill="#20849e"/>
        </g>
      </g>
      <g id="Grupo_1193334" data-name="Grupo 1193334" transform="translate(43.383 20.104)">
        <g id="Grupo_1193333" data-name="Grupo 1193333">
          <rect id="Rectángulo_460952" data-name="Rectángulo 460952" width="15" height="2" transform="translate(-0.137 -0.104)" fill="#20849e"/>
        </g>
      </g>
      <g id="Grupo_1193336" data-name="Grupo 1193336" transform="translate(43.383 24.337)">
        <g id="Grupo_1193335" data-name="Grupo 1193335">
          <rect id="Rectángulo_460953" data-name="Rectángulo 460953" width="15" height="2" transform="translate(-0.137 -0.337)" fill="#20849e"/>
        </g>
      </g>
      <g id="Grupo_1193338" data-name="Grupo 1193338" transform="translate(43.383 30.686)">
        <g id="Grupo_1193337" data-name="Grupo 1193337">
          <path id="Trazado_1095754" data-name="Trazado 1095754" d="M341.756,232h-12.7A1.058,1.058,0,0,0,328,233.058v6.349a1.058,1.058,0,0,0,1.058,1.058h12.7a1.058,1.058,0,0,0,1.058-1.058v-6.349A1.058,1.058,0,0,0,341.756,232Zm-1.058,6.349H330.116v-4.233H340.7Z" transform="translate(-328 -232)" fill="#20849e"/>
        </g>
      </g>
      <g id="Grupo_1193340" data-name="Grupo 1193340" transform="translate(43.383 41.267)">
        <g id="Grupo_1193339" data-name="Grupo 1193339">
          <rect id="Rectángulo_460954" data-name="Rectángulo 460954" width="2" height="2" transform="translate(-0.137 -0.268)" fill="#20849e"/>
        </g>
      </g>
      <g id="Grupo_1193342" data-name="Grupo 1193342" transform="translate(47.616 41.267)">
        <g id="Grupo_1193341" data-name="Grupo 1193341">
          <rect id="Rectángulo_460955" data-name="Rectángulo 460955" width="11" height="2" transform="translate(-0.369 -0.268)" fill="#20849e"/>
        </g>
      </g>
      <g id="Grupo_1193344" data-name="Grupo 1193344" transform="translate(43.383 45.5)">
        <g id="Grupo_1193343" data-name="Grupo 1193343">
          <rect id="Rectángulo_460956" data-name="Rectángulo 460956" width="15" height="2" transform="translate(-0.137 0.5)" fill="#20849e"/>
        </g>
      </g>
      <g id="Grupo_1193346" data-name="Grupo 1193346" transform="translate(5.291 47.616)">
        <g id="Grupo_1193345" data-name="Grupo 1193345">
          <path id="Trazado_1095755" data-name="Trazado 1095755" d="M49.523,360H41.058A1.058,1.058,0,0,0,40,361.058v8.465a1.058,1.058,0,0,0,1.058,1.058h8.465a1.058,1.058,0,0,0,1.058-1.058v-8.465A1.058,1.058,0,0,0,49.523,360Zm-1.058,8.465H42.116v-6.349h6.349Z" transform="translate(-40 -360)" fill="#20849e"/>
        </g>
      </g>
      <g id="Grupo_1193348" data-name="Grupo 1193348" transform="translate(17.988 47.616)">
        <g id="Grupo_1193347" data-name="Grupo 1193347">
          <rect id="Rectángulo_460957" data-name="Rectángulo 460957" width="2" height="2" transform="translate(0.259 0.384)" fill="#20849e"/>
        </g>
      </g>
      <g id="Grupo_1193350" data-name="Grupo 1193350" transform="translate(22.221 47.616)">
        <g id="Grupo_1193349" data-name="Grupo 1193349">
          <rect id="Rectángulo_460958" data-name="Rectángulo 460958" width="13" height="2" transform="translate(0.026 0.384)" fill="#20849e"/>
        </g>
      </g>
      <g id="Grupo_1193352" data-name="Grupo 1193352" transform="translate(17.988 51.848)">
        <g id="Grupo_1193351" data-name="Grupo 1193351">
          <rect id="Rectángulo_460959" data-name="Rectángulo 460959" width="17" height="2" transform="translate(0.259 0.151)" fill="#20849e"/>
        </g>
      </g>
      <g id="Grupo_1193354" data-name="Grupo 1193354" transform="translate(17.988 56.081)">
        <g id="Grupo_1193353" data-name="Grupo 1193353">
          <rect id="Rectángulo_460960" data-name="Rectángulo 460960" width="17" height="2" transform="translate(0.259 -0.081)" fill="#20849e"/>
        </g>
      </g>
      <g id="Grupo_1193356" data-name="Grupo 1193356" transform="translate(6.349 16.93)">
        <g id="Grupo_1193355" data-name="Grupo 1193355">
          <path id="Trazado_1095756" data-name="Trazado 1095756" d="M74.453,128h-25.4A1.058,1.058,0,0,0,48,129.058v21.163a1.058,1.058,0,0,0,1.058,1.058h25.4a1.058,1.058,0,0,0,1.058-1.058V129.058A1.058,1.058,0,0,0,74.453,128ZM73.4,149.163H50.116v-3.746l6.293-5.4,7.773,7.772,1.5-1.5L64.31,144.93l3.794-3.794,5.291,5.291Zm0-5.729-4.543-4.543a1.058,1.058,0,0,0-1.5,0l-4.543,4.543-5.6-5.6a1.058,1.058,0,0,0-1.436-.055l-5.661,4.852V130.116H73.4Z" transform="translate(-48 -128)" fill="#20849e"/>
        </g>
      </g>
      <g id="Grupo_1193358" data-name="Grupo 1193358" transform="translate(17.988 21.163)">
        <g id="Grupo_1193357" data-name="Grupo 1193357">
          <path id="Trazado_1095757" data-name="Trazado 1095757" d="M139.174,160a3.174,3.174,0,1,0,3.174,3.174A3.174,3.174,0,0,0,139.174,160Zm0,4.233a1.058,1.058,0,1,1,1.058-1.058A1.058,1.058,0,0,1,139.174,164.233Z" transform="translate(-136 -160)" fill="#20849e"/>
        </g>
      </g>
      <g id="Grupo_1193360" data-name="Grupo 1193360" transform="translate(11.639 21.163)">
        <g id="Grupo_1193359" data-name="Grupo 1193359">
          <rect id="Rectángulo_460961" data-name="Rectángulo 460961" width="3" height="2" transform="translate(-0.393 -0.163)" fill="#20849e"/>
        </g>
      </g>
      <g id="Grupo_1193362" data-name="Grupo 1193362" transform="translate(27.511 23.279)">
        <g id="Grupo_1193361" data-name="Grupo 1193361">
          <rect id="Rectángulo_460962" data-name="Rectángulo 460962" width="2" height="2" transform="translate(-0.265 -0.279)" fill="#20849e"/>
        </g>
      </g>
    </g>
  </g>
</svg>
