<svg xmlns="http://www.w3.org/2000/svg" width="75" height="75" viewBox="0 0 75 75">
  <g id="Grupo_1193773" data-name="Grupo 1193773" transform="translate(0.333 0.333)">
    <circle id="Elipse_13840" data-name="Elipse 13840" cx="37.5" cy="37.5" r="37.5" transform="translate(-0.333 -0.333)" fill="#b8dcf3"/>
    <g id="reserva-en-linea_6_" data-name="reserva-en-linea (6)" transform="translate(12.411 22.663)">
      <g id="Online_Booking" transform="translate(0 0)">
        <path id="Trazado_1096781" data-name="Trazado 1096781" d="M42.378,65.864l-4.069-4.069,3.064-1.189a1.862,1.862,0,0,0-.017-3.478l-6.309-2.373a10.228,10.228,0,0,0-3.6-19.8H10.23a10.23,10.23,0,0,0,0,20.461h13.2L28.8,69.685a1.862,1.862,0,0,0,3.478.017l1.189-3.064,4.069,4.069a1.863,1.863,0,0,0,2.633,0L42.378,68.5a1.864,1.864,0,0,0,0-2.632ZM10.23,53.9a8.715,8.715,0,0,1,0-17.43H31.449A8.712,8.712,0,0,1,32.561,53.82L25.071,51a1.861,1.861,0,0,0-2.4,2.4l.187.5ZM41.306,67.424,39.1,69.636a.348.348,0,0,1-.49,0l-4.891-4.891a.758.758,0,0,0-1.242.262l-1.608,4.148a.345.345,0,0,1-.647,0L24.092,52.867a.345.345,0,0,1,.445-.445l16.284,6.125a.345.345,0,0,1,0,.646L36.677,60.8a.758.758,0,0,0-.262,1.242l4.891,4.891a.347.347,0,0,1,0,.489Z" transform="translate(0 -34.951)" fill="#20849e"/>
        <path id="Trazado_1096782" data-name="Trazado 1096782" d="M106.188,75.989v.5h-.709v-.418a1.517,1.517,0,0,0-1.516-1.516H96.385a1.517,1.517,0,0,0-1.516,1.516v.418H92.93a1.947,1.947,0,0,0-1.875-2.417h-2.2v-.748c0-2.866-4.416-2.874-4.416,0V83.685a1.084,1.084,0,0,0,1.083,1.083h2.249a1.084,1.084,0,0,0,1.083-1.083V81.869h17.335v1.817a1.084,1.084,0,0,0,1.083,1.083h1.766a1.084,1.084,0,0,0,1.083-1.083v-7.7A1.967,1.967,0,0,0,106.188,75.989Zm-9.8.079h7.578v2.351H96.385Zm-5.33-.484c.539,0,.543.9,0,.9h-2.2v-.9Zm-3.718,7.668H85.953V73.321a.695.695,0,0,1,1.385,0v9.931Zm1.516-2.9V78h6.016v1.024a.911.911,0,0,0,.91.91h8.79a.911.911,0,0,0,.91-.91V78h.709v2.351Zm19.751,2.9h-.9V75.989c0-.545.9-.539.9,0Z" transform="translate(-76.439 -67.738)" fill="#20849e"/>
      </g>
    </g>
  </g>
</svg>
