<svg xmlns="http://www.w3.org/2000/svg" width="56.652" height="56.652" viewBox="0 0 56.652 56.652">
  <g id="aprobado" transform="translate(-1 -1)">
    <g id="Grupo_1193053" data-name="Grupo 1193053" transform="translate(14.219 1)">
      <path id="Trazado_1095617" data-name="Trazado 1095617" d="M8.944,10.442A.945.945,0,0,1,8,9.5V1.944A.945.945,0,0,1,8.944,1H39.159a.944.944,0,1,1,0,1.888H9.888V9.5A.945.945,0,0,1,8.944,10.442Z" transform="translate(-8 -1)" fill="#20849e"/>
    </g>
    <g id="Grupo_1193055" data-name="Grupo 1193055" transform="translate(44.433 1.001)">
      <g id="Grupo_1193054" data-name="Grupo 1193054">
        <path id="Trazado_1095618" data-name="Trazado 1095618" d="M36.235,14.218H24.944A.945.945,0,0,1,24,13.274V6.665a.944.944,0,0,1,1.888,0V12.33H33.96L24.274,2.61a.944.944,0,1,1,1.339-1.331L36.9,12.609a.944.944,0,0,1-.668,1.609Z" transform="translate(-24 -1.001)" fill="#20849e"/>
      </g>
    </g>
    <g id="approved_1_" transform="translate(1 8.554)">
      <g id="customer_survey_questionnaire_2_" transform="translate(28.326 3.777)">
        <g id="Grupo_1193058" data-name="Grupo 1193058">
          <g id="Grupo_1193057" data-name="Grupo 1193057">
            <g id="Grupo_1193056" data-name="Grupo 1193056">
              <path id="Trazado_1095619" data-name="Trazado 1095619" d="M43.382,52.322H16.944a.944.944,0,1,1,0-1.888H42.438V7.944a.944.944,0,1,1,1.888,0V51.378A.945.945,0,0,1,43.382,52.322Z" transform="translate(-16 -7)" fill="#20849e"/>
            </g>
          </g>
        </g>
      </g>
      <g id="Grupo_1193070" data-name="Grupo 1193070" transform="translate(0 3.777)">
        <g id="Grupo_1193060" data-name="Grupo 1193060" transform="translate(5.665)">
          <g id="Grupo_1193059" data-name="Grupo 1193059">
            <path id="Trazado_1095620" data-name="Trazado 1095620" d="M12.5,7A8.508,8.508,0,0,0,4,15.5a8.38,8.38,0,0,0,1.8,5.208c1.632,2.087,3.867,4.948,3.867,7.742v.268a.944.944,0,1,0,1.888,0v-.268c0-3.446-2.466-6.6-4.279-8.923A6.482,6.482,0,0,1,5.888,15.5a6.609,6.609,0,1,1,13.219,0,6.508,6.508,0,0,1-1.4,4.045c-1.8,2.3-4.268,5.459-4.268,8.906v4.045h.944a1.822,1.822,0,0,1,.944.289V28.449c0-2.795,2.236-5.656,3.881-7.759A8.365,8.365,0,0,0,21,15.5,8.508,8.508,0,0,0,12.5,7Z" transform="translate(-4 -7)" fill="#20849e"/>
          </g>
        </g>
        <g id="Grupo_1193063" data-name="Grupo 1193063" transform="translate(0 30.215)">
          <g id="Grupo_1193062" data-name="Grupo 1193062">
            <g id="Grupo_1193061" data-name="Grupo 1193061">
              <path id="Trazado_1095621" data-name="Trazado 1095621" d="M28.382,34.33H1.944A.945.945,0,0,1,1,33.386V29.609A6.617,6.617,0,0,1,7.609,23h.944a.944.944,0,1,1,0,1.888H7.609a4.725,4.725,0,0,0-4.721,4.721v2.833H27.438V29.609a4.725,4.725,0,0,0-4.721-4.721H13.275a.944.944,0,1,1,0-1.888h9.442a6.617,6.617,0,0,1,6.609,6.609v3.777A.945.945,0,0,1,28.382,34.33Z" transform="translate(-1 -23)" fill="#20849e"/>
            </g>
          </g>
        </g>
        <g id="Grupo_1193066" data-name="Grupo 1193066" transform="translate(1.888 39.657)">
          <g id="Grupo_1193065" data-name="Grupo 1193065">
            <g id="Grupo_1193064" data-name="Grupo 1193064">
              <path id="Trazado_1095622" data-name="Trazado 1095622" d="M25.605,33.665H2.944A.945.945,0,0,1,2,32.721V28.944A.945.945,0,0,1,2.944,28H25.605a.945.945,0,0,1,.944.944v3.777A.945.945,0,0,1,25.605,33.665ZM3.888,31.777H24.661V29.888H3.888Z" transform="translate(-2 -28)" fill="#20849e"/>
            </g>
          </g>
        </g>
        <g id="Grupo_1193069" data-name="Grupo 1193069" transform="translate(9.442 24.549)">
          <g id="Grupo_1193068" data-name="Grupo 1193068">
            <g id="Grupo_1193067" data-name="Grupo 1193067">
              <path id="Trazado_1095623" data-name="Trazado 1095623" d="M14.5,23.777a.945.945,0,0,1-.944-.944.947.947,0,0,0-.944-.944H8.833a.947.947,0,0,0-.944.944.944.944,0,1,1-1.888,0A2.836,2.836,0,0,1,8.833,20h3.777a2.836,2.836,0,0,1,2.833,2.833A.945.945,0,0,1,14.5,23.777Z" transform="translate(-6 -20)" fill="#20849e"/>
            </g>
          </g>
        </g>
      </g>
      <g id="Grupo_1193086" data-name="Grupo 1193086" transform="translate(26.438 13.219)">
        <g id="Grupo_1193079" data-name="Grupo 1193079" transform="translate(5.719 1.889)">
          <g id="Grupo_1193078" data-name="Grupo 1193078">
            <g id="Grupo_1193077" data-name="Grupo 1193077">
              <g id="Grupo_1193076" data-name="Grupo 1193076">
                <g id="Grupo_1193075" data-name="Grupo 1193075">
                  <g id="Grupo_1193074" data-name="Grupo 1193074">
                    <g id="Grupo_1193073" data-name="Grupo 1193073">
                      <g id="Grupo_1193072" data-name="Grupo 1193072">
                        <g id="Grupo_1193071" data-name="Grupo 1193071">
                          <path id="Trazado_1095624" data-name="Trazado 1095624" d="M23.695,26.219h-.023a.947.947,0,0,1-.7-.34l-4.721-5.665A.945.945,0,1,1,19.7,19l4.028,4.836,9.655-10.534a.944.944,0,1,1,1.39,1.277L24.39,25.913A.939.939,0,0,1,23.695,26.219Z" transform="translate(-18.028 -13)" fill="#20849e"/>
                        </g>
                      </g>
                    </g>
                  </g>
                </g>
              </g>
            </g>
          </g>
        </g>
        <g id="Grupo_1193085" data-name="Grupo 1193085">
          <g id="Grupo_1193084" data-name="Grupo 1193084">
            <g id="Grupo_1193083" data-name="Grupo 1193083">
              <g id="Grupo_1193082" data-name="Grupo 1193082">
                <g id="Grupo_1193081" data-name="Grupo 1193081">
                  <g id="Grupo_1193080" data-name="Grupo 1193080">
                    <path id="Trazado_1095625" data-name="Trazado 1095625" d="M26.33,34.661a11.33,11.33,0,1,1,5.709-21.12.944.944,0,0,1-.952,1.632,9.443,9.443,0,1,0,4.685,8.158,9.549,9.549,0,0,0-.217-2.024A.945.945,0,1,1,37.4,20.9a11.526,11.526,0,0,1,.261,2.43,11.342,11.342,0,0,1-11.33,11.33Z" transform="translate(-15 -12)" fill="#20849e"/>
                  </g>
                </g>
              </g>
            </g>
          </g>
        </g>
      </g>
      <g id="Grupo_1193089" data-name="Grupo 1193089" transform="translate(22.661 3.777)">
        <g id="Grupo_1193088" data-name="Grupo 1193088">
          <g id="Grupo_1193087" data-name="Grupo 1193087">
            <path id="Trazado_1095626" data-name="Trazado 1095626" d="M26.219,7.944a.947.947,0,0,1-.944.944H13.944a.944.944,0,0,1,0-1.888h11.33A.947.947,0,0,1,26.219,7.944Z" transform="translate(-13 -7)" fill="#20849e"/>
          </g>
        </g>
      </g>
      <g id="Grupo_1193092" data-name="Grupo 1193092" transform="translate(22.661)">
        <g id="Grupo_1193091" data-name="Grupo 1193091">
          <g id="Grupo_1193090" data-name="Grupo 1193090">
            <path id="Trazado_1095627" data-name="Trazado 1095627" d="M30,5.944a.947.947,0,0,1-.944.944H13.944a.944.944,0,0,1,0-1.888H29.051A.947.947,0,0,1,30,5.944Z" transform="translate(-13 -5)" fill="#20849e"/>
          </g>
        </g>
      </g>
    </g>
  </g>
</svg>
