<svg xmlns="http://www.w3.org/2000/svg" width="124" height="124" viewBox="0 0 124 124">
  <g id="Grupo_1193568" data-name="Grupo 1193568" transform="translate(3796.359 6413.323)">
    <g id="Grupo_1193565" data-name="Grupo 1193565" transform="translate(3586.5 3211.131)">
      <g id="Grupo_1190972" data-name="Grupo 1190972" transform="translate(-7776.207 -17585.906)">
        <g id="Grupo_1190808" data-name="Grupo 1190808" transform="translate(-708.875 4775)">
          <circle id="Elipse_11474" data-name="Elipse 11474" cx="62" cy="62" r="62" transform="translate(1102.223 3186.452)" fill="#b8dcf3"/>
        </g>
      </g>
    </g>
    <path id="portero" d="M33.9,32.957h-2.12a7.678,7.678,0,0,0,3.1-6.168v-.464A6.511,6.511,0,0,0,30.5,14.99H23.887a6.512,6.512,0,0,0-4.38,11.336v.464a7.686,7.686,0,0,0,3.1,6.168H20.492A5.5,5.5,0,0,0,15,38.45V54.169a3.048,3.048,0,0,0,3.045,3.045h1.522V79.138a3.03,3.03,0,0,0,3.027,3.027h9.2a3.03,3.03,0,0,0,3.027-3.027V57.213h1.522a3.048,3.048,0,0,0,3.045-3.045V38.449A5.5,5.5,0,0,0,33.9,32.957ZM19.042,21.509a4.852,4.852,0,0,1,4.846-4.846H30.5a4.841,4.841,0,0,1,4.379,6.912V22.545a.836.836,0,0,0-.566-.792l-6.851-2.343a.836.836,0,0,0-.541,0l-6.852,2.343a.836.836,0,0,0-.566.792v1.031A4.818,4.818,0,0,1,19.042,21.509Zm2.138,5.28V23.143l6.015-2.057,6.015,2.057V26.79a6.015,6.015,0,0,1-12.03,0Zm6.015,10.42-2.553-2.58h5.108Zm3.722-1.382v3.544l-2.325-1.194Zm-7.443,0,2.325,2.35-2.325,1.194Zm-2.981-1.2H21.8V40.74a.837.837,0,0,0,1.218.744l3.339-1.716V48.7a.836.836,0,0,0,1.672,0V39.769l3.339,1.716a.836.836,0,0,0,1.218-.744V34.629H33.9a3.824,3.824,0,0,1,3.82,3.82v8.086H34.824V43.923a.836.836,0,0,0-1.672,0V55.54H21.239V43.923a.836.836,0,0,0-1.672,0v2.612H16.672V38.449a3.824,3.824,0,0,1,3.82-3.82ZM34.823,48.207h2.895V51.16H34.823ZM19.567,51.16H16.672V48.207h2.895Zm-1.522,4.38a1.375,1.375,0,0,1-1.373-1.373V52.832h2.895V55.54ZM31.8,80.492H28.03V63.365a.836.836,0,0,0-1.672,0V80.492H22.594a1.356,1.356,0,0,1-1.355-1.355V57.213H33.151V79.137A1.356,1.356,0,0,1,31.8,80.492ZM36.345,55.54H34.823V52.832h2.895v1.335A1.375,1.375,0,0,1,36.345,55.54Zm44.11,17.02h-.471V53.27A19.245,19.245,0,0,0,65.112,34.565v-.559a1.481,1.481,0,0,0-1.48-1.48H61.618V31.407a2.849,2.849,0,1,0-1.672,0v1.119H57.932a1.481,1.481,0,0,0-1.48,1.48v.559A19.245,19.245,0,0,0,41.581,53.27V72.56H41.11a1.831,1.831,0,0,0-1.718,1.922v1.431a1.831,1.831,0,0,0,1.718,1.922h3.044a3.725,3.725,0,0,0-.038.532,3.8,3.8,0,0,0,7.592,0,3.94,3.94,0,0,0-.038-.532H69.9a3.726,3.726,0,0,0-.038.532,3.8,3.8,0,0,0,7.592,0,3.94,3.94,0,0,0-.038-.532h3.044a1.831,1.831,0,0,0,1.718-1.922V74.482A1.835,1.835,0,0,0,80.454,72.56ZM60.782,27.508a1.176,1.176,0,1,1-1.176,1.176A1.178,1.178,0,0,1,60.782,27.508ZM58.124,34.2H63.44v1.412H58.124ZM43.253,53.27a17.569,17.569,0,0,1,13.274-17,1.482,1.482,0,0,0,1.4,1.016h5.7a1.482,1.482,0,0,0,1.4-1.016,17.57,17.57,0,0,1,13.274,17V72.56H74.249a2.4,2.4,0,0,0,.114-.732V55.156a2.409,2.409,0,0,0-2.405-2.405h-.55a2.4,2.4,0,0,0,.114-.733V42.409A2.409,2.409,0,0,0,69.116,40H52.445a2.407,2.407,0,0,0-2.4,2.405v9.608a2.408,2.408,0,0,0,.114.733h-.55A2.409,2.409,0,0,0,47.2,55.156V71.829a2.392,2.392,0,0,0,.114.732H43.252V53.27ZM61.618,72.56V54.422H71.959a.734.734,0,0,1,.733.733V71.829a.733.733,0,0,1-.733.732Zm-12.746-.732V55.156a.734.734,0,0,1,.733-.733H59.946V72.56H49.605a.733.733,0,0,1-.733-.732Zm2.84-19.81V42.411a.734.734,0,0,1,.732-.733H69.117a.734.734,0,0,1,.733.733v9.608a.734.734,0,0,1-.733.733H52.444A.735.735,0,0,1,51.712,52.019Zm-3.8,28.473a2.124,2.124,0,1,1,2.124-2.124,2.127,2.127,0,0,1-2.124,2.124Zm25.742,0a2.124,2.124,0,1,1,2.124-2.124A2.127,2.127,0,0,1,73.652,80.492ZM80.5,75.914a.375.375,0,0,1-.081.249H76.739a3.789,3.789,0,0,0-6.174,0H51a3.789,3.789,0,0,0-6.174,0H41.143a.375.375,0,0,1-.081-.249V74.482a.372.372,0,0,1,.081-.249H80.42a.375.375,0,0,1,.081.249ZM56.721,61.945v3.094a1.868,1.868,0,0,1-1.866,1.866H52.933a.836.836,0,1,1,0-1.672h1.922a.2.2,0,0,0,.194-.194V61.945a.2.2,0,0,0-.194-.194H52.933a.836.836,0,1,1,0-1.672h1.922A1.868,1.868,0,0,1,56.721,61.945Zm12.745,0v3.094A1.868,1.868,0,0,1,67.6,66.905H65.678a.836.836,0,1,1,0-1.672H67.6a.2.2,0,0,0,.194-.194V61.945a.2.2,0,0,0-.194-.194H65.678a.836.836,0,1,1,0-1.672H67.6A1.867,1.867,0,0,1,69.466,61.945Zm-7.137-15.37H59.235a.2.2,0,0,0-.194.194v1.922a.836.836,0,0,1-1.672,0V46.769A1.868,1.868,0,0,1,59.235,44.9h3.094a1.868,1.868,0,0,1,1.866,1.866v1.922a.836.836,0,0,1-1.672,0V46.769A.2.2,0,0,0,62.329,46.575Z" transform="translate(-3782.947 -6404.812)" fill="#20849e"/>
  </g>
</svg>
