<svg xmlns="http://www.w3.org/2000/svg" width="75" height="75" viewBox="0 0 75 75">
  <g id="Grupo_1193770" data-name="Grupo 1193770" transform="translate(0 0.333)">
    <circle id="Elipse_13837" data-name="Elipse 13837" cx="37.5" cy="37.5" r="37.5" transform="translate(0 -0.333)" fill="#b3c867"/>
    <g id="recurso" transform="translate(15.952 15.952)">
      <path id="Trazado_1096689" data-name="Trazado 1096689" d="M40.356,152.4H38.948V141.448a2.747,2.747,0,0,1,1.92,1.29.628.628,0,0,0,1.121-.565,3.983,3.983,0,0,0-2.517-1.9,4.276,4.276,0,0,1,2.2-.8.628.628,0,0,0-.055-1.254,5.721,5.721,0,0,0-2.57.805,3.985,3.985,0,0,0-1.57-2.613.628.628,0,1,0-.7,1.042,2.711,2.711,0,0,1,1.015,1.715,5.607,5.607,0,0,0-2.778-.949.628.628,0,0,0-.055,1.254,4.275,4.275,0,0,1,2.2.8,3.983,3.983,0,0,0-2.517,1.9.629.629,0,0,0,.561.911.624.624,0,0,0,.559-.345,2.746,2.746,0,0,1,1.921-1.29V152.4H33.631v-18.4a.628.628,0,1,0-1.255,0v18.4H27.621v-9.139a.628.628,0,0,0-.628-.628H15.769a.628.628,0,0,0-.628.628v3.628a.628.628,0,0,0,1.255,0v-3h4.356V152.4H16.4v-3a.628.628,0,1,0-1.255,0v3H10.387V125.5a.628.628,0,1,0-1.255,0V152.4H5.069V141.448a2.747,2.747,0,0,1,1.92,1.29.628.628,0,0,0,1.121-.565,3.983,3.983,0,0,0-2.517-1.9,4.276,4.276,0,0,1,2.2-.8.628.628,0,0,0-.055-1.254,5.608,5.608,0,0,0-2.778.949A2.711,2.711,0,0,1,5.98,137.46a.628.628,0,0,0-.7-1.042,3.986,3.986,0,0,0-1.57,2.613,5.721,5.721,0,0,0-2.57-.805.628.628,0,0,0-.055,1.254,4.275,4.275,0,0,1,2.2.8,3.983,3.983,0,0,0-2.517,1.9.628.628,0,1,0,1.123.561,2.735,2.735,0,0,1,1.918-1.286V152.4H2.406a2.407,2.407,0,0,0,0,4.813H40.356a2.407,2.407,0,0,0,0-4.813Zm-18.348-8.511h4.357V152.4H22.009Zm18.348,12.07H2.406a1.151,1.151,0,0,1,0-2.3H40.356a1.151,1.151,0,0,1,0,2.3Z" transform="translate(0 -114.446)" fill="#7d8c48"/>
      <path id="Trazado_1096690" data-name="Trazado 1096690" d="M93.258,4.8h0V8.547a.628.628,0,1,0,1.255,0V4.8H116.5V17.036a.628.628,0,1,0,1.255,0V4.8h0a1.466,1.466,0,0,0,1.464-1.464V1.464A1.466,1.466,0,0,0,117.758,0h-24.5a1.466,1.466,0,0,0-1.464,1.464V3.338A1.466,1.466,0,0,0,93.258,4.8Zm-.209-3.338a.209.209,0,0,1,.209-.209h24.5a.209.209,0,0,1,.209.209V3.338a.209.209,0,0,1-.209.209h-24.5a.209.209,0,0,1-.209-.209Z" transform="translate(-84.127 0)" fill="#7d8c48"/>
      <path id="Trazado_1096691" data-name="Trazado 1096691" d="M231.9,252.634h-2.532a1.047,1.047,0,0,0-1.046,1.046v2.532a1.047,1.047,0,0,0,1.046,1.046H231.9a1.047,1.047,0,0,0,1.046-1.046V253.68A1.047,1.047,0,0,0,231.9,252.634ZM231.689,256h-2.113v-2.113h2.113Z" transform="translate(-209.252 -231.534)" fill="#7d8c48"/>
      <path id="Trazado_1096692" data-name="Trazado 1096692" d="M157.271,252.634h-2.532a1.047,1.047,0,0,0-1.046,1.046v2.532a1.047,1.047,0,0,0,1.046,1.046h2.532a1.047,1.047,0,0,0,1.046-1.046V253.68A1.047,1.047,0,0,0,157.271,252.634ZM157.061,256h-2.113v-2.113h2.113Z" transform="translate(-140.857 -231.534)" fill="#7d8c48"/>
      <path id="Trazado_1096693" data-name="Trazado 1096693" d="M306.526,252.634h-2.532a1.047,1.047,0,0,0-1.046,1.046v2.532a1.047,1.047,0,0,0,1.046,1.046h2.532a1.047,1.047,0,0,0,1.046-1.046V253.68A1.047,1.047,0,0,0,306.526,252.634ZM306.316,256H304.2v-2.113h2.113Z" transform="translate(-277.646 -231.534)" fill="#7d8c48"/>
      <path id="Trazado_1096694" data-name="Trazado 1096694" d="M232.945,172.2a1.047,1.047,0,0,0-1.046-1.046h-2.532a1.047,1.047,0,0,0-1.046,1.046v2.532a1.047,1.047,0,0,0,1.046,1.046H231.9a1.047,1.047,0,0,0,1.046-1.046Zm-1.255,2.322h-2.113v-2.113h2.113Z" transform="translate(-209.252 -156.863)" fill="#7d8c48"/>
      <path id="Trazado_1096695" data-name="Trazado 1096695" d="M158.317,172.2a1.047,1.047,0,0,0-1.046-1.046h-2.532a1.047,1.047,0,0,0-1.046,1.046v2.532a1.047,1.047,0,0,0,1.046,1.046h2.532a1.047,1.047,0,0,0,1.046-1.046Zm-1.255,2.322h-2.113v-2.113h2.113Z" transform="translate(-140.857 -156.863)" fill="#7d8c48"/>
      <path id="Trazado_1096696" data-name="Trazado 1096696" d="M307.572,172.2a1.047,1.047,0,0,0-1.046-1.046h-2.532a1.047,1.047,0,0,0-1.046,1.046v2.532a1.047,1.047,0,0,0,1.046,1.046h2.532a1.047,1.047,0,0,0,1.046-1.046Zm-1.255,2.322H304.2v-2.113h2.113Z" transform="translate(-277.646 -156.863)" fill="#7d8c48"/>
      <path id="Trazado_1096697" data-name="Trazado 1096697" d="M232.945,90.728a1.047,1.047,0,0,0-1.046-1.046h-2.532a1.047,1.047,0,0,0-1.046,1.046V93.26a1.047,1.047,0,0,0,1.046,1.046H231.9a1.047,1.047,0,0,0,1.046-1.046Zm-1.255,2.322h-2.113V90.937h2.113Z" transform="translate(-209.252 -82.192)" fill="#7d8c48"/>
      <path id="Trazado_1096698" data-name="Trazado 1096698" d="M158.317,90.728a1.047,1.047,0,0,0-1.046-1.046h-2.532a1.047,1.047,0,0,0-1.046,1.046V93.26a1.047,1.047,0,0,0,1.046,1.046h2.532a1.047,1.047,0,0,0,1.046-1.046Zm-1.255,2.322h-2.113V90.937h2.113Z" transform="translate(-140.857 -82.192)" fill="#7d8c48"/>
      <path id="Trazado_1096699" data-name="Trazado 1096699" d="M307.572,90.728a1.047,1.047,0,0,0-1.046-1.046h-2.532a1.047,1.047,0,0,0-1.046,1.046V93.26a1.047,1.047,0,0,0,1.046,1.046h2.532a1.047,1.047,0,0,0,1.046-1.046Zm-1.255,2.322H304.2V90.937h2.113Z" transform="translate(-277.646 -82.192)" fill="#7d8c48"/>
    </g>
  </g>
</svg>
