<svg xmlns="http://www.w3.org/2000/svg" xmlns:xlink="http://www.w3.org/1999/xlink" width="339.348" height="603.483" viewBox="0 0 339.348 603.483">
  <defs>
    <clipPath id="clip-path">
      <rect id="Rectángulo_461179" data-name="Rectángulo 461179" width="339.348" height="603.483" fill="none"/>
    </clipPath>
  </defs>
  <g id="Grupo_1193669" data-name="Grupo 1193669" transform="translate(0 0)">
    <g id="Grupo_1193668" data-name="Grupo 1193668" transform="translate(0 0.001)" clip-path="url(#clip-path)">
      <path id="Trazado_1096461" data-name="Trazado 1096461" d="M16.59,56.494h0a6.578,6.578,0,0,1-6.576-6.576V33.923H23.166V49.918a6.578,6.578,0,0,1-6.576,6.576" transform="translate(161.475 546.997)" fill="#421659"/>
      <path id="Trazado_1096462" data-name="Trazado 1096462" d="M22.8,56.494h0a6.578,6.578,0,0,1-6.576-6.576V33.923H29.373V49.918A6.578,6.578,0,0,1,22.8,56.494" transform="translate(261.563 546.997)" fill="#421659"/>
      <path id="Trazado_1096463" data-name="Trazado 1096463" d="M19.291,36.359c-3.254,2.672-6.559,5.446-8.631,9.11-2.6,4.572-2.963,10.052-3.134,15.31a350.954,350.954,0,0,0,2.363,54.3c.531,4.47,1.284,9.179,4.178,12.621,3.1,3.7,8.049,5.172,12.707,6.422a3.182,3.182,0,0,0,2.74-.1,3.223,3.223,0,0,0,.908-2.158q3.7-25.276,5.274-50.827c1.062-17.091,1.456-34.25,1.062-51.375-.034-1.644-.188-3.425-1.935-4.144-1.747-.736-3.065.548-4.315,1.593-3.733,3.082-7.484,6.165-11.217,9.247" transform="translate(118.085 407.973)" fill="#ee6468"/>
      <path id="Trazado_1096464" data-name="Trazado 1096464" d="M17.787,41.773a27.162,27.162,0,0,0-4.778,6.4,32.54,32.54,0,0,0-2.278,8.049Q8.907,65.885,7.066,75.56a1.89,1.89,0,0,0,.069,1.233,1.752,1.752,0,0,0,1.593.582c8.8.051,17.433-2.278,25.944-4.572a4.557,4.557,0,0,0,2.175-1.062,4.224,4.224,0,0,0,.856-1.884,105.723,105.723,0,0,0,3.511-29.3c-.051-2.517-.188-5.018-.428-7.518-.188-2.124-.1-4.966-.993-6.918-1.027-2.243-3.425.137-4.692.976-1.918,1.284-3.8,2.637-5.617,4.041a96.964,96.964,0,0,0-11.7,10.635" transform="translate(112.842 406.07)" fill="#a9c66a"/>
      <path id="Trazado_1096465" data-name="Trazado 1096465" d="M8.111,30.323c1.73-.274,3.442-.531,5.172-.8a.8.8,0,0,0,.548-.976.806.806,0,0,0-.976-.565c-1.73.274-3.442.548-5.172.8a.8.8,0,0,0-.548.976.806.806,0,0,0,.976.565" transform="translate(114.572 450.879)" fill="#fec600"/>
      <path id="Trazado_1096466" data-name="Trazado 1096466" d="M8.7,30.158c.873-.223,1.73-.462,2.6-.685a.822.822,0,0,0,.548-.993.8.8,0,0,0-.976-.548c-.873.223-1.73.462-2.6.685A.8.8,0,0,0,8.7,30.158" transform="translate(123.968 449.914)" fill="#fec600"/>
      <path id="Trazado_1096467" data-name="Trazado 1096467" d="M9.237,30.471c1.233-.377,2.466-.736,3.7-1.113a.8.8,0,0,0-.428-1.541c-1.233.377-2.466.753-3.7,1.113a.8.8,0,0,0-.548.976.792.792,0,0,0,.976.565" transform="translate(132.66 448.077)" fill="#421659"/>
      <path id="Trazado_1096468" data-name="Trazado 1096468" d="M35.38,36.359c3.254,2.672,6.559,5.446,8.631,9.11,2.6,4.572,2.963,10.052,3.134,15.31a350.952,350.952,0,0,1-2.363,54.3c-.531,4.47-1.284,9.179-4.178,12.621-3.1,3.7-8.049,5.172-12.707,6.422a3.181,3.181,0,0,1-2.74-.1,3.223,3.223,0,0,1-.908-2.158q-3.7-25.276-5.274-50.827c-1.062-17.091-1.456-34.25-1.062-51.375.034-1.644.188-3.425,1.935-4.144,1.747-.736,3.065.548,4.315,1.593q5.626,4.624,11.217,9.247" transform="translate(286.431 407.973)" fill="#ee6468"/>
      <path id="Trazado_1096469" data-name="Trazado 1096469" d="M41.266,41.773a27.163,27.163,0,0,1,4.778,6.4,32.541,32.541,0,0,1,2.278,8.049q1.824,9.658,3.665,19.334a1.89,1.89,0,0,1-.069,1.233,1.752,1.752,0,0,1-1.593.582c-8.8.051-17.433-2.278-25.944-4.572a4.557,4.557,0,0,1-2.175-1.062,4.224,4.224,0,0,1-.856-1.884,105.721,105.721,0,0,1-3.511-29.3c.051-2.517.188-5.018.428-7.518.188-2.124.1-4.966.993-6.918,1.028-2.243,3.425.137,4.692.976,1.918,1.284,3.8,2.637,5.617,4.041a96.965,96.965,0,0,1,11.7,10.635" transform="translate(287.293 406.07)" fill="#a9c66a"/>
      <path id="Trazado_1096470" data-name="Trazado 1096470" d="M25.481,28.782c-1.73-.274-3.442-.531-5.172-.8a.8.8,0,1,0-.411,1.541c1.712.257,3.442.531,5.155.8a.824.824,0,0,0,.993-.565.806.806,0,0,0-.565-.976" transform="translate(311.435 450.879)" fill="#421659"/>
      <path id="Trazado_1096471" data-name="Trazado 1096471" d="M22.485,28.617c-.873-.223-1.73-.462-2.6-.685a.8.8,0,0,0-.976.548.788.788,0,0,0,.548.976c.873.24,1.747.462,2.6.7a.8.8,0,1,0,.428-1.541" transform="translate(304.464 449.914)" fill="#421659"/>
      <path id="Trazado_1096472" data-name="Trazado 1096472" d="M22.977,28.932c-1.233-.377-2.466-.736-3.7-1.113a.8.8,0,0,0-.976.548.833.833,0,0,0,.565.993c1.216.36,2.449.736,3.682,1.113a.8.8,0,1,0,.428-1.541" transform="translate(294.742 448.092)" fill="#421659"/>
      <path id="Trazado_1096473" data-name="Trazado 1096473" d="M20.268,53.907l.1-.959c.1-.89.017.12-.017.154l.069-.479c.1-.753.223-1.507.377-2.243.274-1.439.6-2.86,1.01-4.264.394-1.421.891-2.774,1.4-4.144.188-.462-.1.257-.12.274A2.1,2.1,0,0,1,23.3,41.8c.154-.342.308-.685.479-1.027.325-.668.668-1.336,1.045-2,.342-.6.719-1.2,1.1-1.781l.514-.771.257-.342c.086-.12.582-.788.188-.274-.377.5.205-.24.291-.36.223-.257.445-.514.668-.754a19.011,19.011,0,0,1,1.4-1.473c.411-.411.839-.788,1.284-1.164.24-.223.514-.428.771-.651.36-.291-.274.223-.291.223a2.312,2.312,0,0,0,.462-.343,25.159,25.159,0,0,1,3.322-2c.291-.154.6-.291.908-.445.719-.343-.719.274.034,0,.634-.24,1.25-.462,1.9-.651.582-.171,1.2-.325,1.8-.445.325-.051.668-.086.993-.154.017-.017-.942.086-.462.051.188,0,.36-.034.548-.034a19.759,19.759,0,0,1,3.63.051c.8.086-.839-.137-.051,0l.925.188c.616.137,1.233.308,1.832.5l.771.257.5.205c.428.154-.411-.171-.394-.171.5.343,1.147.548,1.661.856a16.517,16.517,0,0,1,1.473.942c.1.069.206.171.325.24,0,0-.685-.565-.342-.257.257.24.548.445.8.7.411.394.822.8,1.2,1.233a2.23,2.23,0,0,0,.257.308c.291.342-.257-.325-.257-.325.154.308.428.582.6.873a15.372,15.372,0,0,1,.908,1.644,2.161,2.161,0,0,1,.274.565c0-.017-.291-.736-.12-.274.12.343.257.685.377,1.045a56.277,56.277,0,0,1,1.969,9.813q.8,5.523,1.627,11.028a4.179,4.179,0,0,0,1.952,2.552A4.358,4.358,0,0,0,63.7,59.8c2.415-.788,3.322-2.86,2.963-5.24l-1.541-10.48a67.323,67.323,0,0,0-1.747-9.436,22.164,22.164,0,0,0-4.881-8.9,21.787,21.787,0,0,0-7.74-5.189,23.459,23.459,0,0,0-17.416-.069A31.751,31.751,0,0,0,18.761,32.415c-4.281,6.371-6.2,13.957-6.987,21.492-.24,2.226,2.123,4.35,4.247,4.247a4.361,4.361,0,0,0,4.247-4.247" transform="translate(189.581 303.739)" fill="#421659"/>
      <path id="Trazado_1096474" data-name="Trazado 1096474" d="M161.555,45.281c-.959-5.7-2.141-11.713-6.045-15.96-4.161-4.538-10.549-6.131-16.543-7.484-7.4-1.661-88.074-1.661-95.489,0C37.485,23.19,31.1,24.783,26.936,29.321c-3.9,4.247-5.086,10.258-6.045,15.96A884.324,884.324,0,0,0,9.074,220.366c.308,9.624,1.284,20.379,8.562,26.681,6.114,5.292,14.864,5.84,22.93,6.114,12.5.445,88.81.445,101.311,0,8.066-.274,16.817-.822,22.93-6.114,7.278-6.3,8.271-17.056,8.58-26.681A885.628,885.628,0,0,0,161.555,45.281" transform="translate(138.988 332.024)" fill="#fcbf5c"/>
      <path id="Trazado_1096475" data-name="Trazado 1096475" d="M132.361,116.423H15.107l-5.394-82.7,126.536-6.559Z" transform="translate(156.613 438.074)" fill="#fff"/>
      <path id="Trazado_1096476" data-name="Trazado 1096476" d="M14.259,34.411,140.8,26.653l5.96,28.53L9.43,76.744Z" transform="translate(152.061 429.774)" fill="#a9c66a"/>
      <path id="Trazado_1096477" data-name="Trazado 1096477" d="M10.6,30.226h-.1a.711.711,0,0,1-.616-.788l.188-1.764a.711.711,0,0,1,.788-.616.683.683,0,0,1,.616.771l-.188,1.764a.689.689,0,0,1-.685.634" transform="translate(159.228 436.197)" fill="#421659"/>
      <path id="Trazado_1096478" data-name="Trazado 1096478" d="M10.409,52.045l-.069-.017a.708.708,0,0,1-.634-.771l.377-3.322a.7.7,0,0,1,.771-.634.724.724,0,0,1,.634.788l-.36,3.322a.735.735,0,0,1-.719.634m.736-6.662h-.069a.714.714,0,0,1-.634-.788l.377-3.322a.686.686,0,0,1,.771-.616.708.708,0,0,1,.634.771l-.377,3.339a.691.691,0,0,1-.7.616m.736-6.644h-.069a.712.712,0,0,1-.634-.788l.36-3.322a.7.7,0,0,1,.788-.617.708.708,0,0,1,.634.771l-.377,3.322a.692.692,0,0,1-.7.634m.736-6.644h-.086a.711.711,0,0,1-.616-.788l.36-3.322a.724.724,0,0,1,.788-.634.7.7,0,0,1,.617.788l-.36,3.322a.706.706,0,0,1-.7.634" transform="translate(156.474 440.973)" fill="#421659"/>
      <path id="Trazado_1096479" data-name="Trazado 1096479" d="M9.665,32.2l.291-2.654a.712.712,0,0,1,.788-.634.7.7,0,0,1,.616.788l-.086.856.856-.1a.7.7,0,0,1,.788.6.7.7,0,0,1-.6.8Z" transform="translate(155.847 466.029)" fill="#421659"/>
      <path id="Trazado_1096480" data-name="Trazado 1096480" d="M10.687,44.82a.7.7,0,0,1-.7-.617.715.715,0,0,1,.616-.8l3.511-.462a.721.721,0,0,1,.788.616.708.708,0,0,1-.6.788l-3.528.462-.086.017m7.021-.925a.732.732,0,0,1-.7-.616.715.715,0,0,1,.617-.8l3.511-.462a.708.708,0,1,1,.188,1.4l-3.511.462-.1.017m7.038-.942a.7.7,0,0,1-.086-1.4l3.511-.462a.708.708,0,0,1,.788.6.715.715,0,0,1-.6.8l-3.528.462h-.086m7.021-.925a.7.7,0,0,1-.086-1.4l3.511-.462a.708.708,0,1,1,.188,1.4l-3.511.462h-.1m7.038-.925a.714.714,0,0,1-.086-1.421l3.511-.462a.711.711,0,0,1,.788.617.7.7,0,0,1-.6.788l-3.528.462-.086.017m7.021-.925a.732.732,0,0,1-.7-.616.715.715,0,0,1,.617-.8l3.511-.462a.728.728,0,0,1,.8.616.708.708,0,0,1-.617.788l-3.511.462-.1.017m7.038-.942a.7.7,0,0,1-.086-1.4l3.511-.462a.7.7,0,0,1,.788.6.715.715,0,0,1-.6.8l-3.528.462h-.086m7.021-.925a.7.7,0,0,1-.086-1.4l3.511-.462a.708.708,0,1,1,.188,1.4l-3.511.462h-.1m7.038-.925a.714.714,0,0,1-.086-1.421L70.35,35.5a.721.721,0,0,1,.788.616.7.7,0,0,1-.6.788l-3.528.48h-.086m7.021-.925a.716.716,0,0,1-.7-.616.728.728,0,0,1,.616-.8l3.511-.462a.728.728,0,0,1,.8.617.708.708,0,0,1-.617.788l-3.511.462-.1.017m7.038-.942a.716.716,0,0,1-.7-.616.708.708,0,0,1,.616-.788l3.511-.462a.708.708,0,0,1,.188,1.4l-3.528.462h-.086m7.021-.925a.7.7,0,0,1-.086-1.4l3.511-.462a.708.708,0,1,1,.188,1.4l-3.511.462h-.1m7.038-.925a.716.716,0,0,1-.7-.616.7.7,0,0,1,.617-.788l3.511-.48a.711.711,0,0,1,.788.617.7.7,0,0,1-.6.788l-3.528.48h-.086m7.038-.925a.691.691,0,0,1-.7-.616.7.7,0,0,1,.6-.8l3.511-.462a.728.728,0,0,1,.8.616.708.708,0,0,1-.616.788l-3.511.462-.086.017m7.021-.942a.716.716,0,0,1-.7-.617.708.708,0,0,1,.617-.788l3.511-.462a.7.7,0,0,1,.788.617.708.708,0,0,1-.6.788l-3.528.462H109.1m7.021-.925a.687.687,0,0,1-.685-.616.7.7,0,0,1,.6-.788l3.511-.462a.708.708,0,1,1,.188,1.4l-3.511.462h-.1m7.038-.925a.716.716,0,0,1-.7-.617.7.7,0,0,1,.616-.788l3.511-.479a.717.717,0,0,1,.188,1.421l-3.528.462h-.086" transform="translate(160.905 452.599)" fill="#421659"/>
      <path id="Trazado_1096481" data-name="Trazado 1096481" d="M17.666,31.312a.716.716,0,0,1-.7-.617.7.7,0,0,1,.616-.788l1.01-.137L18.4,28.76a.705.705,0,0,1,.565-.822.693.693,0,0,1,.822.565l.462,2.466-2.5.343h-.086" transform="translate(273.441 450.301)" fill="#421659"/>
      <path id="Trazado_1096482" data-name="Trazado 1096482" d="M19.855,40.685a.715.715,0,0,1-.7-.582L18.4,36.01a.7.7,0,0,1,.565-.839.713.713,0,0,1,.822.582l.754,4.093a.714.714,0,0,1-.565.822l-.12.017m-1.524-8.2a.715.715,0,0,1-.7-.582l-.753-4.093a.714.714,0,0,1,1.4-.257l.753,4.093a.7.7,0,0,1-.565.822l-.137.017" transform="translate(271.937 434.865)" fill="#421659"/>
      <path id="Trazado_1096483" data-name="Trazado 1096483" d="M17.828,29.789a.715.715,0,0,1-.7-.582l-.308-1.73a.7.7,0,0,1,.565-.839.714.714,0,0,1,.822.565l.325,1.747a.705.705,0,0,1-.565.822l-.137.017" transform="translate(270.916 429.356)" fill="#421659"/>
      <path id="Trazado_1096484" data-name="Trazado 1096484" d="M10.542,31.662a19.7,19.7,0,0,0,6.251-.445c.651-.154.377-1.182-.291-1.027a18.345,18.345,0,0,1-5.959.411.523.523,0,0,0-.531.531.545.545,0,0,0,.531.531" transform="translate(161.427 486.53)" fill="#421659"/>
      <path id="Trazado_1096485" data-name="Trazado 1096485" d="M11.053,31.717a10.832,10.832,0,0,0,5.274-.514.566.566,0,0,0,.377-.668.549.549,0,0,0-.668-.36,9.522,9.522,0,0,1-4.692.514.566.566,0,0,0-.668.377.533.533,0,0,0,.377.651" transform="translate(171.893 486.133)" fill="#421659"/>
      <path id="Trazado_1096486" data-name="Trazado 1096486" d="M11.855,31.242h4.983a.531.531,0,0,0,0-1.062H11.855a.531.531,0,0,0,0,1.062" transform="translate(182.873 486.642)" fill="#2b5256"/>
      <path id="Trazado_1096487" data-name="Trazado 1096487" d="M12.562,31.909c2.4-.24,4.795-.48,7.192-.7.668-.069.685-1.13,0-1.062-2.4.223-4.795.462-7.192.7-.668.068-.685,1.13,0,1.062" transform="translate(194.376 486.026)" fill="#421659"/>
      <path id="Trazado_1096488" data-name="Trazado 1096488" d="M13.474,31.21h4.983a.531.531,0,0,0,0-1.062H13.474a.531.531,0,0,0,0,1.062" transform="translate(208.979 486.126)" fill="#421659"/>
      <path id="Trazado_1096489" data-name="Trazado 1096489" d="M14.251,31.177h4.435a.531.531,0,0,0,0-1.062H14.251a.531.531,0,0,0,0,1.062" transform="translate(221.508 485.594)" fill="#421659"/>
      <path id="Trazado_1096490" data-name="Trazado 1096490" d="M15.212,31.645l3.887-.565a.528.528,0,0,0,.36-.651.547.547,0,0,0-.651-.377l-3.87.565a.541.541,0,0,0-.377.651.547.547,0,0,0,.651.377" transform="translate(234.538 484.475)" fill="#421659"/>
      <path id="Trazado_1096491" data-name="Trazado 1096491" d="M15.692,31.591l4.435-.565a.558.558,0,0,0,.531-.531c0-.257-.24-.582-.531-.531l-4.435.565a.545.545,0,0,0-.531.531.534.534,0,0,0,.531.531" transform="translate(244.47 483.073)" fill="#2b5256"/>
      <path id="Trazado_1096492" data-name="Trazado 1096492" d="M16.317,31.573a10.583,10.583,0,0,1,4.846-.514.523.523,0,0,0,.531-.531A.545.545,0,0,0,21.164,30a11.547,11.547,0,0,0-5.12.548.541.541,0,0,0-.377.651.52.52,0,0,0,.651.377" transform="translate(252.287 482.389)" fill="#421659"/>
      <path id="Trazado_1096493" data-name="Trazado 1096493" d="M16.743,30.951h4.983a.531.531,0,0,0,0-1.062H16.743a.531.531,0,0,0,0,1.062" transform="translate(261.692 481.949)" fill="#421659"/>
      <path id="Trazado_1096494" data-name="Trazado 1096494" d="M17.245,30.983h1.113a.531.531,0,0,0,.377-.154.578.578,0,0,0,.154-.377.545.545,0,0,0-.531-.531H17.245a.531.531,0,0,0-.377.154.578.578,0,0,0-.154.377.545.545,0,0,0,.531.531" transform="translate(269.512 482.465)" fill="#421659"/>
      <path id="Trazado_1096495" data-name="Trazado 1096495" d="M9.942,31.065s18.187,1.456,24.472,22.519h-23Z" transform="translate(160.314 500.912)" fill="#a9c66a"/>
      <path id="Trazado_1096496" data-name="Trazado 1096496" d="M44.179,30.793s-23.1,3.065-28.924,27.177H43Z" transform="translate(245.986 496.526)" fill="#a9c66a"/>
      <path id="Trazado_1096497" data-name="Trazado 1096497" d="M17.036,37.222c0-.034.034-.325.017-.188l.034-.24.1-.565c.086-.36.171-.736.274-1.1.12-.36.24-.719.377-1.079l.086-.223c-.051.12.069-.154.086-.171l.24-.514a.795.795,0,1,0-1.37-.8,14.334,14.334,0,0,0-1.439,4.881.8.8,0,0,0,.788.8.839.839,0,0,0,.8-.8" transform="translate(248.965 515.254)" fill="#421659"/>
      <path id="Trazado_1096498" data-name="Trazado 1096498" d="M17.155,34.343l1.113-1.473a.6.6,0,0,0,.1-.291.7.7,0,0,0-.017-.325.841.841,0,0,0-.36-.479.856.856,0,0,0-.617-.069l-.188.069a.943.943,0,0,0-.291.291c-.377.5-.754.976-1.113,1.473a.465.465,0,0,0-.1.291.687.687,0,0,0,.017.325.84.84,0,0,0,.36.479.856.856,0,0,0,.616.069l.188-.069a.791.791,0,0,0,.291-.291" transform="translate(252.699 510.735)" fill="#421659"/>
      <path id="Trazado_1096499" data-name="Trazado 1096499" d="M17.35,34.173,18.823,32.7a.806.806,0,0,0,.24-.565.777.777,0,0,0-.24-.565.85.85,0,0,0-.565-.24.808.808,0,0,0-.548.24c-.5.5-.993.976-1.49,1.473a.868.868,0,0,0-.223.565.834.834,0,0,0,.223.565.786.786,0,0,0,1.13,0" transform="translate(257.951 505.185)" fill="#421659"/>
      <path id="Trazado_1096500" data-name="Trazado 1096500" d="M17.592,34.373c.993-.617,1.969-1.233,2.963-1.832a.809.809,0,0,0,.291-1.1.829.829,0,0,0-1.1-.291c-.993.617-1.969,1.233-2.963,1.849a.789.789,0,0,0-.291,1.079.813.813,0,0,0,1.1.291" transform="translate(264.199 500.67)" fill="#421659"/>
      <path id="Trazado_1096501" data-name="Trazado 1096501" d="M10.845,32.849a8.293,8.293,0,0,1,1.13.017c.034,0,.343.051.171.017l.223.034.565.12.548.171.206.086c.034,0,.308.12.171.051a8.074,8.074,0,0,1,.993.548.809.809,0,0,0,1.1-.291.825.825,0,0,0-.291-1.1,8.224,8.224,0,0,0-4.812-1.25.812.812,0,0,0-.8.788.827.827,0,0,0,.8.8" transform="translate(161.894 503.769)" fill="#421659"/>
      <path id="Trazado_1096502" data-name="Trazado 1096502" d="M10.619,32.718c.634.856,1.25,1.713,1.884,2.552a.953.953,0,0,0,.479.377.863.863,0,0,0,.616-.086.731.731,0,0,0,.36-.48.778.778,0,0,0-.068-.617c-.634-.839-1.267-1.7-1.9-2.552a.8.8,0,0,0-.462-.36.846.846,0,0,0-.617.069.87.87,0,0,0-.377.48.85.85,0,0,0,.086.616" transform="translate(169.535 508.336)" fill="#421659"/>
      <path id="Trazado_1096503" data-name="Trazado 1096503" d="M10.9,33.137c.719,1.37,1.421,2.74,2.141,4.11a.794.794,0,0,0,1.37-.8c-.7-1.37-1.421-2.74-2.141-4.11a.789.789,0,0,0-1.079-.291.829.829,0,0,0-.291,1.1" transform="translate(174.088 514.921)" fill="#421659"/>
      <path id="Trazado_1096504" data-name="Trazado 1096504" d="M16.6,30.8a2.566,2.566,0,0,0-.051,2.415,3.058,3.058,0,0,0,1.678,1.558,2.449,2.449,0,0,0,2.226-.24,3.28,3.28,0,0,0,1.319-1.815,3.107,3.107,0,0,0-.325-2.466.823.823,0,0,0-1.1-.274.808.808,0,0,0-.291,1.079l.1.188.051.069c.069.137-.068-.154-.034-.069a3.077,3.077,0,0,1,.1.377c.034.205-.017-.188,0,.034l.017.171-.017.188V32.1c0-.257.017-.1,0-.034a2.837,2.837,0,0,1-.1.36c-.017.069-.12.223,0,.017l-.1.206-.086.154c-.017.034-.154.206-.051.086.086-.12-.051.034-.069.069l-.154.154-.086.069c0-.017.171-.12.068-.069l-.171.12-.137.069c.171-.1.137-.051.051-.034l-.1.034-.188.051c-.137.034.171-.017.069-.017H18.95c-.154,0,.171.034.069.017l-.137-.034-.154-.051c-.034,0-.154-.051-.017,0s0,0-.017-.017l-.171-.086-.086-.068c-.12-.069.137.12.034.034l-.274-.274-.069-.069c-.086-.1.086.137.034.051l-.12-.188-.1-.188c-.069-.137.051.154.034.051l-.051-.12-.051-.223-.017-.069c.069.223.017.12.017.034a.966.966,0,0,1,0-.223c0-.069.034-.137-.017.086l.017-.12.069-.206c.034-.137-.086.137-.034.069l.069-.137a.8.8,0,0,0-.274-1.1.82.82,0,0,0-1.1.291" transform="translate(262.447 481.522)" fill="#421659"/>
      <path id="Trazado_1096505" data-name="Trazado 1096505" d="M16.547,30.7a14.007,14.007,0,0,0,.325,5.72.839.839,0,0,0,.993.565.814.814,0,0,0,.548-.993,11.99,11.99,0,0,1-.325-4.863.848.848,0,0,0-.565-.993.806.806,0,0,0-.976.565" transform="translate(264.353 485.592)" fill="#421659"/>
      <path id="Trazado_1096506" data-name="Trazado 1096506" d="M121.067,25.246a124.508,124.508,0,0,1,1.73,49.046c-1.027,6.233-2.671,12.672-6.884,17.365-5.874,6.542-15.275,8.288-23.992,9.35a391.675,391.675,0,0,1-45,2.963c-10.874.1-23.1-.856-30.208-9.076-5.925-6.833-6.473-16.663-6.507-25.687q-.077-22.862,1.867-45.672c35.825-4.881,73.243-3.665,109,1.713" transform="translate(164.423 330.002)" fill="#a9c66a"/>
      <path id="Trazado_1096507" data-name="Trazado 1096507" d="M10.515,21.549v7.758a.8.8,0,0,0,1.593,0V21.549a.8.8,0,0,0-1.593,0" transform="translate(169.554 335.035)" fill="#421659"/>
      <path id="Trazado_1096508" data-name="Trazado 1096508" d="M10.483,22.52V27.5a.8.8,0,1,0,1.593,0V22.52a.812.812,0,0,0-.788-.8.827.827,0,0,0-.8.8" transform="translate(169.038 350.144)" fill="#421659"/>
      <path id="Trazado_1096509" data-name="Trazado 1096509" d="M10.45,23.361v5.548a.8.8,0,0,0,1.593,0V23.361a.8.8,0,1,0-1.593,0" transform="translate(168.506 363.705)" fill="#421659"/>
      <path id="Trazado_1096510" data-name="Trazado 1096510" d="M10.483,24.236c.223,2.209.445,4.418.685,6.644a.8.8,0,0,0,.788.788.812.812,0,0,0,.8-.788c-.24-2.226-.462-4.435-.685-6.644a.8.8,0,1,0-1.593,0" transform="translate(168.969 377.815)" fill="#421659"/>
      <path id="Trazado_1096511" data-name="Trazado 1096511" d="M10.681,25.282a10.541,10.541,0,0,0,2.928,4.812.823.823,0,0,0,1.13,0,.806.806,0,0,0,0-1.13,7.726,7.726,0,0,1-.89-.942l-.086-.1c-.017-.034-.12-.154-.034-.051l-.171-.24a6.2,6.2,0,0,1-.377-.548c-.205-.36-.411-.719-.582-1.1,0-.017-.086-.205-.051-.12s-.017-.051-.017-.069l-.12-.308a3.915,3.915,0,0,1-.205-.634.793.793,0,0,0-.959-.548.78.78,0,0,0-.565.976" transform="translate(171.665 391.376)" fill="#421659"/>
      <path id="Trazado_1096512" data-name="Trazado 1096512" d="M11.483,26.273c1.319.7,2.637,1.387,3.939,2.089a.815.815,0,0,0,1.1-.274.8.8,0,0,0-.291-1.1c-1.3-.7-2.62-1.4-3.939-2.089a.8.8,0,0,0-1.1.274.82.82,0,0,0,.291,1.1" transform="translate(178.929 399.804)" fill="#fec600"/>
      <path id="Trazado_1096513" data-name="Trazado 1096513" d="M12.582,26.61h4.435a.815.815,0,0,0,.8-.8.824.824,0,0,0-.8-.788H12.582a.812.812,0,0,0-.8.788.827.827,0,0,0,.8.8" transform="translate(189.903 403.389)" fill="#421659"/>
      <path id="Trazado_1096514" data-name="Trazado 1096514" d="M13.327,27.062a13.63,13.63,0,0,0,5.754-.548.806.806,0,0,0,.565-.976.79.79,0,0,0-.976-.548,12.544,12.544,0,0,1-5.343.48.8.8,0,0,0-.8.788.827.827,0,0,0,.8.8" transform="translate(201.916 402.372)" fill="#421659"/>
      <path id="Trazado_1096515" data-name="Trazado 1096515" d="M14.4,27.658a15.874,15.874,0,0,1,5.326-1.147.812.812,0,0,0,.788-.8.8.8,0,0,0-.788-.788,17.018,17.018,0,0,0-5.754,1.2.837.837,0,0,0-.548.993.8.8,0,0,0,.976.548" transform="translate(216.031 401.792)" fill="#421659"/>
      <path id="Trazado_1096516" data-name="Trazado 1096516" d="M15.276,26.983c1.284-.188,2.586-.394,3.87-.582a.785.785,0,0,0,.565-.976.845.845,0,0,0-.976-.565c-1.3.206-2.586.394-3.887.582a.8.8,0,0,0,.428,1.541" transform="translate(230.107 400.704)" fill="#421659"/>
      <path id="Trazado_1096517" data-name="Trazado 1096517" d="M16.032,27.822,21.049,26.3a.8.8,0,0,0-.428-1.541c-1.678.514-3.339,1.028-5.035,1.524a.8.8,0,0,0,.445,1.541" transform="translate(242.092 398.734)" fill="#421659"/>
      <path id="Trazado_1096518" data-name="Trazado 1096518" d="M16.87,28.723c1.284-.942,2.569-1.884,3.836-2.826a.795.795,0,1,0-.8-1.37c-1.267.942-2.552,1.884-3.836,2.826a.794.794,0,1,0,.8,1.37" transform="translate(252.625 393.501)" fill="#421659"/>
      <path id="Trazado_1096519" data-name="Trazado 1096519" d="M17.793,29.3c.548-1.473,1.147-2.945,1.7-4.418a.8.8,0,0,0-.548-.976.837.837,0,0,0-.993.548l-1.7,4.418a.794.794,0,0,0,.548.993.848.848,0,0,0,.993-.565" transform="translate(261.309 385.097)" fill="#421659"/>
      <path id="Trazado_1096520" data-name="Trazado 1096520" d="M18,29.524c.24-1.849.462-3.682.7-5.531a.8.8,0,0,0-.788-.788.812.812,0,0,0-.8.788c-.24,1.849-.462,3.682-.7,5.531a.812.812,0,0,0,.788.8.827.827,0,0,0,.8-.8" transform="translate(264.51 374.17)" fill="#421659"/>
      <path id="Trazado_1096521" data-name="Trazado 1096521" d="M18.01,29.361c.171-2.038.342-4.076.514-6.1a.8.8,0,1,0-1.593,0c-.171,2.021-.342,4.059-.514,6.1a.812.812,0,0,0,.788.8.827.827,0,0,0,.8-.8" transform="translate(264.705 362.157)" fill="#421659"/>
      <path id="Trazado_1096522" data-name="Trazado 1096522" d="M18.719,28.7c-.257-2.021-.5-4.059-.7-6.079a.868.868,0,0,0-.822-.8.812.812,0,0,0-.788.8l.7,6.079a.8.8,0,1,0,1.61,0" transform="translate(264.494 351.708)" fill="#421659"/>
      <path id="Trazado_1096523" data-name="Trazado 1096523" d="M18.58,26.161c-.223-1.473-.462-2.946-.685-4.418a.8.8,0,0,0-.976-.548.82.82,0,0,0-.565.976c.24,1.473.462,2.945.685,4.418a.8.8,0,0,0,.976.548.806.806,0,0,0,.565-.976" transform="translate(263.485 341.28)" fill="#421659"/>
      <path id="Trazado_1096524" data-name="Trazado 1096524" d="M17.9,23.758V21.532a.8.8,0,0,0-1.593,0v2.226a.812.812,0,0,0,.788.8.827.827,0,0,0,.8-.8" transform="translate(262.998 334.486)" fill="#421659"/>
      <path id="Trazado_1096525" data-name="Trazado 1096525" d="M13.221,45.844A127.714,127.714,0,0,1,38.549,24.352c.856-.548.069-1.935-.8-1.37A129.746,129.746,0,0,0,12.091,44.714c-.685.754.445,1.884,1.13,1.13" transform="translate(191.541 368.434)" fill="#421659"/>
      <path id="Trazado_1096526" data-name="Trazado 1096526" d="M14.581,39.1q8.246-7.552,16.508-15.1c.771-.685-.36-1.815-1.13-1.13q-8.246,7.552-16.508,15.1c-.753.7.377,1.815,1.13,1.13" transform="translate(212.889 365.198)" fill="#421659"/>
      <path id="Trazado_1096527" data-name="Trazado 1096527" d="M19.006,22.058C20,35.535,20.821,49.047,20.838,62.575a272.313,272.313,0,0,1-2.791,40.381c-1.918,13.015-4.555,25.91-6.473,38.925-.959,6.507-1.747,13.032-2.175,19.591-.428,6.8-.462,13.614-.428,20.413.086,15.293.24,30.568.377,45.843a.8.8,0,0,0,1.593,0q-.18-20.473-.343-40.929c-.051-6.816-.1-13.631.154-20.43.257-6.679.89-13.323,1.781-19.933,1.747-13.1,4.4-26.064,6.456-39.113a275.528,275.528,0,0,0,3.425-39.884c.188-15.156-.7-30.277-1.815-45.381-.069-1.01-1.661-1.027-1.593,0" transform="translate(144.486 343.346)" fill="#421659"/>
      <path id="Trazado_1096528" data-name="Trazado 1096528" d="M17.779,21.9c-1.387,13.94-.428,27.965,1.353,41.836C20.913,77.714,23.5,91.585,25.3,105.576c.908,7,1.627,14.042,1.935,21.1.308,7.073.171,14.145-.223,21.2-.771,14.265-2.432,28.479-2.809,42.761a157.579,157.579,0,0,0,.685,21.269c.36,3.425.856,6.85,1.541,10.241.5,2.569,1.079,5.275,2.689,7.4a6.956,6.956,0,0,0,2.74,2.226c.925.411,1.747-.959.8-1.37-2.5-1.113-3.528-3.733-4.161-6.216a78.014,78.014,0,0,1-1.747-9.915,151.432,151.432,0,0,1-1.027-20.841c.205-14.077,1.8-28.085,2.689-42.127.445-7.021.7-14.042.531-21.081-.171-6.918-.754-13.837-1.558-20.7-1.61-13.751-4.11-27.383-6.028-41.083s-3.254-27.571-2.4-41.408c.1-1.713.24-3.425.411-5.12.1-1.027-1.49-1.01-1.593,0" transform="translate(276.016 340.862)" fill="#421659"/>
      <path id="Trazado_1096529" data-name="Trazado 1096529" d="M18.756,20.518,33.432,255.9h-9.71L10.708,21.066Z" transform="translate(172.658 330.843)" fill="#421659"/>
      <path id="Trazado_1096530" data-name="Trazado 1096530" d="M29.306,20.519,14.63,255.9h9.71L37.355,21.067Z" transform="translate(235.905 330.851)" fill="#421659"/>
      <path id="Trazado_1096531" data-name="Trazado 1096531" d="M25.069,256.648H14.606L29.333,20.495l8.8.582Zm-9.658-.754h8.956L37.348,21.779l-7.312-.48Z" transform="translate(235.521 330.472)" fill="#421659"/>
      <path id="Trazado_1096532" data-name="Trazado 1096532" d="M22.353,48.946A11.765,11.765,0,1,1,34.118,37.181,11.785,11.785,0,0,1,22.353,48.946m0-20.7a8.931,8.931,0,1,0,8.939,8.939,8.946,8.946,0,0,0-8.939-8.939" transform="translate(170.731 409.823)" fill="#fff"/>
      <path id="Trazado_1096533" data-name="Trazado 1096533" d="M13.637,31.841c-.12-1.747-.223-3.511-.343-5.257a1.067,1.067,0,0,0-1.062-1.062,1.078,1.078,0,0,0-1.062,1.062c.12,1.747.223,3.511.342,5.257A1.078,1.078,0,0,0,12.576,32.9a1.067,1.067,0,0,0,1.062-1.062" transform="translate(180.114 411.498)" fill="#fff"/>
      <path id="Trazado_1096534" data-name="Trazado 1096534" d="M26.432,48.946A11.765,11.765,0,1,1,38.2,37.181,11.785,11.785,0,0,1,26.432,48.946m0-20.7a8.931,8.931,0,1,0,8.939,8.939,8.946,8.946,0,0,0-8.939-8.939" transform="translate(236.504 409.823)" fill="#fff"/>
      <path id="Trazado_1096535" data-name="Trazado 1096535" d="M17.44,31.841c.12-1.747.223-3.511.342-5.257A1.071,1.071,0,0,0,16.7,25.521a1.09,1.09,0,0,0-1.062,1.062c-.1,1.747-.223,3.511-.325,5.257A1.078,1.078,0,0,0,16.378,32.9a1.09,1.09,0,0,0,1.062-1.062" transform="translate(246.952 411.498)" fill="#fff"/>
      <path id="Trazado_1096536" data-name="Trazado 1096536" d="M10.776,16.944c2.654-2.4,5.994-3.887,9.316-5.257A201.385,201.385,0,0,1,55.951.812,24.29,24.29,0,0,1,64.617.178c5.548.873,9.881,5.155,13.563,9.4A4.429,4.429,0,0,1,79.6,12.252a3.966,3.966,0,0,1-.719,2.158C74.446,21.79,65.13,24.17,57,26.979c-8.6,2.98-16.782,7.124-25.448,9.967-7.038,2.329-15.7,4.487-23.119,2.689C1.734,38.007,3.275,31.6,4.953,26.5a21.894,21.894,0,0,1,5.822-9.556" transform="translate(56.559 -0.016)" fill="#ee6468"/>
      <path id="Trazado_1096537" data-name="Trazado 1096537" d="M167.3,18.983c7.946,21.252-22.468,52.265-67.952,69.287C53.863,105.275,10.554,101.85,2.59,80.6-5.356,59.346,25.075,28.316,70.559,11.311c45.484-17.022,88.793-13.58,96.739,7.672" transform="translate(21.436 7.929)" fill="#fcbf5c"/>
      <path id="Trazado_1096538" data-name="Trazado 1096538" d="M39.457,85.683c-2.312,0-4.572-.086-6.764-.257C16.955,84.176,6.44,78.559,3.084,69.585-3.749,51.3,22.178,24.615,60.915,10.128,99.634-4.36,136.71-1.26,143.56,17.046c3.356,8.956-.891,20.1-11.936,31.373C120.715,59.55,104.412,69.517,85.746,76.5,69.7,82.5,53.551,85.683,39.457,85.683M107.34,2.4c-13.494,0-29.541,2.98-45.912,9.11C23.463,25.711-2.088,51.536,4.471,69.072,7.6,77.48,17.674,82.754,32.8,83.953c15.327,1.216,33.959-1.918,52.437-8.819,18.478-6.918,34.575-16.765,45.347-27.742,10.617-10.84,14.745-21.44,11.611-29.832C138.456,7.593,125.116,2.4,107.34,2.4" transform="translate(32.108 16.168)" fill="#fff"/>
      <path id="Trazado_1096539" data-name="Trazado 1096539" d="M37.012,9.122A111.724,111.724,0,0,1,51.774,6.056q9.3-1.49,18.6-3C78.643,1.724,87.65.474,95.082,3.813c8.922,4.024,12.707,13.974,10.566,22.5a16.1,16.1,0,0,1-4.435,7.963c-4.572,4.3-11.919,5.274-18.666,5.326-15.892.086-33.1-3.374-46.8,3.665-5.018,2.569-9.042,6.37-13.94,9.11C17.8,54.623,10.331,57.346,6.016,54.195c-3.665-2.671-2.4-8.169-1.627-11.7a41.016,41.016,0,0,1,5.874-13.631,47.971,47.971,0,0,1,10.6-11.388A50.381,50.381,0,0,1,35.2,9.7c.6-.206,1.2-.394,1.815-.582" transform="translate(57.021 27.054)" fill="#ee6468"/>
      <path id="Trazado_1096540" data-name="Trazado 1096540" d="M34.071,162.877c-6.285,1.1-12.9,1.182-18.872-1.01-5.994-2.192-11.251-6.936-12.946-13.083s.908-13.529,6.61-16.354c-4.949-2.226-7.175-8.391-6.37-13.768.8-5.36,3.973-10.069,7.329-14.334a7.245,7.245,0,0,0,1.712-3.185c.223-1.49-.548-2.928-1.164-4.3a24.691,24.691,0,0,1,3.185-25.02A24.664,24.664,0,0,1,37.291,63.3C32.6,55.213,38.473,43.243,47.72,41.975a20.749,20.749,0,0,1,2.534-22.947,20.775,20.775,0,0,1,22.4-5.6A12.151,12.151,0,0,1,93.238,5.362c3.853-3.562,12.279-1.147,13.015,4.059a13.624,13.624,0,0,1,17.039,1.986,13.645,13.645,0,0,1,.719,17.142c8.785,2.98,12.809,15.19,7.518,22.81,7.107.051,12.433,7.347,12.9,14.453.479,7.09-2.586,13.871-5.566,20.327,5.377-.788,10.052,4.607,10.549,10.018.514,5.411-1.884,10.617-4.23,15.515,6.542,7.3,5.018,20.242-3.031,25.842,4.47,4.761,3.014,12.981-1.541,17.673-4.555,4.675-11.217,6.559-17.656,7.689-5.223.925-10.635,1.456-15.772.154-5.411-1.37-10.121-4.658-15.378-6.576-11.542-4.2-24.557-1.267-35.705,3.887-3.442,1.593-6.953,3.425-10.737,3.425-3.785.017-11.114,2.894-11.285-.89" transform="translate(28.092 31.979)" fill="#421659"/>
      <path id="Trazado_1096541" data-name="Trazado 1096541" d="M41.479,12.841A208.556,208.556,0,0,0,21.819,41.388,212.582,212.582,0,0,0,7.075,72.966Q3.658,82.188,1.149,91.684a1.1,1.1,0,0,0,2.123.582A205.442,205.442,0,0,1,14.764,60,207.905,207.905,0,0,1,31.512,29.949q5.394-8.04,11.525-15.549c.89-1.1-.668-2.654-1.558-1.558" transform="translate(17.876 201.024)" fill="#421659"/>
      <path id="Trazado_1096542" data-name="Trazado 1096542" d="M9.616,32.405C5.164,43.485,4.975,55.8,5.78,67.7a228.5,228.5,0,0,0,7.21,43.549c.873,3.237,1.969,6.713,4.709,8.648,2.123,1.524,4.881,1.832,7.484,1.987a94.776,94.776,0,0,0,21.458-1.25c6.456-1.113,13.34-3.288,16.937-8.751,2.055-3.1,2.757-6.884,3.339-10.566,4.555-28.6,4.23-59.972-12.124-83.861-2.072-3.014-4.452-5.959-7.655-7.706C41.554,6.7,35.029,9.2,29.584,11.341A34.419,34.419,0,0,0,14.839,23.055a42.425,42.425,0,0,0-5.223,9.35" transform="translate(87.225 134.332)" fill="#fff"/>
      <path id="Trazado_1096543" data-name="Trazado 1096543" d="M3.425,34.506V47.093H42.11S40.6,39.729,18.957,35.379Z" transform="translate(55.228 556.398)" fill="#421659"/>
      <path id="Trazado_1096544" data-name="Trazado 1096544" d="M6.294,34.506V47.093H44.979s-1.507-7.364-23.153-11.713Z" transform="translate(101.49 556.398)" fill="#421659"/>
      <path id="Trazado_1096545" data-name="Trazado 1096545" d="M101.908,14.3a578.712,578.712,0,0,1-69.048,5.514C22.295,28.7,9.93,33.392,7.293,46.938c-8.562,43.943-2.774,98.879,1.969,143.387-3.785,2.774-3.956,10.138.445,11.765-4.949,14.539-6.439,31.339-6.319,46.7a943.461,943.461,0,0,0,7.484,111.432,46.381,46.381,0,0,0,17.776.582c8.306-75.624,19.334-158.354,27.64-233.961,2.329-21.286.8-35.808,11.251-54.492,10.583-18.94,29.643-36.887,34.37-58.054" transform="translate(46.804 230.546)" fill="#7d8c48"/>
      <path id="Trazado_1096546" data-name="Trazado 1096546" d="M35.286,16.848C24.72,25.736,20.1,40.155,17.459,53.684a450.583,450.583,0,0,0-5.771,133.677c-3.785,2.774-3.956,10.138.445,11.765-4.949,14.539-6.439,31.339-6.319,46.7A943.46,943.46,0,0,0,13.3,357.257a46.723,46.723,0,0,0,17.776.582C39.379,282.216,46.332,206.9,54.637,131.277,56.984,110.008,69.724-3.188,35.286,16.848" transform="translate(93.647 233.51)" fill="#7d8c48"/>
      <path id="Trazado_1096547" data-name="Trazado 1096547" d="M7.654,96.081a242.72,242.72,0,0,1,6.079-37.606c1.421-5.857,3.014-11.679,4.949-17.382a56.126,56.126,0,0,1,6.011-12.964c2.86-4.367,6.747-8.049,11.748-9.727,1.045-.343.6-1.969-.445-1.627-9.419,3.134-14.625,12.261-17.947,21.047A167.609,167.609,0,0,0,12.843,55.05q-2.44,9.5-4.11,19.2c-1.25,7.227-2.175,14.522-2.774,21.834-.086,1.079,1.61,1.079,1.7,0" transform="translate(96.037 269.733)" fill="#fff"/>
      <path id="Trazado_1096548" data-name="Trazado 1096548" d="M8.293,26.075c3.1-2.38,6.2-4.744,9.316-7.124A.854.854,0,0,0,17.9,17.8a.844.844,0,0,0-1.147-.308c-3.1,2.38-6.216,4.744-9.316,7.124a.844.844,0,1,0,.856,1.456" transform="translate(113.225 280.127)" fill="#fff"/>
      <path id="Trazado_1096549" data-name="Trazado 1096549" d="M6.477,24.244a184.964,184.964,0,0,0,39.285-4.829c3.682-.856,7.347-1.849,10.96-2.928a.844.844,0,0,0-.445-1.627,183.135,183.135,0,0,1-38.651,7.192q-5.574.411-11.148.5a.848.848,0,0,0,0,1.7" transform="translate(91.289 238.975)" fill="#fff"/>
      <path id="Trazado_1096550" data-name="Trazado 1096550" d="M13.926,18.557c-2.757,18.2-5.514,36.459-6.439,54.868a218.353,218.353,0,0,0,.24,27.605c.325,4.435.839,8.871,1.524,13.272.719,4.675,1.747,9.384,1.421,14.145A55.034,55.034,0,0,1,9.4,135.11a16.982,16.982,0,0,0-.051,5.737,44.527,44.527,0,0,1-.12,13.82c-.736,4.555-1.9,9.008-2.826,13.512-.908,4.333-1.575,8.7-2.055,13.083-2.038,18.255-.856,36.664.308,54.92q1.824,28.256,3.87,56.512l.514,6.987c.086,1.079,1.781,1.1,1.7,0q-2.055-28.1-3.9-56.221c-1.2-18.255-2.689-36.613-1.456-54.9A184.875,184.875,0,0,1,9.61,161.5a73.935,73.935,0,0,0,1.969-13.255,37.359,37.359,0,0,0-.36-6.336,18.34,18.34,0,0,1-.086-6.833,49.12,49.12,0,0,0,1.182-6.1,33.074,33.074,0,0,0-.171-6.764c-.514-4.538-1.438-9.025-1.986-13.563A197.534,197.534,0,0,1,8.908,81.1c.377-18.546,2.877-36.973,5.617-55.3L15.552,19c.171-1.062-1.456-1.524-1.627-.445" transform="translate(52.331 289.306)" fill="#fff"/>
      <path id="Trazado_1096551" data-name="Trazado 1096551" d="M7.929,35.686a21.076,21.076,0,0,1,8.836-9.607.84.84,0,0,0-.839-1.456A22.46,22.46,0,0,0,6.473,34.829a.892.892,0,0,0,.291,1.165.872.872,0,0,0,1.165-.308" transform="translate(102.767 395.186)" fill="#fff"/>
      <path id="Trazado_1096552" data-name="Trazado 1096552" d="M7.977,33.186q3.879-3.442,7.775-6.884c.8-.719-.394-1.918-1.2-1.2-2.586,2.295-5.189,4.589-7.775,6.884-.8.719.394,1.918,1.2,1.2" transform="translate(104.996 401.197)" fill="#fff"/>
      <path id="Trazado_1096553" data-name="Trazado 1096553" d="M6.21,28.09c-.651,3.922-.925,8.049.428,11.782,2.928,7.98,12.69,9.864,21.184,10.1,12.159.342,18.084-4.5,18.17-12.827C46.077,30.111,38.816,20.624,34,15.5c-1.661-1.747-3.305-3.493-4.966-5.24a10.862,10.862,0,0,0-3.973-3.1c-2.295-.856-4.778-.12-7.021.514-1.73.5-3.853.8-5.36,1.849a6.767,6.767,0,0,0-2.123,3.254,71.506,71.506,0,0,0-2.449,6.97,69.916,69.916,0,0,0-1.9,8.34" transform="translate(91.454 109.243)" fill="#f5ba9c"/>
      <path id="Trazado_1096554" data-name="Trazado 1096554" d="M6.25,13.064C7.774,16.369,11.3,18,14.127,16.695s3.887-5.035,2.363-8.34-5.052-4.932-7.877-3.63S4.726,9.759,6.25,13.064" transform="translate(89.547 68.938)" fill="#f5ba9c"/>
      <path id="Trazado_1096555" data-name="Trazado 1096555" d="M16.783,48.814h0c-6.011,0-10.891-3.476-10.891-7.758L9.642,4.871,27.555,17.184,25.329,42.255c0,4.3-2.534,6.559-8.545,6.559" transform="translate(95.008 78.536)" fill="#f5ba9c"/>
      <path id="Trazado_1096556" data-name="Trazado 1096556" d="M6.114,4.963S10.4,19.3,23.958,16.4l-1.37,14.762S13.8,41.782,6.114,4.963" transform="translate(98.588 80.019)" fill="#421659"/>
      <path id="Trazado_1096557" data-name="Trazado 1096557" d="M7.006,10.253C6,13.13,6.013,21.846,6.013,25.631c0,15.258,7.5,33.462,20.31,33.462C40.109,59.076,46.6,40.872,46.6,25.614c0-3.785-1.113-11.9-2.123-14.762L28.943,2.872Z" transform="translate(96.959 46.302)" fill="#f5ba9c"/>
      <path id="Trazado_1096558" data-name="Trazado 1096558" d="M14.668,7.543c0,1.575-1.815,2.86-4.041,2.86S6.585,9.135,6.585,7.543c0-1.575,1.815-2.86,4.041-2.86s4.041,1.284,4.041,2.86" transform="translate(106.183 75.504)" fill="#ee6468"/>
      <path id="Trazado_1096559" data-name="Trazado 1096559" d="M15.071,7.12c0,1.336-1.627,2.432-3.63,2.432S7.81,8.473,7.81,7.12c0-1.336,1.627-2.432,3.63-2.432s3.63,1.1,3.63,2.432" transform="translate(125.936 75.585)" fill="#ee6468"/>
      <path id="Trazado_1096560" data-name="Trazado 1096560" d="M6.571,9.316S17.086-.89,17.668,6.611Z" transform="translate(105.957 62.206)" fill="#421659"/>
      <path id="Trazado_1096561" data-name="Trazado 1096561" d="M17.764,9.252S11.5-.047,7.729,5.81Z" transform="translate(124.63 62.458)" fill="#421659"/>
      <path id="Trazado_1096562" data-name="Trazado 1096562" d="M10.14,6.6c0,1.25-.719,2.26-1.61,2.26S6.9,7.849,6.9,6.6s.736-2.26,1.627-2.26,1.61,1.01,1.61,2.26" transform="translate(111.31 69.941)" fill="#421659"/>
      <path id="Trazado_1096563" data-name="Trazado 1096563" d="M10.94,6.447c0,1.164-.668,2.089-1.49,2.089-.839,0-1.507-.925-1.507-2.089,0-1.147.668-2.089,1.507-2.089.822,0,1.49.925,1.49,2.089" transform="translate(128.08 70.264)" fill="#421659"/>
      <path id="Trazado_1096564" data-name="Trazado 1096564" d="M8.038,5.351a7.375,7.375,0,0,0-.822,2.4A2.946,2.946,0,0,0,7.85,9.889c1.045,1.319,3.048.925,4.076-.188a6.813,6.813,0,0,0,1.25-2.123.955.955,0,0,0,.086-.651.841.841,0,0,0-1.541-.206,9.779,9.779,0,0,1-.5,1.045,2.972,2.972,0,0,1-.257.445c-.017.017-.188.257-.069.1l-.188.223-.205.188c-.069.068-.069.051.017-.017l-.1.086-.171.1-.12.051c.1-.034.12-.051.017-.017l-.24.086-.12.017c.12,0,.12-.017.034,0H9.562c-.171,0,.154.051-.051,0-.051-.017-.291-.069-.069-.017L9.22,8.9c.086.069.1.069.017.017l-.086-.086-.069-.086c.069.086.069.086.017.017-.034-.069-.12-.154-.12-.223l.034.086L8.98,8.5l-.069-.24c-.017-.1-.017-.086,0,.034l-.017-.137v-.24a1.1,1.1,0,1,0,.017-.137,3.206,3.206,0,0,1,.137-.548l.1-.291c.034-.086.034-.1,0-.017l.068-.154.274-.565A.871.871,0,0,0,9.2,5.042a.856.856,0,0,0-1.164.308" transform="translate(116.083 79.58)" fill="#421659"/>
      <path id="Trazado_1096565" data-name="Trazado 1096565" d="M3.871,217.03C-1.01,201.5,5.669,183.4,7.313,167.317c.8-7.86,2.4-15.721,1.986-23.615-.342-6.353-1.969-12.621-2.192-18.992-.205-5.463.651-10.926,1.49-16.337q3.571-23.067,7.175-46.117c1.1-7.073,2.226-14.265,5.394-20.824C29.2,24.769,48.516,15.144,66.514,6.736c6.713,14.556,7.946,29.592,6.456,45.3-1.49,15.686-4.624,31.3-4.281,47.059.342,15.823,4.178,31.733,1.473,47.385-1.815,10.48-6.525,20.516-7.312,31.1-.36,4.829.1,9.71-.839,14.471-1.849,9.265-9.2,17.348-18.615,21.577-9.419,4.213-29.386,5.977-39.524,3.408" transform="translate(34.129 108.609)" fill="#a9c66a"/>
      <path id="Trazado_1096566" data-name="Trazado 1096566" d="M46.174,218.529c-17.656,0-18.187-30.071-17.211-44.336,1.593-23.239,5.446-46.323,5.822-69.63.377-23.29-2.98-47.316-14.727-67.438C14.424,27.483,6.667,17.978,7.043,6.813,13.893,12.79,20.915,18.424,27.782,24.4a37.01,37.01,0,0,1,6.97,7.3c3.185,4.881,3.87,10.943,5.908,16.406,1.73,4.675,4.47,8.939,6.268,13.6,3.785,9.8,3.237,20.653,2.654,31.133-1.85,32.349-4.281,57.163-2.26,89.495.582,9.282,1.712,27.349-1.147,36.2" transform="translate(113.362 109.85)" fill="#a9c66a"/>
      <path id="Trazado_1096567" data-name="Trazado 1096567" d="M7.952,32.756A131.142,131.142,0,0,1,27.886,13.1c.856-.668-.36-1.867-1.2-1.2A131.141,131.141,0,0,0,6.754,31.557c-.685.839.514,2.038,1.2,1.2" transform="translate(105.603 188.678)" fill="#421659"/>
      <path id="Trazado_1096568" data-name="Trazado 1096568" d="M8.8,23.2a57.125,57.125,0,0,1,9.778-9.727.828.828,0,0,0,0-1.2.837.837,0,0,0-1.182,0,57.228,57.228,0,0,0-9.8,9.727.892.892,0,0,0,0,1.2.858.858,0,0,0,1.2,0" transform="translate(118.897 194.034)" fill="#421659"/>
      <path id="Trazado_1096569" data-name="Trazado 1096569" d="M58.205,7.962a97.573,97.573,0,0,1,5.052,44.782C62.3,60.5,60.363,68.088,59.164,75.811A81.858,81.858,0,0,0,58.1,87.217a92.569,92.569,0,0,0,.7,11.731c.89,7.689,2.38,15.31,3.014,23.033a84.272,84.272,0,0,1-1.627,23.547c-1.575,7.843-3.613,15.584-5.5,23.341-.959,3.922-1.9,7.826-2.86,11.731-.856,3.493-1.49,7.244-3.2,10.446-3.288,6.148-10.84,8.22-17.108,9.9A92.6,92.6,0,0,1,8.7,204.06c-1.918.017-3.836-.017-5.737-.12-1.1-.051-1.1,1.644,0,1.7a94.5,94.5,0,0,0,23.239-1.73,88.324,88.324,0,0,0,11.285-3,28.375,28.375,0,0,0,8.528-4.23,16.484,16.484,0,0,0,5.463-8.049c1.233-3.631,1.969-7.449,2.86-11.165,1.952-8,3.922-15.978,5.822-23.975,1.867-7.895,3.528-15.909,3.63-24.043.086-7.826-1.182-15.584-2.312-23.29-1.182-7.963-2.123-15.943-1.421-23.992.7-7.912,2.637-15.652,3.99-23.461a100.405,100.405,0,0,0-2.4-45.655C61.1,11.182,60.5,9.332,59.832,7.517c-.36-1.027-2-.582-1.627.445" transform="translate(34.475 111.801)" fill="#421659"/>
      <path id="Trazado_1096570" data-name="Trazado 1096570" d="M7.578,8.618C14.137,20.109,20.764,31.685,25.44,44.1a111.886,111.886,0,0,1,6.936,39.148c.051,13.6-1.712,27.109-3.545,40.552-1.85,13.529-3.836,27.057-4.281,40.723-.206,6.4-.188,13.1,2.312,19.129,1.986,4.778,5.72,9.025,10.669,10.823a14.212,14.212,0,0,0,3.785.8c1.079.086,1.079-1.61,0-1.7-5.377-.428-9.778-4.418-12.176-9.042-2.945-5.668-3.1-12.364-2.945-18.615.342-13.563,2.26-27.023,4.093-40.449C32.1,112.292,33.9,99.038,34.053,85.7a114.469,114.469,0,0,0-5.771-38.685c-4.23-12.313-10.463-23.8-16.868-35.089-.788-1.387-1.593-2.774-2.38-4.161a.845.845,0,0,0-1.456.856" transform="translate(120.259 118.56)" fill="#421659"/>
      <path id="Trazado_1096571" data-name="Trazado 1096571" d="M7.453,5.382a3.342,3.342,0,0,0,.925,2.175A8.146,8.146,0,0,0,10.3,8.738c.051.034.051.034,0-.017l.051.086.086.069c-.034-.069-.034-.069,0,.017l.12.188c.086.154-.017-.1.017.068l.069.223c-.051-.188,0,.017,0,.069,0,.068-.051.205,0,.068,0,.034-.1.257-.069.171.069-.086-.051.1-.051.12-.051.051-.051.034,0-.034l-.086.1c-.12.12.1-.051-.034.034l-.205.1c.205-.086-.017-.017-.034,0-.188.068.12.017-.069.017-.086,0-.188-.017-.034.017-.068-.017-.325-.1-.12-.034a.914.914,0,0,0-1.182.308.893.893,0,0,0,.308,1.164,2.362,2.362,0,0,0,2.586-.411,2.388,2.388,0,0,0,.462-2.6,2.519,2.519,0,0,0-.873-1.113,7.335,7.335,0,0,0-1.079-.582l-.291-.137-.12-.086c.086.051.051.034-.017-.017l-.171-.171-.1-.12c.051.069.051.051-.017-.017l-.154-.274c-.086-.154.017.086-.051-.086l-.069-.308L9.114,5.4c.034.086.034.086.034-.017a.882.882,0,0,0-.873-.839.815.815,0,0,0-.822.839" transform="translate(120.111 73.213)" fill="#421659"/>
      <path id="Trazado_1096572" data-name="Trazado 1096572" d="M7.782,6.98a2.835,2.835,0,0,1,.36.1L7.936,7a1.668,1.668,0,0,1,.411.257l-.171-.137.188.154a.526.526,0,0,0,.257.171.59.59,0,0,0,.343.069.562.562,0,0,0,.325-.069.526.526,0,0,0,.257-.171.906.906,0,0,0,.257-.6.872.872,0,0,0-.257-.6,3.1,3.1,0,0,0-.36-.308l-.24-.154A3.476,3.476,0,0,0,8.5,5.421l-.274-.069A.53.53,0,0,0,7.9,5.336a.564.564,0,0,0-.325.1.7.7,0,0,0-.24.205.952.952,0,0,0-.154.291l-.017.223a.879.879,0,0,0,.1.428.848.848,0,0,0,.514.394" transform="translate(115.535 85.726)" fill="#421659"/>
      <path id="Trazado_1096573" data-name="Trazado 1096573" d="M6.334,6.151l.36.12c.086.034-.068-.034.069.034l.154.068a5.381,5.381,0,0,1,.668.411c.12.086-.137-.12.069.051l.12.1.274.257L8.3,7.47c.171.205-.034-.051.051.069l.12.171a4.017,4.017,0,0,1,.6,1.387l.034.223c0,.017.034.205.017.1l.034.411v.411l-.034.325a.861.861,0,0,0,.582,1.045.878.878,0,0,0,1.045-.6A5.732,5.732,0,0,0,9.93,6.853,5.892,5.892,0,0,0,6.779,4.524a.835.835,0,0,0-1.027.582.853.853,0,0,0,.582,1.045" transform="translate(92.271 72.392)" fill="#421659"/>
      <path id="Trazado_1096574" data-name="Trazado 1096574" d="M89.93,58.857c0,23.615-20.122,42.744-44.953,42.744C20.163,101.6.041,82.472.041,58.857S20.163,16.113,44.977,16.113c24.831,0,44.953,19.129,44.953,42.744" transform="translate(0.661 259.812)" fill="#fcbf5c"/>
      <path id="Trazado_1096575" data-name="Trazado 1096575" d="M5.038,27.788a12.845,12.845,0,0,0-4.024,5.257,13.479,13.479,0,0,0-.377,5.5,74.868,74.868,0,0,0,3.356,16.68c.839,2.535,1.867,5.155,3.9,6.884A13.774,13.774,0,0,0,14.4,64.76c7.86,1.49,15.943.822,23.906.154l15.4-1.284c3.168-.274,6.49-.582,9.162-2.312,2.38-1.507,3.973-3.956,5.36-6.4A80.339,80.339,0,0,0,74.12,41.881a11.631,11.631,0,0,0,.873-5.257A10.744,10.744,0,0,0,71.945,31.2a40.928,40.928,0,0,0-13.289-9.778,57.52,57.52,0,0,0-11.97-3.768,50.609,50.609,0,0,0-9.436-1.627,47.51,47.51,0,0,0-21.732,4.846,46.524,46.524,0,0,0-10.48,6.919" transform="translate(8.542 258.139)" fill="#ee6468"/>
      <rect id="Rectángulo_461177" data-name="Rectángulo 461177" width="10.891" height="11.662" transform="translate(22.879 316.709)" fill="#421659"/>
      <rect id="Rectángulo_461178" data-name="Rectángulo 461178" width="10.891" height="11.662" transform="translate(56.17 315.989)" fill="#421659"/>
      <path id="Trazado_1096576" data-name="Trazado 1096576" d="M1.116,18.091a7.84,7.84,0,0,0-.8,4.127.576.576,0,0,0,.548.548.541.541,0,0,0,.548-.548,6.973,6.973,0,0,1,.668-3.579.58.58,0,0,0-.205-.754.559.559,0,0,0-.753.206" transform="translate(4.587 287.289)" fill="#421659"/>
      <path id="Trazado_1096577" data-name="Trazado 1096577" d="M.219,18.995v4.213a.539.539,0,0,0,1.079,0V18.995a.54.54,0,0,0-1.079,0" transform="translate(3.531 297.791)" fill="#421659"/>
      <path id="Trazado_1096578" data-name="Trazado 1096578" d="M.311,19.792l.771,1.918a.6.6,0,0,0,.257.325.5.5,0,0,0,.411.051.518.518,0,0,0,.342-.257.569.569,0,0,0,.051-.411c-.257-.651-.514-1.284-.771-1.918a.543.543,0,0,0-.257-.325.621.621,0,0,0-.428-.069.685.685,0,0,0-.325.257.535.535,0,0,0-.051.428" transform="translate(4.621 307.868)" fill="#421659"/>
      <path id="Trazado_1096579" data-name="Trazado 1096579" d="M.625,20.456c.394.753.788,1.524,1.182,2.278a.559.559,0,0,0,.753.205.576.576,0,0,0,.205-.754c-.394-.771-.788-1.524-1.182-2.278A.559.559,0,0,0,.831,19.7a.559.559,0,0,0-.205.753" transform="translate(8.982 316.52)" fill="#421659"/>
      <path id="Trazado_1096580" data-name="Trazado 1096580" d="M1.005,21.01,3.3,23.3a.551.551,0,1,0,.788-.771c-.771-.771-1.541-1.541-2.312-2.295a.545.545,0,1,0-.771.771" transform="translate(13.619 323.758)" fill="#421659"/>
      <path id="Trazado_1096581" data-name="Trazado 1096581" d="M1.561,21.448c.771.5,1.541,1.01,2.312,1.507a.57.57,0,0,0,.753-.188.55.55,0,0,0-.188-.753C3.667,21.5,2.879,21,2.109,20.489a.559.559,0,0,0-.753.206.576.576,0,0,0,.205.753" transform="translate(20.805 329.21)" fill="#421659"/>
      <path id="Trazado_1096582" data-name="Trazado 1096582" d="M2.421,21.809c1.661.188,3.339.36,5,.548a.541.541,0,0,0,.548-.548.552.552,0,0,0-.548-.548c-1.661-.188-3.339-.377-5-.548a.552.552,0,0,0-.548.548.563.563,0,0,0,.548.548" transform="translate(30.202 333.952)" fill="#421659"/>
      <path id="Trazado_1096583" data-name="Trazado 1096583" d="M3.139,21.913H6.2a.548.548,0,0,0,0-1.1H3.139a.541.541,0,0,0-.548.548.563.563,0,0,0,.548.548" transform="translate(41.763 335.664)" fill="#421659"/>
      <path id="Trazado_1096584" data-name="Trazado 1096584" d="M3.961,22.237l3.048-.462a.54.54,0,0,0,.394-.668.566.566,0,0,0-.685-.394l-3.048.462a.563.563,0,0,0-.394.685.57.57,0,0,0,.685.377" transform="translate(52.585 333.799)" fill="#421659"/>
      <path id="Trazado_1096585" data-name="Trazado 1096585" d="M4.729,23.324l2.312-1.9a.563.563,0,0,0,0-.788.58.58,0,0,0-.788,0c-.771.634-1.541,1.267-2.295,1.918a.543.543,0,0,0,0,.771.559.559,0,0,0,.771,0" transform="translate(61.236 330.246)" fill="#421659"/>
      <path id="Trazado_1096586" data-name="Trazado 1096586" d="M5.134,24.813c1.4-1.267,2.808-2.552,4.23-3.819a.557.557,0,0,0-.788-.788c-1.4,1.284-2.808,2.552-4.213,3.836a.545.545,0,0,0,.771.771" transform="translate(67.767 323.431)" fill="#421659"/>
      <path id="Trazado_1096587" data-name="Trazado 1096587" d="M5.667,23.545c.514-1.027,1.01-2.038,1.524-3.065a.549.549,0,1,0-.942-.565L4.708,23a.552.552,0,1,0,.959.548" transform="translate(74.94 316.89)" fill="#421659"/>
      <path id="Trazado_1096588" data-name="Trazado 1096588" d="M5.989,22.864,6.76,19.8a.551.551,0,0,0-.377-.668.57.57,0,0,0-.685.377l-.771,3.065a.543.543,0,0,0,.377.668.561.561,0,0,0,.685-.377" transform="translate(79.19 308.22)" fill="#421659"/>
      <path id="Trazado_1096589" data-name="Trazado 1096589" d="M6.065,21.682c.137-.771.274-1.524.394-2.295a.535.535,0,0,0-.051-.428.6.6,0,0,0-.325-.257A.572.572,0,0,0,5.4,19.1c-.12.771-.257,1.524-.394,2.295a.615.615,0,0,0,.051.428.567.567,0,0,0,.325.24.548.548,0,0,0,.685-.377" transform="translate(80.399 301.389)" fill="#421659"/>
      <path id="Trazado_1096590" data-name="Trazado 1096590" d="M6.414,21.173,6.328,21c.051.12,0-.034-.017-.034l-.1-.325-.069-.308-.034-.171-.017-.069c.017.069.017.069.017.017a4.366,4.366,0,0,1-.034-.668l.017-.137c0-.017.034-.223,0-.086l.068-.325A.55.55,0,1,0,5.1,18.6a4.759,4.759,0,0,0,.36,3.117.548.548,0,0,0,.754.205.559.559,0,0,0,.205-.753" transform="translate(80.29 293.455)" fill="#421659"/>
      <path id="Trazado_1096591" data-name="Trazado 1096591" d="M6.337,19.756c-.12-.514-.257-1.027-.377-1.541a.57.57,0,0,0-.685-.377.548.548,0,0,0-.377.685c.12.5.257,1.01.377,1.524a.572.572,0,0,0,.685.394.585.585,0,0,0,.377-.685" transform="translate(78.637 287.286)" fill="#421659"/>
      <path id="Trazado_1096592" data-name="Trazado 1096592" d="M3.807,29.431a47.109,47.109,0,0,1,8.751-8.665c.548-.428,0-1.387-.565-.959A48.182,48.182,0,0,0,3.036,28.66c-.445.548.343,1.336.771.771" transform="translate(46.831 317.632)" fill="#421659"/>
      <path id="Trazado_1096593" data-name="Trazado 1096593" d="M3.837,24.55c1.147-1.284,2.295-2.569,3.442-3.836a.6.6,0,0,0,0-.788.563.563,0,0,0-.788,0C5.344,21.211,4.2,22.495,3.066,23.779a.545.545,0,0,0,.771.771" transform="translate(46.853 318.711)" fill="#421659"/>
      <path id="Trazado_1096594" data-name="Trazado 1096594" d="M.666,17.495v2.689a.563.563,0,0,0,.548.548.552.552,0,0,0,.548-.548V17.495a.541.541,0,0,0-.548-.548.563.563,0,0,0-.548.548" transform="translate(10.739 273.244)" fill="#421659"/>
      <path id="Trazado_1096595" data-name="Trazado 1096595" d="M.707,18.188c.137.634.257,1.267.394,1.918a.57.57,0,0,0,.685.377.559.559,0,0,0,.377-.668c-.137-.651-.257-1.284-.394-1.918a.558.558,0,0,0-.685-.394.57.57,0,0,0-.377.685" transform="translate(11.143 281.884)" fill="#421659"/>
      <path id="Trazado_1096596" data-name="Trazado 1096596" d="M.867,18.922l.394.771.137.154.188.086a.326.326,0,0,0,.223.017l.206-.069a.465.465,0,0,0,.24-.325l.034-.154a.568.568,0,0,0-.086-.274c-.12-.257-.257-.514-.377-.754l-.154-.154-.188-.1A.325.325,0,0,0,1.26,18.1l-.188.069a.543.543,0,0,0-.257.325L.8,18.648a.5.5,0,0,0,.068.274" transform="translate(12.868 291.665)" fill="#421659"/>
      <path id="Trazado_1096597" data-name="Trazado 1096597" d="M1.136,19.409l1.147,1.147a.59.59,0,0,0,.394.171.59.59,0,0,0,.394-.171.624.624,0,0,0,.154-.394.531.531,0,0,0-.154-.377c-.394-.394-.771-.771-1.164-1.147a.519.519,0,0,0-.377-.171.558.558,0,0,0-.394.171.469.469,0,0,0-.154.377.542.542,0,0,0,.154.394" transform="translate(15.784 297.77)" fill="#421659"/>
      <path id="Trazado_1096598" data-name="Trazado 1096598" d="M2.87,20.182c.634-.137,1.267-.274,1.918-.394a.57.57,0,0,0,.377-.685.559.559,0,0,0-.668-.377c-.651.12-1.284.257-1.918.394a.558.558,0,0,0-.394.685.57.57,0,0,0,.685.377" transform="translate(34.891 301.69)" fill="#421659"/>
      <path id="Trazado_1096599" data-name="Trazado 1096599" d="M3.407,20.138c.634-.137,1.267-.257,1.918-.394a.57.57,0,0,0,.377-.685.551.551,0,0,0-.668-.377c-.651.137-1.284.257-1.918.394a.558.558,0,0,0-.394.685.57.57,0,0,0,.685.377" transform="translate(43.55 300.98)" fill="#421659"/>
      <path id="Trazado_1096600" data-name="Trazado 1096600" d="M4.851,20.138c.514-.257,1.027-.514,1.524-.771a.541.541,0,0,0,.205-.754.57.57,0,0,0-.753-.188c-.514.257-1.027.514-1.524.753a.548.548,0,0,0-.206.753.559.559,0,0,0,.754.206" transform="translate(64.847 295.98)" fill="#421659"/>
      <path id="Trazado_1096601" data-name="Trazado 1096601" d="M5.336,21.735c.514-1.027,1.01-2.038,1.524-3.065a.571.571,0,0,0-.206-.754A.554.554,0,0,0,5.9,18.1c-.5,1.027-1.01,2.055-1.524,3.082a.552.552,0,1,0,.959.548" transform="translate(69.602 287.704)" fill="#421659"/>
      <path id="Trazado_1096602" data-name="Trazado 1096602" d="M5.529,20.8c.428-.873.839-1.747,1.267-2.637a.552.552,0,0,0-.959-.548c-.428.873-.839,1.747-1.267,2.637a.552.552,0,1,0,.959.548" transform="translate(72.714 279.75)" fill="#421659"/>
      <path id="Trazado_1096603" data-name="Trazado 1096603" d="M5.712,18.839l.377-1.147a.535.535,0,0,0-.051-.428.543.543,0,0,0-.325-.257.58.58,0,0,0-.685.394L4.65,18.547a.535.535,0,0,0,.051.428.566.566,0,0,0,.325.24.555.555,0,0,0,.685-.377" transform="translate(74.587 273.972)" fill="#421659"/>
      <path id="Trazado_1096604" data-name="Trazado 1096604" d="M6.065,167.76c5.155-11.748,10.96-23.2,17.176-34.438,6.251-11.3,12.912-22.365,19.728-33.308,6.816-10.926,13.786-21.749,20.7-32.623Q68.887,59.2,74.068,50.917c3.356-5.394,6.918-10.754,9.83-16.406,2.62-5.086,4.761-11.2,3.048-16.937-1.353-4.538-5.035-8.991-9.9-9.83a10.247,10.247,0,0,0-3.613.034c-1.387.257-.8,2.38.582,2.123,4.795-.873,8.956,3.185,10.515,7.364,2.021,5.463-.069,11.371-2.6,16.286-2.86,5.5-6.319,10.7-9.59,15.96C69.033,54.838,65.676,60.13,62.32,65.421c-6.7,10.515-13.46,21-20.07,31.578-6.627,10.6-13.118,21.3-19.231,32.212C16.922,140.035,11.2,151.08,6.047,162.4c-.634,1.421-1.267,2.826-1.884,4.247-.565,1.284,1.336,2.415,1.9,1.113" transform="translate(65.466 122.55)" fill="#421659"/>
      <path id="Trazado_1096605" data-name="Trazado 1096605" d="M37.981,18.472c-2.5,1.182-5.309-1.147-8.066-.942-3.733.257-5.925,4.932-9.641,5.326-1.113.12-2.26-.188-3.391-.017-2.723.377-4.35,3.2-5.292,5.805a4,4,0,0,1-.856,1.593,2.478,2.478,0,0,1-3.271-.291,5.77,5.77,0,0,1-1.438-3.254A20.447,20.447,0,0,1,15.839,5.885c6.114-3.459,13.529-3.459,20.533-3.134,4.452.223,11.354.616,13.34,5.48,1.284,3.134-.377,7-3.819,7.672-1.37.257-2.791.034-4.178.377-1.524.36-2.363,1.558-3.733,2.192" transform="translate(92.665 42.176)" fill="#421659"/>
      <path id="Trazado_1096606" data-name="Trazado 1096606" d="M61.446,3.2a15,15,0,0,0-12.69,3.785A14.328,14.328,0,0,0,44.51,19.744a14.652,14.652,0,0,0,3.288,7.21c.137-.308.274-.634.394-.942A14.431,14.431,0,0,0,37.163,48.84L37.643,48c-7.689-.188-15.721,1.849-21.663,6.9a21.17,21.17,0,0,0-7.415,18.82,16.647,16.647,0,0,0,4.983,10.069l.1-.873C9.575,85.487,4.985,88.381,3.119,93.073c-1.524,3.8-1.01,8.665,2.483,11.2v-.959c-3.887,2.278-4.384,8.477-.822,11.285.565.445,1.353-.343.788-.771a6.012,6.012,0,0,1,.6-9.556.568.568,0,0,0,0-.959c-3.237-2.346-3.356-7.158-1.73-10.5,1.986-4.076,6.079-6.61,9.778-8.939a.573.573,0,0,0,.12-.873C9.4,78.38,8.479,70.982,10.517,64.766,12.76,57.933,18.7,53.189,25.364,50.912a35.136,35.136,0,0,1,12.279-1.8.567.567,0,0,0,.48-.839A13.315,13.315,0,0,1,48.192,27.125a.569.569,0,0,0,.394-.959,13.734,13.734,0,0,1-1.319-15.618A13.784,13.784,0,0,1,61.155,4.263c.7.137.993-.942.291-1.062" transform="translate(37.21 48.096)" fill="#fff"/>
      <path id="Trazado_1096607" data-name="Trazado 1096607" d="M26.994,4.9a11.06,11.06,0,0,0-9.436,7.021c-1.918,4.675-.736,10,1.644,14.265.171-.274.325-.548.48-.839a15.424,15.424,0,0,0-13.6,7.124,15.334,15.334,0,0,0,.1,15.858c.377.6,1.336.051.959-.565a13.882,13.882,0,0,1,12.535-21.3.561.561,0,0,0,.479-.839c-2.158-3.853-3.288-8.614-1.73-12.9,1.319-3.6,4.658-6.559,8.562-6.713.719-.034.719-1.147,0-1.113" transform="translate(63.306 79.051)" fill="#fff"/>
      <path id="Trazado_1096608" data-name="Trazado 1096608" d="M8.6,3.693a15.056,15.056,0,0,1,1.661,14.573.572.572,0,0,0,.394.685c4.761,1.421,7.175,6.627,7.038,11.3-.188,5.874-4.059,10.994-7.843,15.173a.561.561,0,0,0,.548.925c4.744-1.3,9.676.976,12.707,4.658,3.425,4.161,3.8,9.864,2.192,14.847a22.943,22.943,0,0,1-4.726,8.117.557.557,0,0,0,.668.873c3-1.7,6.49.89,7.6,3.7,1.593,4.024-.753,8.614-2.517,12.142a.6.6,0,0,0,.086.685c7.227,6.079,6.7,18.94-1.113,24.317-.582.411-.034,1.37.565.959,6.507-4.487,8.408-13.717,5.274-20.79A14.631,14.631,0,0,0,27.2,90.585l.086.668c2.038-4.076,4.555-9.316,2.26-13.8-1.593-3.1-5.514-5.463-8.854-3.562l.668.873c3.9-4.384,6.473-10.275,5.908-16.217a15.248,15.248,0,0,0-8.8-12.484,12.352,12.352,0,0,0-8.357-.788c.171.308.343.616.531.925,4.076-4.5,8.22-10.069,8.169-16.457-.034-5.018-2.791-10.343-7.86-11.85.137.223.257.445.394.685A16.132,16.132,0,0,0,9.559,3.128c-.411-.565-1.37-.017-.959.565" transform="translate(137.064 46.611)" fill="#fff"/>
      <path id="Trazado_1096609" data-name="Trazado 1096609" d="M7.678,15.1c4.881,9.008,10.96,17.69,19.505,23.324,3.254,2.158,6.833,3.836,9.967,6.165a18.344,18.344,0,0,1,5.429,6.165,1.684,1.684,0,0,1-2.449,2.141,25.721,25.721,0,0,1-3.339-2.928c-1.952-1.935-4.692-3.8-7.227-2.74q5.626,9.093,11.011,18.341a.96.96,0,0,1-1.319,1.3c-3.887-2.38-6.251-7.158-8.169-11.525.788,5.651,5.84,10.052,7.621,15.275a1.45,1.45,0,0,1-2.278,1.593c-4.572-3.7-7.518-9.316-10.224-14.659a129.356,129.356,0,0,1,7.723,15.5,1.332,1.332,0,0,1-1.867,1.678c-5.874-3.168-9.247-10.292-11.885-16.748a38.526,38.526,0,0,1,3.665,9.59,1.665,1.665,0,0,1-2.706,1.644A15.105,15.105,0,0,1,17.9,64.878,156.36,156.36,0,0,1,4.355,31.3a22.7,22.7,0,0,0-3.339-7.21C3.7,20.114,5.537,19.394,7.678,15.1" transform="translate(16.383 243.413)" fill="#f5ba9c"/>
      <path id="Trazado_1096610" data-name="Trazado 1096610" d="M80.894,7.323C25.084,48.269,26.557,57.174,7.12,84.471A37.444,37.444,0,0,0,.7,97.674c-1.764,6.251.24,13.563,1.3,19.968,2.5,15.1,12.467,40.792,18.084,55.04,7.74-5.257,13.631-9.59,21.372-14.83-3.271-14.573-12.655-42.864-17.741-56.923a7.994,7.994,0,0,0,3.836-.771,5.905,5.905,0,0,0-.411-3.939C33.664,88.6,42.055,82.45,49.47,75.7,68.444,58.424,82.641,32.925,80.894,7.323" transform="translate(-0.013 118.074)" fill="#a9c66a"/>
      <path id="Trazado_1096611" data-name="Trazado 1096611" d="M4.068,66.084A97.632,97.632,0,0,0,30.2,23.238,93.178,93.178,0,0,0,33.215,9.229c.154-1.062-1.473-1.524-1.627-.445a96.149,96.149,0,0,1-19.3,45.724A94.852,94.852,0,0,1,2.869,64.885c-.788.753.411,1.952,1.2,1.2" transform="translate(42.118 131.717)" fill="#421659"/>
      <path id="Trazado_1096612" data-name="Trazado 1096612" d="M1.824,13.994,8.657,16.46A.843.843,0,1,0,9.1,14.833L2.269,12.367a.861.861,0,0,0-1.045.582.878.878,0,0,0,.6,1.045" transform="translate(19.308 198.775)" fill="#421659"/>
      <path id="Trazado_1096613" data-name="Trazado 1096613" d="M2.209,15.524l3.442-1.182A.869.869,0,0,0,6.233,13.3a.847.847,0,0,0-1.045-.582c-1.147.394-2.278.788-3.425,1.182a.843.843,0,1,0,.445,1.627" transform="translate(18.239 204.3)" fill="#421659"/>
      <path id="Trazado_1096614" data-name="Trazado 1096614" d="M2.161,32.65a126.351,126.351,0,0,0,23.5-15.7c.839-.7-.377-1.9-1.2-1.2A125.082,125.082,0,0,1,1.305,31.194c-.959.5-.1,1.952.856,1.456" transform="translate(14.279 250.485)" fill="#421659"/>
      <path id="Trazado_1096615" data-name="Trazado 1096615" d="M22.17,17.152c2.4,4.024,4.778,8.032,7.175,12.056,1.3,2.192,2.671,4.47,4.761,5.925,3.493,2.449,8.134,2.106,12.33,2.86C56.762,39.843,65.136,49.5,65.5,59.964c-1.678,0-2.809-1.61-3.819-2.928A23.252,23.252,0,0,0,41.9,48.028a6.13,6.13,0,0,0-4.076,1.421c-2.175,2.141-.873,5.84.788,8.391,1.661,2.569,3.665,5.617,2.449,8.425-1.421.1-2.689-.856-3.75-1.8a92.5,92.5,0,0,1-25.687-36.75c3.425-4.521,5.668-7.689,10.549-10.566" transform="translate(187.388 276.566)" fill="#f5ba9c"/>
      <path id="Trazado_1096616" data-name="Trazado 1096616" d="M13.138,11.548C20.04,51.021,45.8,84.209,70.712,115.6a72.62,72.62,0,0,1-19.505,19.9c-11.063-16.577-22.913-33.513-31.938-51.272-3.185-6.268-6.251-12.655-8-19.471C9.131,56.381,9.063,47.63,9.182,38.982c.137-9.316,3.374-18.135,3.956-27.434" transform="translate(147.494 186.202)" fill="#a9c66a"/>
      <path id="Trazado_1096617" data-name="Trazado 1096617" d="M12.865,36.711A102.829,102.829,0,0,0,28.808,18.4c.616-.89-.856-1.747-1.456-.839A101.7,101.7,0,0,1,11.666,35.513c-.8.736.394,1.935,1.2,1.2" transform="translate(183.815 276.992)" fill="#421659"/>
      <path id="Trazado_1096618" data-name="Trazado 1096618" d="M11.835,60.5c-.754-12.261-1.507-24.643.017-36.87A86.718,86.718,0,0,1,13.822,13.2a.852.852,0,0,0-1.644-.445c-3.065,12.09-3.2,24.643-2.637,37.041.171,3.562.377,7.141.6,10.7.068,1.079,1.764,1.1,1.7,0" transform="translate(149.636 195.89)" fill="#421659"/>
    </g>
  </g>
</svg>
