<svg xmlns="http://www.w3.org/2000/svg" width="85.805" height="61.482" viewBox="0 0 85.805 61.482">
  <g id="reserva-en-linea_1_" data-name="reserva-en-linea (1)" transform="translate(-0.25 -9.25)">
    <path id="Trazado_1096813" data-name="Trazado 1096813" d="M7.263,57.517H74.826A1.013,1.013,0,0,0,75.84,56.5V13.263a1.013,1.013,0,0,0-1.013-1.013H7.263A1.013,1.013,0,0,0,6.25,13.263V56.5A1.013,1.013,0,0,0,7.263,57.517Zm1.013-43.24H73.813V55.49H8.277Z" transform="translate(2.108 1.054)" fill="#2ebde1"/>
    <path id="Trazado_1096814" data-name="Trazado 1096814" d="M85.041,60.6H81.593A3.681,3.681,0,0,0,82,58.909V12.966A3.719,3.719,0,0,0,78.285,9.25H8.02A3.719,3.719,0,0,0,4.3,12.966V58.909A3.681,3.681,0,0,0,4.709,60.6H1.263A1.013,1.013,0,0,0,.25,61.611a9.132,9.132,0,0,0,9.121,9.121H76.934a9.132,9.132,0,0,0,9.121-9.121A1.013,1.013,0,0,0,85.041,60.6ZM6.331,12.966A1.692,1.692,0,0,1,8.02,11.277H78.285a1.692,1.692,0,0,1,1.689,1.689V58.909A1.692,1.692,0,0,1,78.285,60.6H8.02a1.692,1.692,0,0,1-1.689-1.689ZM50.719,62.625l-1.351,2.027H36.937l-1.351-2.027Zm26.214,6.081H9.371a7.1,7.1,0,0,1-7.027-6.081H33.153l2.4,3.6a1.012,1.012,0,0,0,.842.451H49.909a1.012,1.012,0,0,0,.843-.451l2.4-3.6H83.96A7.1,7.1,0,0,1,76.934,68.705Z" transform="translate(0 0)" fill="#2ebde1"/>
    <path id="Trazado_1096815" data-name="Trazado 1096815" d="M16.033,27.547a1.012,1.012,0,0,0-1.432,0L10.547,31.6a1.012,1.012,0,0,0,0,1.432L14.6,37.087a1.013,1.013,0,1,0,1.432-1.432L12.7,32.317l3.336-3.338a1.012,1.012,0,0,0,0-1.432Z" transform="translate(3.513 6.323)" fill="#2ebde1"/>
    <path id="Trazado_1096816" data-name="Trazado 1096816" d="M27.763,27.331h4.054a1.013,1.013,0,0,0,1.013-1.013V22.263a1.013,1.013,0,0,0-1.013-1.013H27.763a1.013,1.013,0,0,0-1.013,1.013v4.054a1.013,1.013,0,0,0,1.013,1.013Zm1.013-4.054H30.8V25.3H28.777Z" transform="translate(9.308 4.215)" fill="#2ebde1"/>
    <path id="Trazado_1096817" data-name="Trazado 1096817" d="M33.763,33.331h4.054a1.013,1.013,0,0,0,1.013-1.013V28.263a1.013,1.013,0,0,0-1.013-1.013H33.763a1.013,1.013,0,0,0-1.013,1.013v4.054a1.013,1.013,0,0,0,1.013,1.013Zm1.013-4.054H36.8V31.3H34.777Z" transform="translate(11.416 6.323)" fill="#2ebde1"/>
    <path id="Trazado_1096818" data-name="Trazado 1096818" d="M33.763,27.331h4.054a1.013,1.013,0,0,0,1.013-1.013V22.263a1.013,1.013,0,0,0-1.013-1.013H33.763a1.013,1.013,0,0,0-1.013,1.013v4.054a1.013,1.013,0,0,0,1.013,1.013Zm1.013-4.054H36.8V25.3H34.777Z" transform="translate(11.416 4.215)" fill="#2ebde1"/>
    <path id="Trazado_1096819" data-name="Trazado 1096819" d="M27.763,33.331h4.054a1.013,1.013,0,0,0,1.013-1.013V28.263a1.013,1.013,0,0,0-1.013-1.013H27.763a1.013,1.013,0,0,0-1.013,1.013v4.054a1.013,1.013,0,0,0,1.013,1.013Zm1.013-4.054H30.8V31.3H28.777Z" transform="translate(9.308 6.323)" fill="#2ebde1"/>
    <path id="Trazado_1096820" data-name="Trazado 1096820" d="M56.95,23.655H48.5V20.277h.338a1.013,1.013,0,1,0,0-2.027H25.871a1.013,1.013,0,1,0,0,2.027h.338v3.378H17.763a1.013,1.013,0,1,0,0,2.027H18.1V46.289A1.013,1.013,0,0,0,19.115,47.3H55.6a1.013,1.013,0,0,0,1.013-1.013V25.682h.338a1.013,1.013,0,1,0,0-2.027ZM26.209,45.275H20.128V41.9h3.04a1.013,1.013,0,1,0,0-2.027h-3.04V37.843h3.04a1.013,1.013,0,0,0,0-2.027h-3.04V33.789h3.04a1.013,1.013,0,1,0,0-2.027h-3.04V29.736h3.04a1.013,1.013,0,1,0,0-2.027h-3.04V25.682h6.081Zm12.837,0H35.668V40.546h3.378Zm7.432,0H41.073V39.532a1.013,1.013,0,0,0-1.013-1.013H34.654a1.013,1.013,0,0,0-1.013,1.013v5.743H28.236v-25H46.478Zm8.108-17.566h-3.04a1.013,1.013,0,0,0,0,2.027h3.04v2.027h-3.04a1.013,1.013,0,0,0,0,2.027h3.04v2.027h-3.04a1.013,1.013,0,0,0,0,2.027h3.04V39.87h-3.04a1.013,1.013,0,0,0,0,2.027h3.04v3.378H48.5V25.682h6.081Z" transform="translate(5.796 3.161)" fill="#2ebde1"/>
    <path id="Trazado_1096821" data-name="Trazado 1096821" d="M50.973,27.541a1.013,1.013,0,0,0-1.432,1.432l3.336,3.338-3.336,3.338a1.013,1.013,0,0,0,1.432,1.432l4.054-4.054a1.012,1.012,0,0,0,0-1.432Z" transform="translate(17.218 6.329)" fill="#2ebde1"/>
  </g>
</svg>
