<svg xmlns="http://www.w3.org/2000/svg" width="124" height="124" viewBox="0 0 124 124">
  <g id="Grupo_1193567" data-name="Grupo 1193567" transform="translate(3669.002 6413.323)">
    <g id="Grupo_1193566" data-name="Grupo 1193566" transform="translate(3713.857 3211.131)">
      <g id="Grupo_1190972" data-name="Grupo 1190972" transform="translate(-7776.207 -17585.906)">
        <g id="Grupo_1190808" data-name="Grupo 1190808" transform="translate(-708.875 4775)">
          <circle id="Elipse_11474" data-name="Elipse 11474" cx="62" cy="62" r="62" transform="translate(1102.223 3186.452)" fill="#b8dcf3"/>
        </g>
      </g>
    </g>
    <g id="turista_1_" data-name="turista (1)" transform="translate(-3638.867 -6391.911)">
      <path id="Trazado_1096424" data-name="Trazado 1096424" d="M94.509,71.353a1.394,1.394,0,0,0,1.386-1.54L94.419,55.857A15.36,15.36,0,0,0,83.5,42.628l-4.865-1.5h0L73.99,39.688l-.854-6.311A14.4,14.4,0,0,0,79.37,21.522V17.6h4.357a1.394,1.394,0,0,0,1.04-2.321L79.645,9.534V8.413A8.423,8.423,0,0,0,71.232,0a1.394,1.394,0,1,0,0,2.787,5.632,5.632,0,0,1,5.626,5.626v.259H53.29V8.413a5.632,5.632,0,0,1,5.626-5.626h.06a1.394,1.394,0,1,0,0-2.787h-.06A8.423,8.423,0,0,0,50.5,8.413V9.544L45.508,15.29A1.394,1.394,0,0,0,46.56,17.6h4.008v3.924a14.4,14.4,0,0,0,6.375,11.952L56.1,39.684l-9.642,2.95A15.378,15.378,0,0,0,35.521,55.85L34.043,69.813a1.394,1.394,0,0,0,1.386,1.54Zm-37.7-28.972a10.613,10.613,0,0,0,8.754,3.98,10.259,10.259,0,0,0,7.727-3.971l2.8.866a12.974,12.974,0,0,1-10.967,5.9,13.347,13.347,0,0,1-11.132-5.914ZM52.532,11.459H77.627l2.99,3.351h-31Zm.823,10.063V17.6H76.583v3.924a11.614,11.614,0,1,1-23.228,0ZM60.4,35.179a14.451,14.451,0,0,0,10.121-.364l.76,5.615a7.411,7.411,0,0,1-6.063,3.153,7.838,7.838,0,0,1-6.4-3.171l.749-5.538Q59.976,35.039,60.4,35.179Zm-22.1,20.957,0-.016a12.569,12.569,0,0,1,8.951-10.811l.02-.006,3.957-1.211a16.175,16.175,0,0,0,13.9,7.854,15.763,15.763,0,0,0,13.719-7.839L82.69,45.3l.032.009a12.521,12.521,0,0,1,8.92,10.8q0,.015,0,.03L92.96,68.566H86.305V56.592a1.394,1.394,0,0,0-2.787,0V68.566H62.788v-6.4a1.394,1.394,0,0,0-1.394-1.394H51.073a1.394,1.394,0,0,0-1.394,1.394v6.4H46.421V56.592a1.394,1.394,0,0,0-2.787,0V68.566H36.978ZM52.467,68.566V63.56H60v5.006Z" transform="translate(-34.035 0)" fill="#20849e"/>
      <path id="Trazado_1096425" data-name="Trazado 1096425" d="M238.47,143.834h2.172a1.394,1.394,0,1,0,0-2.787H239.5l.9-2.655a1.394,1.394,0,0,0-2.64-.894l-1.229,3.627a2.051,2.051,0,0,0,1.943,2.709Z" transform="translate(-208.214 -117.521)" fill="#20849e"/>
      <path id="Trazado_1096426" data-name="Trazado 1096426" d="M249.845.635a1.4,1.4,0,0,0-1.933-.386,1.393,1.393,0,1,0,1.933.386Z" transform="translate(-217.578 -0.015)" fill="#20849e"/>
    </g>
  </g>
</svg>
