<svg xmlns="http://www.w3.org/2000/svg" width="74" height="74" viewBox="0 0 74 74">
  <g id="Grupo_1193772" data-name="Grupo 1193772" transform="translate(-0.333 -0.333)">
    <circle id="Elipse_13838" data-name="Elipse 13838" cx="37" cy="37" r="37" transform="translate(0.333 0.333)" fill="#b8dcf3"/>
    <g id="_011---Completed-Task-List" data-name="011---Completed-Task-List" transform="translate(15.887 15.891)">
      <path id="Shape" d="M34.793,22.141a12.573,12.573,0,0,0-1.582.11V6.982a2.372,2.372,0,0,0-.2-.949c-.008-.019-.02-.035-.028-.052a2.381,2.381,0,0,0-.469-.681L27.914.7a2.381,2.381,0,0,0-.683-.469C27.213.221,27.2.209,27.178.2a2.372,2.372,0,0,0-.949-.2H3.163A3.163,3.163,0,0,0,0,3.163v34a3.163,3.163,0,0,0,3.163,3.163H23.434A12.645,12.645,0,1,0,34.793,22.141ZM30.512,5.535H29.258a1.582,1.582,0,0,1-1.582-1.582V2.7ZM3.163,38.747a1.582,1.582,0,0,1-1.582-1.582v-34A1.582,1.582,0,0,1,3.163,1.582H26.095V3.954a3.163,3.163,0,0,0,3.163,3.163H31.63V22.558a12.611,12.611,0,0,0-8.848,16.189Zm31.63,7.117A11.071,11.071,0,1,1,45.864,34.794,11.071,11.071,0,0,1,34.793,45.864Z" transform="translate(0 0)" fill="#20849e"/>
      <path id="Shape-2" data-name="Shape" d="M15.512,5.229,14,6.737a2.36,2.36,0,0,0-1.886-.949H7.372A2.372,2.372,0,0,0,5,8.16v4.745a2.372,2.372,0,0,0,2.372,2.372h4.745a2.372,2.372,0,0,0,2.372-2.372V8.488L16.63,6.347a.791.791,0,1,0-1.118-1.118Zm-2.6,7.676a.791.791,0,0,1-.791.791H7.372a.791.791,0,0,1-.791-.791V8.16a.791.791,0,0,1,.791-.791h4.745a.786.786,0,0,1,.735.519l-2.317,2.317L9.513,9.183A.791.791,0,0,0,8.395,10.3l1.582,1.582a.791.791,0,0,0,1.118,0l1.813-1.813Z" transform="translate(-1.046 -1.044)" fill="#20849e"/>
      <path id="Shape-3" data-name="Shape" d="M15.512,19.234,14,20.742a2.36,2.36,0,0,0-1.886-.949H7.372A2.372,2.372,0,0,0,5,22.166V26.91a2.372,2.372,0,0,0,2.372,2.372h4.745a2.372,2.372,0,0,0,2.372-2.372V22.493l2.141-2.141a.791.791,0,0,0-1.118-1.118Zm-2.6,7.676a.791.791,0,0,1-.791.791H7.372a.791.791,0,0,1-.791-.791V22.166a.791.791,0,0,1,.791-.791h4.745a.786.786,0,0,1,.735.519l-2.317,2.317L9.513,23.188a.791.791,0,0,0-1.118,1.118l1.582,1.582a.791.791,0,0,0,1.118,0l1.813-1.813Z" transform="translate(-1.046 -3.978)" fill="#20849e"/>
      <path id="Shape-4" data-name="Shape" d="M15.512,33.234,14,34.742a2.36,2.36,0,0,0-1.886-.949H7.372A2.372,2.372,0,0,0,5,36.166V40.91a2.372,2.372,0,0,0,2.372,2.372h4.745a2.372,2.372,0,0,0,2.372-2.372V36.493l2.141-2.141a.791.791,0,0,0-1.118-1.118Zm-2.6,7.676a.791.791,0,0,1-.791.791H7.372a.791.791,0,0,1-.791-.791V36.166a.791.791,0,0,1,.791-.791h4.745a.786.786,0,0,1,.735.519l-2.317,2.317L9.513,37.188a.791.791,0,0,0-1.118,1.118l1.582,1.582a.791.791,0,0,0,1.118,0l1.813-1.813Z" transform="translate(-1.046 -6.907)" fill="#20849e"/>
      <path id="Path" d="M47.71,36.126a.791.791,0,0,0-1.093.237L40.031,46.609,38.352,44.93a.791.791,0,0,0-1.118,1.118l2.372,2.372a.791.791,0,0,0,.559.232.747.747,0,0,0,.084,0,.791.791,0,0,0,.581-.358l7.117-11.071A.791.791,0,0,0,47.71,36.126Z" transform="translate(-7.745 -7.533)" fill="#20849e"/>
      <path id="Path-2" data-name="Path" d="M22.791,9.582h5.535a.791.791,0,0,0,0-1.582H22.791a.791.791,0,0,0,0,1.582Z" transform="translate(-4.603 -1.674)" fill="#20849e"/>
      <path id="Path-3" data-name="Path" d="M22.791,14.582h4.745a.791.791,0,0,0,0-1.582H22.791a.791.791,0,0,0,0,1.582Z" transform="translate(-4.603 -2.72)" fill="#20849e"/>
      <path id="Path-4" data-name="Path" d="M22.791,23.582h10.28a.791.791,0,0,0,0-1.582H22.791a.791.791,0,0,0,0,1.582Z" transform="translate(-4.603 -4.603)" fill="#20849e"/>
      <path id="Path-5" data-name="Path" d="M22.791,28.582h4.745a.791.791,0,0,0,0-1.582H22.791a.791.791,0,0,0,0,1.582Z" transform="translate(-4.603 -5.649)" fill="#20849e"/>
      <path id="Path-6" data-name="Path" d="M25.163,36H22.791a.791.791,0,0,0,0,1.582h2.372a.791.791,0,0,0,0-1.582Z" transform="translate(-4.603 -7.533)" fill="#20849e"/>
      <path id="Path-7" data-name="Path" d="M24.372,41H22.791a.791.791,0,0,0,0,1.582h1.582a.791.791,0,0,0,0-1.582Z" transform="translate(-4.603 -8.579)" fill="#20849e"/>
    </g>
  </g>
</svg>
